Asar-Regular.ufo
<glyph name="numbersign" format="1">
  <advance width="681"/>
  <unicode hex="0023"/>
  <outline>
    <contour>
      <point x="151" y="7" type="curve" smooth="yes" name="hr01"/>
      <point x="151" y="-4"/>
      <point x="160" y="-8"/>
      <point x="171" y="-8" type="curve" smooth="yes"/>
      <point x="188" y="-8"/>
      <point x="211" y="3"/>
      <point x="220" y="17" type="curve"/>
      <point x="240" y="189" type="line"/>
      <point x="384" y="189" type="line"/>
      <point x="368" y="26" type="line"/>
      <point x="365" y="18"/>
      <point x="363" y="12"/>
      <point x="363" y="8" type="curve" smooth="yes"/>
      <point x="363" y="-4"/>
      <point x="371" y="-8"/>
      <point x="382" y="-8" type="curve" smooth="yes"/>
      <point x="399" y="-8"/>
      <point x="422" y="3"/>
      <point x="431" y="17" type="curve" name="hr02"/>
      <point x="452" y="189" type="line"/>
      <point x="516" y="189" type="line"/>
      <point x="536" y="191"/>
      <point x="578" y="216"/>
      <point x="578" y="231" type="curve" smooth="yes"/>
      <point x="578" y="237"/>
      <point x="572" y="241"/>
      <point x="558" y="242" type="curve"/>
      <point x="458" y="242" type="line"/>
      <point x="478" y="404" type="line"/>
      <point x="527" y="404" type="line"/>
      <point x="549" y="406"/>
      <point x="590" y="431"/>
      <point x="590" y="446" type="curve" smooth="yes"/>
      <point x="590" y="452"/>
      <point x="584" y="457"/>
      <point x="570" y="458" type="curve"/>
      <point x="484" y="458" type="line"/>
      <point x="503" y="611" type="line"/>
      <point x="503" y="617"/>
      <point x="504" y="622"/>
      <point x="504" y="626" type="curve" smooth="yes"/>
      <point x="504" y="637"/>
      <point x="501" y="641"/>
      <point x="490" y="641" type="curve" smooth="yes"/>
      <point x="470" y="641"/>
      <point x="437" y="626"/>
      <point x="427" y="610" type="curve"/>
      <point x="412" y="458" type="line"/>
      <point x="273" y="458" type="line"/>
      <point x="291" y="611" type="line" smooth="yes"/>
      <point x="292" y="618"/>
      <point x="293" y="624"/>
      <point x="293" y="628" type="curve" smooth="yes"/>
      <point x="293" y="638"/>
      <point x="289" y="641"/>
      <point x="279" y="641" type="curve" smooth="yes"/>
      <point x="259" y="641"/>
      <point x="226" y="626"/>
      <point x="216" y="610" type="curve"/>
      <point x="201" y="458" type="line"/>
      <point x="142" y="458" type="line" smooth="yes"/>
      <point x="122" y="458"/>
      <point x="95" y="442"/>
      <point x="95" y="425" type="curve" smooth="yes"/>
      <point x="95" y="418"/>
      <point x="101" y="410"/>
      <point x="115" y="404" type="curve"/>
      <point x="195" y="404" type="line"/>
      <point x="179" y="242" type="line"/>
      <point x="115" y="242" type="line"/>
      <point x="103" y="239"/>
      <point x="69" y="223"/>
      <point x="69" y="207" type="curve" smooth="yes"/>
      <point x="69" y="200"/>
      <point x="74" y="194"/>
      <point x="88" y="189" type="curve"/>
      <point x="173" y="189" type="line"/>
      <point x="157" y="26" type="line"/>
      <point x="153" y="18"/>
      <point x="151" y="12"/>
    </contour>
    <contour>
      <point x="247" y="242" type="line"/>
      <point x="266" y="404" type="line"/>
      <point x="406" y="404" type="line"/>
      <point x="390" y="242" type="line"/>
    </contour>
  </outline>
</glyph>
<glyph name="quotesingle" format="1">
  <advance width="319"/>
  <unicode hex="0027"/>
  <outline>
    <contour>
      <point x="161" y="367" type="curve" smooth="yes" name="hr00"/>
      <point x="171" y="367"/>
      <point x="179" y="369"/>
      <point x="183" y="373" type="curve"/>
      <point x="205" y="697" type="line"/>
      <point x="195" y="702"/>
      <point x="181" y="710"/>
      <point x="156" y="710" type="curve" smooth="yes"/>
      <point x="141" y="710"/>
      <point x="126" y="707"/>
      <point x="114" y="697" type="curve"/>
      <point x="131" y="379" type="line"/>
      <point x="142" y="371"/>
      <point x="148" y="367"/>
    </contour>
  </outline>
</glyph>
<glyph name="parenleft" format="1">
  <advance width="415"/>
  <unicode hex="0028"/>
  <outline>
    <contour>
      <point x="87" y="232" type="curve" smooth="yes" name="hr00"/>
      <point x="87" y="-11"/>
      <point x="184" y="-134"/>
      <point x="258" y="-188" type="curve"/>
      <point x="260" y="-188" type="line"/>
      <point x="260" y="-188"/>
      <point x="260" y="-188"/>
      <point x="260" y="-188" type="curve"/>
      <point x="260" y="-187"/>
      <point x="260" y="-187"/>
      <point x="260" y="-186" type="curve" smooth="yes"/>
      <point x="260" y="-185"/>
      <point x="260" y="-185"/>
      <point x="261" y="-185" type="curve" smooth="yes"/>
      <point x="275" y="-183"/>
      <point x="286" y="-172"/>
      <point x="286" y="-161" type="curve" smooth="yes"/>
      <point x="286" y="-155"/>
      <point x="283" y="-150"/>
      <point x="276" y="-146" type="curve"/>
      <point x="247" y="-120"/>
      <point x="177" y="-1"/>
      <point x="177" y="229" type="curve" smooth="yes"/>
      <point x="177" y="460"/>
      <point x="247" y="619"/>
      <point x="276" y="645" type="curve"/>
      <point x="283" y="648"/>
      <point x="286" y="654"/>
      <point x="286" y="659" type="curve" smooth="yes"/>
      <point x="286" y="671"/>
      <point x="260" y="684"/>
      <point x="260" y="685" type="curve" smooth="yes"/>
      <point x="260" y="685"/>
      <point x="260" y="686"/>
      <point x="260" y="687" type="curve" smooth="yes"/>
      <point x="260" y="687"/>
      <point x="260" y="687"/>
      <point x="260" y="687" type="curve"/>
      <point x="258" y="687" type="line"/>
      <point x="184" y="633"/>
      <point x="87" y="476"/>
    </contour>
  </outline>
</glyph>
<glyph name="parenright" format="1">
  <advance width="415"/>
  <unicode hex="0029"/>
  <outline>
    <contour>
      <point x="328" y="232" type="curve" name="hr00" smooth="yes"/>
      <point x="328" y="476"/>
      <point x="231" y="633"/>
      <point x="157" y="687" type="curve"/>
      <point x="155" y="687" type="line"/>
      <point x="155" y="687"/>
      <point x="155" y="687"/>
      <point x="155" y="687" type="curve" smooth="yes"/>
      <point x="155" y="686"/>
      <point x="155" y="685"/>
      <point x="155" y="685" type="curve" smooth="yes"/>
      <point x="155" y="684"/>
      <point x="129" y="671"/>
      <point x="129" y="659" type="curve" smooth="yes"/>
      <point x="129" y="654"/>
      <point x="132" y="648"/>
      <point x="139" y="645" type="curve"/>
      <point x="168" y="619"/>
      <point x="238" y="460"/>
      <point x="238" y="229" type="curve" smooth="yes"/>
      <point x="238" y="-1"/>
      <point x="168" y="-120"/>
      <point x="139" y="-146" type="curve"/>
      <point x="132" y="-150"/>
      <point x="129" y="-155"/>
      <point x="129" y="-161" type="curve" smooth="yes"/>
      <point x="129" y="-172"/>
      <point x="140" y="-183"/>
      <point x="154" y="-185" type="curve" smooth="yes"/>
      <point x="155" y="-185"/>
      <point x="155" y="-185"/>
      <point x="155" y="-186" type="curve" smooth="yes"/>
      <point x="155" y="-187"/>
      <point x="155" y="-187"/>
      <point x="155" y="-188" type="curve"/>
      <point x="155" y="-188"/>
      <point x="155" y="-188"/>
      <point x="155" y="-188" type="curve"/>
      <point x="157" y="-188" type="line"/>
      <point x="231" y="-134"/>
      <point x="328" y="-11"/>
    </contour>
  </outline>
</glyph>
<glyph name="comma" format="1">
  <advance width="242"/>
  <unicode hex="002C"/>
  <outline>
    <contour>
      <point x="59" y="27" type="curve" smooth="yes" name="hr00"/>
      <point x="59" y="3"/>
      <point x="67" y="-16"/>
      <point x="110" y="-16" type="curve" smooth="yes"/>
      <point x="119" y="-16"/>
      <point x="123" y="-32"/>
      <point x="123" y="-59" type="curve" smooth="yes"/>
      <point x="123" y="-95"/>
      <point x="96" y="-145"/>
      <point x="70" y="-164" type="curve"/>
      <point x="62" y="-168"/>
      <point x="59" y="-173"/>
      <point x="59" y="-178" type="curve" smooth="yes"/>
      <point x="59" y="-191"/>
      <point x="85" y="-203"/>
      <point x="85" y="-203" type="curve"/>
      <point x="85" y="-204"/>
      <point x="85" y="-204"/>
      <point x="85" y="-205" type="curve" smooth="yes"/>
      <point x="85" y="-205"/>
      <point x="85" y="-205"/>
      <point x="85" y="-205" type="curve"/>
      <point x="86" y="-205" type="line"/>
      <point x="162" y="-160"/>
      <point x="198" y="-95"/>
      <point x="198" y="-11" type="curve" smooth="yes"/>
      <point x="198" y="19"/>
      <point x="185" y="86"/>
      <point x="118" y="86" type="curve" smooth="yes"/>
      <point x="83" y="86"/>
      <point x="59" y="69"/>
    </contour>
  </outline>
</glyph>
<glyph name="slash" format="1">
  <advance width="429"/>
  <unicode hex="002F"/>
  <outline>
    <contour>
      <point x="32" y="-116" type="line" smooth="yes" name="hr00"/>
      <point x="29" y="-124"/>
      <point x="27" y="-130"/>
      <point x="27" y="-134" type="curve" smooth="yes"/>
      <point x="27" y="-146"/>
      <point x="35" y="-150"/>
      <point x="46" y="-150" type="curve" smooth="yes"/>
      <point x="66" y="-150"/>
      <point x="89" y="-139"/>
      <point x="98" y="-125" type="curve"/>
      <point x="400" y="689" type="line"/>
      <point x="401" y="695"/>
      <point x="401" y="701"/>
      <point x="401" y="705" type="curve" smooth="yes"/>
      <point x="401" y="715"/>
      <point x="398" y="719"/>
      <point x="387" y="719" type="curve" smooth="yes"/>
      <point x="367" y="719"/>
      <point x="334" y="704"/>
      <point x="324" y="688" type="curve"/>
    </contour>
  </outline>
</glyph>
<glyph name="zero" format="1">
  <advance width="612"/>
  <unicode hex="0030"/>
  <outline>
    <contour>
      <point x="83" y="124" type="curve" name="hr00"/>
      <point x="124" y="28"/>
      <point x="199" y="-17"/>
      <point x="281" y="-17" type="curve" smooth="yes"/>
      <point x="343" y="-17"/>
      <point x="414" y="4"/>
      <point x="468" y="59" type="curve" smooth="yes"/>
      <point x="535" y="128"/>
      <point x="555" y="246"/>
      <point x="555" y="342" type="curve" smooth="yes"/>
      <point x="555" y="492"/>
      <point x="497" y="673"/>
      <point x="335" y="673" type="curve" smooth="yes"/>
      <point x="264" y="673"/>
      <point x="194" y="636"/>
      <point x="138" y="583" type="curve"/>
      <point x="74" y="509"/>
      <point x="61" y="405"/>
      <point x="57" y="301" type="curve"/>
      <point x="58" y="236"/>
      <point x="62" y="184"/>
    </contour>
    <contour>
      <point x="328" y="42" type="curve" smooth="yes"/>
      <point x="165" y="42"/>
      <point x="148" y="233"/>
      <point x="148" y="357" type="curve" smooth="yes"/>
      <point x="148" y="463"/>
      <point x="160" y="612"/>
      <point x="281" y="612" type="curve" smooth="yes"/>
      <point x="434" y="612"/>
      <point x="466" y="436"/>
      <point x="466" y="302" type="curve" smooth="yes"/>
      <point x="466" y="203"/>
      <point x="457" y="42"/>
    </contour>
  </outline>
</glyph>
<glyph name="one" format="1">
  <advance width="460"/>
  <unicode hex="0031"/>
  <outline>
    <contour>
      <point x="64" y="20" type="curve" smooth="yes" name="hr00"/>
      <point x="64" y="12"/>
      <point x="67" y="0"/>
      <point x="83" y="0" type="curve" smooth="yes"/>
      <point x="401" y="0" type="line" smooth="yes"/>
      <point x="425" y="0"/>
      <point x="435" y="6"/>
      <point x="435" y="22" type="curve" smooth="yes"/>
      <point x="435" y="70"/>
      <point x="308" y="34"/>
      <point x="302" y="76" type="curve"/>
      <point x="302" y="650" type="line" smooth="yes"/>
      <point x="302" y="659"/>
      <point x="278" y="675"/>
      <point x="266" y="675" type="curve" smooth="yes"/>
      <point x="256" y="675"/>
      <point x="250" y="672"/>
      <point x="247" y="670" type="curve" smooth="yes"/>
      <point x="204" y="639"/>
      <point x="129" y="588"/>
      <point x="64" y="560" type="curve" smooth="yes"/>
      <point x="53" y="555"/>
      <point x="49" y="548"/>
      <point x="49" y="541" type="curve" smooth="yes"/>
      <point x="49" y="529"/>
      <point x="63" y="516"/>
      <point x="79" y="516" type="curve" smooth="yes"/>
      <point x="113" y="516"/>
      <point x="172" y="555"/>
      <point x="215" y="574" type="curve"/>
      <point x="215" y="60" type="line"/>
      <point x="213" y="60" type="line"/>
      <point x="181" y="45"/>
      <point x="64" y="52"/>
    </contour>
  </outline>
</glyph>
<glyph name="two" format="1">
  <advance width="562"/>
  <unicode hex="0032"/>
  <outline>
    <contour>
      <point x="35" y="12" type="curve" smooth="yes" name="hr00"/>
      <point x="35" y="7"/>
      <point x="38" y="2"/>
      <point x="46" y="0" type="curve"/>
      <point x="431" y="0" type="line" smooth="yes"/>
      <point x="477" y="0"/>
      <point x="488" y="20"/>
      <point x="492" y="39" type="curve"/>
      <point x="492" y="39"/>
      <point x="500" y="101"/>
      <point x="500" y="125" type="curve" smooth="yes"/>
      <point x="500" y="138"/>
      <point x="488" y="145"/>
      <point x="480" y="145" type="curve" smooth="yes"/>
      <point x="457" y="145"/>
      <point x="452" y="141"/>
      <point x="419" y="69" type="curve"/>
      <point x="150" y="54" type="line"/>
      <point x="302" y="180"/>
      <point x="451" y="321"/>
      <point x="451" y="489" type="curve" smooth="yes"/>
      <point x="451" y="567"/>
      <point x="416" y="675"/>
      <point x="257" y="675" type="curve" smooth="yes"/>
      <point x="152" y="675"/>
      <point x="31" y="609"/>
      <point x="31" y="522" type="curve" smooth="yes"/>
      <point x="31" y="510"/>
      <point x="34" y="485"/>
      <point x="64" y="485" type="curve" smooth="yes"/>
      <point x="90" y="485"/>
      <point x="133" y="511"/>
      <point x="133" y="533" type="curve" smooth="yes"/>
      <point x="133" y="539"/>
      <point x="126" y="540"/>
      <point x="126" y="559" type="curve" smooth="yes"/>
      <point x="126" y="603"/>
      <point x="160" y="618"/>
      <point x="217" y="618" type="curve" smooth="yes"/>
      <point x="324" y="618"/>
      <point x="353" y="531"/>
      <point x="353" y="479" type="curve" smooth="yes"/>
      <point x="353" y="304"/>
      <point x="241" y="200"/>
      <point x="57" y="43" type="curve" smooth="yes"/>
      <point x="49" y="37"/>
      <point x="35" y="23"/>
    </contour>
  </outline>
</glyph>
<glyph name="three" format="1">
  <advance width="557"/>
  <unicode hex="0033"/>
  <outline>
    <contour>
      <point x="58" y="41" type="curve" smooth="yes" name="hr01"/>
      <point x="58" y="-3"/>
      <point x="184" y="-17"/>
      <point x="212" y="-17" type="curve" smooth="yes"/>
      <point x="343" y="-17"/>
      <point x="488" y="65"/>
      <point x="488" y="198" type="curve" smooth="yes"/>
      <point x="488" y="291"/>
      <point x="433" y="344"/>
      <point x="337" y="359" type="curve"/>
      <point x="398" y="379"/>
      <point x="455" y="458"/>
      <point x="455" y="528" type="curve" smooth="yes" name="hr02"/>
      <point x="455" y="608"/>
      <point x="393" y="675"/>
      <point x="262" y="675" type="curve" smooth="yes"/>
      <point x="183" y="675"/>
      <point x="51" y="617"/>
      <point x="51" y="542" type="curve" smooth="yes"/>
      <point x="51" y="529"/>
      <point x="54" y="505"/>
      <point x="84" y="505" type="curve" smooth="yes"/>
      <point x="110" y="505"/>
      <point x="154" y="531"/>
      <point x="154" y="553" type="curve" smooth="yes"/>
      <point x="154" y="559"/>
      <point x="147" y="560"/>
      <point x="147" y="579" type="curve" smooth="yes"/>
      <point x="147" y="613"/>
      <point x="165" y="618"/>
      <point x="217" y="618" type="curve" smooth="yes"/>
      <point x="310" y="618"/>
      <point x="364" y="584"/>
      <point x="364" y="487" type="curve" smooth="yes"/>
      <point x="364" y="411"/>
      <point x="320" y="364"/>
      <point x="223" y="364" type="curve" smooth="yes"/>
      <point x="215" y="364"/>
      <point x="207" y="364"/>
      <point x="198" y="364" type="curve" smooth="yes"/>
      <point x="172" y="364"/>
      <point x="159" y="343"/>
      <point x="159" y="322" type="curve" smooth="yes"/>
      <point x="159" y="315"/>
      <point x="169" y="313"/>
      <point x="186" y="313" type="curve" smooth="yes"/>
      <point x="208" y="313"/>
      <point x="200" y="314"/>
      <point x="223" y="314" type="curve" smooth="yes"/>
      <point x="330" y="314"/>
      <point x="396" y="285"/>
      <point x="396" y="168" type="curve" smooth="yes" name="hr03"/>
      <point x="396" y="84"/>
      <point x="354" y="42"/>
      <point x="260" y="42" type="curve" smooth="yes"/>
      <point x="219" y="42"/>
      <point x="138" y="75"/>
      <point x="127" y="104" type="curve"/>
      <point x="123" y="107"/>
      <point x="118" y="108"/>
      <point x="112" y="108" type="curve" smooth="yes"/>
      <point x="86" y="108"/>
      <point x="58" y="64"/>
    </contour>
  </outline>
</glyph>
<glyph name="seven" format="1">
  <advance width="473"/>
  <unicode hex="0037"/>
  <outline>
    <contour>
      <point x="123" y="0" type="curve" smooth="yes" name="hr00"/>
      <point x="123" y="-11"/>
      <point x="138" y="-16"/>
      <point x="151" y="-16" type="curve" smooth="yes"/>
      <point x="185" y="-16"/>
      <point x="223" y="-12"/>
      <point x="234" y="18" type="curve" smooth="yes"/>
      <point x="310" y="225"/>
      <point x="368" y="408"/>
      <point x="449" y="627" type="curve" smooth="yes"/>
      <point x="450" y="631"/>
      <point x="451" y="635"/>
      <point x="451" y="640" type="curve" smooth="yes"/>
      <point x="451" y="650"/>
      <point x="446" y="659"/>
      <point x="435" y="662" type="curve"/>
      <point x="63" y="662" type="line"/>
      <point x="48" y="658"/>
      <point x="51" y="601"/>
      <point x="27" y="538" type="curve" smooth="yes"/>
      <point x="26" y="535"/>
      <point x="25" y="531"/>
      <point x="25" y="529" type="curve" smooth="yes"/>
      <point x="25" y="514"/>
      <point x="41" y="506"/>
      <point x="52" y="506" type="curve" smooth="yes"/>
      <point x="67" y="506"/>
      <point x="78" y="519"/>
      <point x="121" y="604" type="curve"/>
      <point x="372" y="604" type="line"/>
      <point x="281" y="382"/>
      <point x="220" y="211"/>
      <point x="125" y="8" type="curve" smooth="yes"/>
      <point x="124" y="5"/>
      <point x="123" y="3"/>
    </contour>
  </outline>
</glyph>
<glyph name="eight" format="1">
  <advance width="590"/>
  <unicode hex="0038"/>
  <outline>
    <contour>
      <point x="59" y="150" type="curve" smooth="yes" name="hr01"/>
      <point x="59" y="54"/>
      <point x="147" y="-16"/>
      <point x="270" y="-16" type="curve" smooth="yes"/>
      <point x="395" y="-16"/>
      <point x="521" y="61"/>
      <point x="521" y="172" type="curve" smooth="yes"/>
      <point x="521" y="247"/>
      <point x="470" y="292"/>
      <point x="363" y="337" type="curve"/>
      <point x="432" y="375"/>
      <point x="497" y="442"/>
      <point x="497" y="521" type="curve" smooth="yes" name="hr02"/>
      <point x="497" y="606"/>
      <point x="400" y="672"/>
      <point x="312" y="672" type="curve" smooth="yes"/>
      <point x="210" y="672"/>
      <point x="79" y="586"/>
      <point x="79" y="490" type="curve" smooth="yes"/>
      <point x="79" y="403"/>
      <point x="139" y="359"/>
      <point x="210" y="325" type="curve"/>
      <point x="132" y="283"/>
      <point x="59" y="234"/>
    </contour>
    <contour>
      <point x="324" y="355" type="curve" name="hr04"/>
      <point x="248" y="391"/>
      <point x="161" y="440"/>
      <point x="161" y="513" type="curve" smooth="yes"/>
      <point x="161" y="578"/>
      <point x="204" y="611"/>
      <point x="265" y="611" type="curve" smooth="yes"/>
      <point x="353" y="611"/>
      <point x="416" y="556"/>
      <point x="416" y="490" type="curve" smooth="yes"/>
      <point x="416" y="422"/>
      <point x="372" y="388"/>
    </contour>
    <contour>
      <point x="144" y="180" type="curve" smooth="yes" name="hr05"/>
      <point x="144" y="251"/>
      <point x="189" y="278"/>
      <point x="250" y="306" type="curve"/>
      <point x="341" y="267"/>
      <point x="435" y="233"/>
      <point x="435" y="143" type="curve" smooth="yes"/>
      <point x="435" y="62"/>
      <point x="373" y="39"/>
      <point x="310" y="39" type="curve" smooth="yes"/>
      <point x="232" y="39"/>
      <point x="144" y="88"/>
    </contour>
  </outline>
</glyph>
<glyph name="equal" format="1">
  <advance width="642"/>
  <unicode hex="003D"/>
  <outline>
    <contour>
      <point x="118" y="320" type="curve" name="hr00"/>
      <point x="481" y="320" type="line"/>
      <point x="501" y="322"/>
      <point x="542" y="347"/>
      <point x="542" y="363" type="curve" smooth="yes"/>
      <point x="542" y="368"/>
      <point x="536" y="373"/>
      <point x="521" y="374" type="curve"/>
      <point x="145" y="374" type="line"/>
      <point x="133" y="371"/>
      <point x="101" y="354"/>
      <point x="101" y="338" type="curve" smooth="yes"/>
      <point x="101" y="331"/>
      <point x="105" y="325"/>
    </contour>
    <contour>
      <point x="118" y="140" type="curve"/>
      <point x="481" y="140" type="line"/>
      <point x="501" y="142"/>
      <point x="542" y="167"/>
      <point x="542" y="183" type="curve" smooth="yes"/>
      <point x="542" y="188"/>
      <point x="536" y="193"/>
      <point x="521" y="194" type="curve"/>
      <point x="145" y="194" type="line"/>
      <point x="133" y="191"/>
      <point x="101" y="175"/>
      <point x="101" y="158" type="curve" smooth="yes"/>
      <point x="101" y="152"/>
      <point x="105" y="145"/>
    </contour>
  </outline>
</glyph>
<glyph name="question" format="1">
  <advance width="533"/>
  <unicode hex="003F"/>
  <outline>
    <contour>
      <point x="269" y="165" type="curve" smooth="yes" name="hr00"/>
      <point x="290" y="165"/>
      <point x="317" y="183"/>
      <point x="321" y="198" type="curve"/>
      <point x="319" y="217"/>
      <point x="309" y="254"/>
      <point x="309" y="282" type="curve" smooth="yes"/>
      <point x="309" y="294"/>
      <point x="311" y="304"/>
      <point x="316" y="311" type="curve"/>
      <point x="340" y="326" type="line"/>
      <point x="405" y="373"/>
      <point x="471" y="423"/>
      <point x="471" y="509" type="curve" smooth="yes"/>
      <point x="471" y="632"/>
      <point x="374" y="672"/>
      <point x="288" y="672" type="curve" smooth="yes"/>
      <point x="210" y="672"/>
      <point x="72" y="606"/>
      <point x="72" y="519" type="curve" smooth="yes"/>
      <point x="72" y="507"/>
      <point x="75" y="482"/>
      <point x="105" y="482" type="curve" smooth="yes"/>
      <point x="131" y="482"/>
      <point x="174" y="508"/>
      <point x="174" y="530" type="curve" smooth="yes"/>
      <point x="174" y="536"/>
      <point x="167" y="537"/>
      <point x="167" y="556" type="curve" smooth="yes"/>
      <point x="167" y="600"/>
      <point x="197" y="615"/>
      <point x="248" y="615" type="curve" smooth="yes"/>
      <point x="315" y="615"/>
      <point x="379" y="585"/>
      <point x="379" y="488" type="curve" smooth="yes"/>
      <point x="379" y="370"/>
      <point x="233" y="376"/>
      <point x="233" y="215" type="curve" smooth="yes"/>
      <point x="233" y="188"/>
      <point x="246" y="165"/>
    </contour>
    <contour>
      <point x="219" y="25" type="curve" smooth="yes"/>
      <point x="219" y="16"/>
      <point x="235" y="-16"/>
      <point x="296" y="-16" type="curve" smooth="yes"/>
      <point x="325" y="-16"/>
      <point x="356" y="18"/>
      <point x="356" y="42" type="curve" smooth="yes"/>
      <point x="356" y="61"/>
      <point x="340" y="89"/>
      <point x="275" y="89" type="curve" smooth="yes"/>
      <point x="247" y="89"/>
      <point x="219" y="48"/>
    </contour>
  </outline>
</glyph>
<glyph name="at" format="1">
  <advance width="1005"/>
  <unicode hex="0040"/>
  <outline>
    <contour>
      <point x="70" y="125" type="curve" smooth="yes" name="hr00"/>
      <point x="70" y="-121"/>
      <point x="260" y="-223"/>
      <point x="450" y="-223" type="curve" smooth="yes"/>
      <point x="599" y="-223"/>
      <point x="706" y="-182"/>
      <point x="771" y="-111" type="curve" smooth="yes"/>
      <point x="780" y="-101"/>
      <point x="782" y="-93"/>
      <point x="782" y="-88" type="curve" smooth="yes"/>
      <point x="782" y="-81"/>
      <point x="777" y="-76"/>
      <point x="769" y="-76" type="curve" smooth="yes"/>
      <point x="758" y="-76"/>
      <point x="738" y="-82"/>
      <point x="727" y="-93" type="curve" smooth="yes"/>
      <point x="678" y="-140"/>
      <point x="589" y="-173"/>
      <point x="461" y="-173" type="curve" smooth="yes"/>
      <point x="242" y="-173"/>
      <point x="147" y="-22"/>
      <point x="147" y="144" type="curve" smooth="yes"/>
      <point x="147" y="388"/>
      <point x="353" y="619"/>
      <point x="596" y="619" type="curve" smooth="yes"/>
      <point x="756" y="619"/>
      <point x="887" y="537"/>
      <point x="887" y="357" type="curve" smooth="yes"/>
      <point x="887" y="219"/>
      <point x="762" y="43"/>
      <point x="689" y="43" type="curve" smooth="yes"/>
      <point x="655" y="43"/>
      <point x="642" y="56"/>
      <point x="642" y="82" type="curve" smooth="yes"/>
      <point x="642" y="134"/>
      <point x="709" y="311"/>
      <point x="758" y="433" type="curve" smooth="yes"/>
      <point x="759" y="437"/>
      <point x="759" y="440"/>
      <point x="759" y="444" type="curve" smooth="yes"/>
      <point x="759" y="452"/>
      <point x="756" y="458"/>
      <point x="746" y="458" type="curve" smooth="yes"/>
      <point x="731" y="458"/>
      <point x="701" y="448"/>
      <point x="679" y="435" type="curve"/>
      <point x="656" y="451"/>
      <point x="626" y="458"/>
      <point x="596" y="458" type="curve" smooth="yes"/>
      <point x="456" y="458"/>
      <point x="279" y="319"/>
      <point x="279" y="133" type="curve" smooth="yes"/>
      <point x="279" y="38"/>
      <point x="339" y="-16"/>
      <point x="400" y="-16" type="curve" smooth="yes"/>
      <point x="460" y="-16"/>
      <point x="509" y="14"/>
      <point x="550" y="57" type="curve"/>
      <point x="554" y="7"/>
      <point x="580" y="-16"/>
      <point x="620" y="-16" type="curve" smooth="yes"/>
      <point x="657" y="-16"/>
      <point x="723" y="8"/>
      <point x="754" y="29" type="curve" smooth="yes"/>
      <point x="872" y="111"/>
      <point x="958" y="188"/>
      <point x="958" y="384" type="curve" smooth="yes"/>
      <point x="958" y="541"/>
      <point x="838" y="675"/>
      <point x="651" y="675" type="curve" smooth="yes"/>
      <point x="364" y="675"/>
      <point x="70" y="423"/>
    </contour>
    <contour>
      <point x="378" y="160" type="curve" smooth="yes"/>
      <point x="378" y="254"/>
      <point x="465" y="409"/>
      <point x="557" y="409" type="curve" smooth="yes"/>
      <point x="589" y="409"/>
      <point x="620" y="395"/>
      <point x="637" y="363" type="curve"/>
      <point x="604" y="276"/>
      <point x="566" y="185"/>
      <point x="555" y="114" type="curve"/>
      <point x="523" y="75"/>
      <point x="486" y="43"/>
      <point x="443" y="43" type="curve" smooth="yes"/>
      <point x="398" y="43"/>
      <point x="378" y="93"/>
    </contour>
  </outline>
</glyph>
<glyph name="A" format="1">
  <advance width="571"/>
  <unicode hex="0041"/>
  <outline>
    <contour>
      <point x="-15" y="0" type="curve" name="hr00"/>
      <point x="139" y="0" type="line" smooth="yes"/>
      <point x="163" y="0"/>
      <point x="173" y="6"/>
      <point x="173" y="22" type="curve" smooth="yes"/>
      <point x="173" y="54"/>
      <point x="106" y="35"/>
      <point x="105" y="72" type="curve"/>
      <point x="148" y="197" type="line"/>
      <point x="239" y="197"/>
      <point x="307" y="196"/>
      <point x="396" y="196" type="curve"/>
      <point x="410" y="150"/>
      <point x="426" y="102"/>
      <point x="444" y="50" type="curve"/>
      <point x="406" y="33" type="line" smooth="yes"/>
      <point x="398" y="30"/>
      <point x="394" y="25"/>
      <point x="394" y="20" type="curve" smooth="yes"/>
      <point x="394" y="12"/>
      <point x="397" y="0"/>
      <point x="413" y="0" type="curve" smooth="yes"/>
      <point x="565" y="0" type="line" smooth="yes"/>
      <point x="589" y="0"/>
      <point x="599" y="16"/>
      <point x="599" y="22" type="curve" smooth="yes"/>
      <point x="599" y="35"/>
      <point x="592" y="38"/>
      <point x="580" y="41" type="curve" smooth="yes"/>
      <point x="550" y="49"/>
      <point x="544" y="52"/>
      <point x="532" y="79" type="curve"/>
      <point x="446" y="308"/>
      <point x="417" y="427"/>
      <point x="322" y="663" type="curve"/>
      <point x="313" y="666"/>
      <point x="304" y="667"/>
      <point x="297" y="667" type="curve" smooth="yes"/>
      <point x="269" y="667"/>
      <point x="250" y="649"/>
      <point x="234" y="615" type="curve"/>
      <point x="30" y="50" type="line"/>
      <point x="16" y="43"/>
      <point x="-34" y="36"/>
      <point x="-34" y="20" type="curve" smooth="yes"/>
      <point x="-34" y="12"/>
      <point x="-31" y="0"/>
    </contour>
    <contour>
      <point x="167" y="254" type="curve"/>
      <point x="276" y="568" type="line"/>
      <point x="322" y="449"/>
      <point x="350" y="351"/>
      <point x="379" y="252" type="curve"/>
      <point x="305" y="252"/>
      <point x="249" y="254"/>
    </contour>
  </outline>
</glyph>
<glyph name="B" format="1">
  <advance width="607"/>
  <unicode hex="0042"/>
  <outline>
    <contour>
      <point x="48" y="24" type="curve" name="hr01" smooth="yes"/>
      <point x="48" y="16"/>
      <point x="51" y="0"/>
      <point x="67" y="0" type="curve" smooth="yes"/>
      <point x="267" y="0" type="line"/>
      <point x="282" y="0" type="line" smooth="yes"/>
      <point x="415" y="0"/>
      <point x="568" y="38"/>
      <point x="568" y="212" type="curve" smooth="yes"/>
      <point x="568" y="266"/>
      <point x="520" y="351"/>
      <point x="398" y="355" type="curve"/>
      <point x="472" y="384"/>
      <point x="518" y="447"/>
      <point x="518" y="502" type="curve" name="hr02" smooth="yes"/>
      <point x="518" y="635"/>
      <point x="406" y="665"/>
      <point x="310" y="665" type="curve" smooth="yes"/>
      <point x="236" y="665"/>
      <point x="234" y="658"/>
      <point x="156" y="658" type="curve" smooth="yes"/>
      <point x="67" y="658" type="line" smooth="yes"/>
      <point x="51" y="658"/>
      <point x="48" y="642"/>
      <point x="48" y="634" type="curve" smooth="yes"/>
      <point x="48" y="618"/>
      <point x="98" y="610"/>
      <point x="112" y="603" type="curve"/>
      <point x="112" y="55" type="line"/>
      <point x="98" y="48"/>
      <point x="48" y="39"/>
    </contour>
    <contour>
      <point x="200" y="368" type="curve"/>
      <point x="200" y="609" type="line"/>
      <point x="217" y="611"/>
      <point x="235" y="612"/>
      <point x="252" y="612" type="curve" smooth="yes"/>
      <point x="391" y="612"/>
      <point x="428" y="581"/>
      <point x="428" y="486" type="curve" name="hr04" smooth="yes"/>
      <point x="428" y="424"/>
      <point x="377" y="366"/>
      <point x="256" y="366" type="curve" smooth="yes"/>
      <point x="234" y="366"/>
      <point x="217" y="366"/>
    </contour>
    <contour>
      <point x="200" y="59" type="curve"/>
      <point x="200" y="317" type="line"/>
      <point x="214" y="318"/>
      <point x="231" y="319"/>
      <point x="248" y="319" type="curve" smooth="yes"/>
      <point x="301" y="319" type="line" smooth="yes"/>
      <point x="306" y="319"/>
      <point x="310" y="319"/>
      <point x="315" y="319" type="curve" smooth="yes"/>
      <point x="434" y="319"/>
      <point x="473" y="281"/>
      <point x="473" y="194" type="curve" smooth="yes"/>
      <point x="473" y="90"/>
      <point x="380" y="53"/>
      <point x="304" y="53" type="curve" smooth="yes"/>
      <point x="269" y="53"/>
      <point x="231" y="54"/>
    </contour>
    <contour>
      <point x="304" y="0" type="move" name="bottom"/>
    </contour>
    <contour>
      <point x="304" y="680" type="move" name="top"/>
    </contour>
  </outline>
</glyph>
<glyph name="C" format="1">
  <advance width="567"/>
  <unicode hex="0043"/>
  <outline>
    <contour>
      <point x="313" y="-16" type="curve" name="hr00" smooth="yes"/>
      <point x="414" y="-16"/>
      <point x="490" y="18"/>
      <point x="541" y="82" type="curve"/>
      <point x="547" y="88"/>
      <point x="550" y="97"/>
      <point x="550" y="103" type="curve" smooth="yes"/>
      <point x="550" y="111"/>
      <point x="538" y="114"/>
      <point x="529" y="114" type="curve" smooth="yes"/>
      <point x="520" y="114"/>
      <point x="481" y="87"/>
      <point x="467" y="76" type="curve" smooth="yes"/>
      <point x="439" y="52"/>
      <point x="385" y="43"/>
      <point x="363" y="43" type="curve" smooth="yes"/>
      <point x="231" y="43"/>
      <point x="134" y="160"/>
      <point x="134" y="341" type="curve" smooth="yes"/>
      <point x="134" y="483"/>
      <point x="178" y="616"/>
      <point x="327" y="616" type="curve" smooth="yes"/>
      <point x="384" y="616"/>
      <point x="455" y="584"/>
      <point x="465" y="553" type="curve"/>
      <point x="465" y="553"/>
      <point x="488" y="465"/>
      <point x="504" y="465" type="curve" smooth="yes"/>
      <point x="551" y="465"/>
      <point x="539" y="562"/>
      <point x="539" y="600" type="curve"/>
      <point x="535" y="631"/>
      <point x="449" y="672"/>
      <point x="373" y="672" type="curve" smooth="yes"/>
      <point x="178" y="672"/>
      <point x="41" y="534"/>
      <point x="41" y="314" type="curve" smooth="yes"/>
      <point x="41" y="97"/>
      <point x="182" y="-16"/>
    </contour>
    <contour>
      <point x="284" y="0" type="move" name="bottom"/>
    </contour>
    <contour>
      <point x="284" y="680" type="move" name="top"/>
    </contour>
  </outline>
</glyph>
<glyph name="D" format="1">
  <advance width="648"/>
  <unicode hex="0044"/>
  <outline>
    <contour>
      <point x="48" y="24" type="curve" name="hr01" smooth="yes"/>
      <point x="48" y="16"/>
      <point x="51" y="0"/>
      <point x="67" y="0" type="curve" smooth="yes"/>
      <point x="143" y="0" type="line" smooth="yes"/>
      <point x="213" y="0"/>
      <point x="236" y="-5"/>
      <point x="277" y="-5" type="curve" smooth="yes"/>
      <point x="510" y="-5"/>
      <point x="616" y="174"/>
      <point x="616" y="349" type="curve" name="hr02" smooth="yes"/>
      <point x="616" y="546"/>
      <point x="516" y="665"/>
      <point x="295" y="665" type="curve" smooth="yes"/>
      <point x="240" y="665"/>
      <point x="181" y="658"/>
      <point x="146" y="658" type="curve" smooth="yes"/>
      <point x="67" y="658" type="line" smooth="yes"/>
      <point x="51" y="658"/>
      <point x="48" y="642"/>
      <point x="48" y="634" type="curve" smooth="yes"/>
      <point x="48" y="618"/>
      <point x="98" y="610"/>
      <point x="112" y="603" type="curve"/>
      <point x="112" y="55" type="line" name="hr03"/>
      <point x="98" y="48"/>
      <point x="48" y="39"/>
    </contour>
    <contour>
      <point x="201" y="48" type="curve" name="hr04"/>
      <point x="201" y="611" type="line"/>
      <point x="278" y="611" type="line" smooth="yes"/>
      <point x="457" y="611"/>
      <point x="527" y="484"/>
      <point x="527" y="339" type="curve" smooth="yes"/>
      <point x="527" y="156"/>
      <point x="437" y="45"/>
      <point x="273" y="45" type="curve" smooth="yes"/>
      <point x="240" y="45"/>
      <point x="213" y="48"/>
    </contour>
    <contour>
      <point x="324" y="0" type="move" name="bottom"/>
    </contour>
    <contour>
      <point x="324" y="340" type="move" name="center"/>
    </contour>
    <contour>
      <point x="324" y="680" type="move" name="top"/>
    </contour>
  </outline>
</glyph>
<glyph name="G" format="1">
  <advance width="646"/>
  <unicode hex="0047"/>
  <outline>
    <contour>
      <point x="35" y="314" type="curve" smooth="yes" name="hr01"/>
      <point x="35" y="97"/>
      <point x="187" y="-16"/>
      <point x="327" y="-16" type="curve" smooth="yes"/>
      <point x="406" y="-16"/>
      <point x="536" y="7"/>
      <point x="590" y="71" type="curve"/>
      <point x="601" y="80"/>
      <point x="601" y="91"/>
      <point x="601" y="97" type="curve" smooth="yes"/>
      <point x="601" y="311" type="line"/>
      <point x="437" y="311" type="line" smooth="yes"/>
      <point x="393" y="311"/>
      <point x="365" y="300"/>
      <point x="365" y="265" type="curve" smooth="yes"/>
      <point x="365" y="258"/>
      <point x="372" y="252"/>
      <point x="409" y="252" type="curve" smooth="yes"/>
      <point x="512" y="252" type="line"/>
      <point x="512" y="103" type="line" smooth="yes"/>
      <point x="512" y="37"/>
      <point x="403" y="41"/>
      <point x="377" y="41" type="curve" smooth="yes"/>
      <point x="233" y="41"/>
      <point x="130" y="160"/>
      <point x="130" y="341" type="curve" smooth="yes"/>
      <point x="130" y="483"/>
      <point x="188" y="616"/>
      <point x="352" y="616" type="curve" smooth="yes"/>
      <point x="417" y="616"/>
      <point x="493" y="592"/>
      <point x="504" y="561" type="curve" name="hr02"/>
      <point x="504" y="561"/>
      <point x="533" y="487"/>
      <point x="545" y="487" type="curve" smooth="yes"/>
      <point x="553" y="487"/>
      <point x="580" y="492"/>
      <point x="580" y="504" type="curve" smooth="yes"/>
      <point x="580" y="596" type="line"/>
      <point x="576" y="627"/>
      <point x="486" y="672"/>
      <point x="398" y="672" type="curve" smooth="yes"/>
      <point x="191" y="672"/>
      <point x="35" y="534"/>
    </contour>
  </outline>
</glyph>
<glyph name="I" format="1">
  <advance width="314"/>
  <unicode hex="0049"/>
  <outline>
    <contour>
      <point x="48" y="24" type="curve" name="hr00" smooth="yes"/>
      <point x="48" y="16"/>
      <point x="51" y="0"/>
      <point x="67" y="0" type="curve" smooth="yes"/>
      <point x="239" y="0" type="line" smooth="yes"/>
      <point x="263" y="0"/>
      <point x="273" y="16"/>
      <point x="273" y="22" type="curve" smooth="yes"/>
      <point x="273" y="54"/>
      <point x="205" y="35"/>
      <point x="202" y="70" type="curve"/>
      <point x="202" y="588" type="line"/>
      <point x="205" y="621"/>
      <point x="273" y="604"/>
      <point x="273" y="636" type="curve" smooth="yes"/>
      <point x="273" y="642"/>
      <point x="263" y="658"/>
      <point x="239" y="658" type="curve" smooth="yes"/>
      <point x="67" y="658" type="line" smooth="yes"/>
      <point x="51" y="658"/>
      <point x="48" y="642"/>
      <point x="48" y="634" type="curve" smooth="yes"/>
      <point x="48" y="618"/>
      <point x="98" y="610"/>
      <point x="112" y="603" type="curve"/>
      <point x="112" y="55" type="line"/>
      <point x="98" y="48"/>
      <point x="48" y="39"/>
    </contour>
    <contour>
      <point x="157" y="0" type="move" name="bottom"/>
    </contour>
    <contour>
      <point x="283" y="10" type="move" name="ogonek"/>
    </contour>
    <contour>
      <point x="157" y="680" type="move" name="top"/>
    </contour>
    <contour>
      <point x="20" y="680" type="move" name="topleft"/>
    </contour>
  </outline>
</glyph>
<glyph name="J" format="1">
  <advance width="339"/>
  <unicode hex="004A"/>
  <outline>
    <contour>
      <point x="107" y="-68" type="curve" smooth="yes" name="hr00"/>
      <point x="92" y="-86"/>
      <point x="76" y="-103"/>
      <point x="76" y="-113" type="curve" smooth="yes"/>
      <point x="76" y="-120"/>
      <point x="81" y="-139"/>
      <point x="89" y="-139" type="curve" smooth="yes"/>
      <point x="97" y="-139"/>
      <point x="103" y="-139"/>
      <point x="124" y="-128" type="curve" smooth="yes"/>
      <point x="222" y="-77"/>
      <point x="235" y="-21"/>
      <point x="235" y="87" type="curve" smooth="yes"/>
      <point x="235" y="588" type="line"/>
      <point x="238" y="621"/>
      <point x="307" y="604"/>
      <point x="307" y="636" type="curve" smooth="yes"/>
      <point x="307" y="642"/>
      <point x="297" y="658"/>
      <point x="273" y="658" type="curve" smooth="yes"/>
      <point x="101" y="658" type="line" smooth="yes"/>
      <point x="85" y="658"/>
      <point x="82" y="642"/>
      <point x="82" y="634" type="curve" smooth="yes"/>
      <point x="82" y="618"/>
      <point x="132" y="610"/>
      <point x="146" y="603" type="curve"/>
      <point x="146" y="77" type="line" smooth="yes"/>
      <point x="146" y="-23"/>
      <point x="140" y="-28"/>
    </contour>
  </outline>
</glyph>
<glyph name="L" format="1">
  <advance width="524"/>
  <unicode hex="004C"/>
  <outline>
    <contour>
      <point x="48" y="24" type="curve" smooth="yes" name="hr00"/>
      <point x="48" y="16"/>
      <point x="51" y="0"/>
      <point x="67" y="0" type="curve" smooth="yes"/>
      <point x="472" y="0" type="line" smooth="yes"/>
      <point x="483" y="0"/>
      <point x="492" y="95"/>
      <point x="492" y="153" type="curve" smooth="yes"/>
      <point x="492" y="184"/>
      <point x="494" y="198"/>
      <point x="475" y="198" type="curve" smooth="yes"/>
      <point x="467" y="198"/>
      <point x="458" y="195"/>
      <point x="453" y="192" type="curve" smooth="yes"/>
      <point x="446" y="188"/>
      <point x="428" y="90"/>
      <point x="407" y="65" type="curve"/>
      <point x="383" y="48"/>
      <point x="260" y="47"/>
      <point x="200" y="47" type="curve"/>
      <point x="200" y="588" type="line"/>
      <point x="203" y="621"/>
      <point x="273" y="604"/>
      <point x="273" y="636" type="curve" smooth="yes"/>
      <point x="273" y="642"/>
      <point x="263" y="658"/>
      <point x="239" y="658" type="curve" smooth="yes"/>
      <point x="67" y="658" type="line" smooth="yes"/>
      <point x="51" y="658"/>
      <point x="48" y="642"/>
      <point x="48" y="634" type="curve" smooth="yes"/>
      <point x="48" y="618"/>
      <point x="98" y="610"/>
      <point x="112" y="603" type="curve"/>
      <point x="112" y="55" type="line"/>
      <point x="98" y="48"/>
      <point x="48" y="39"/>
    </contour>
  </outline>
</glyph>
<glyph name="M" format="1">
  <advance width="905"/>
  <unicode hex="004D"/>
  <outline>
    <contour>
      <point x="22" y="12" type="curve" smooth="yes" name="hr01"/>
      <point x="22" y="5"/>
      <point x="24" y="0"/>
      <point x="40" y="0" type="curve" smooth="yes"/>
      <point x="194" y="0" type="line" smooth="yes"/>
      <point x="216" y="0"/>
      <point x="224" y="5"/>
      <point x="224" y="11" type="curve" smooth="yes"/>
      <point x="224" y="35"/>
      <point x="194" y="41"/>
      <point x="149" y="45" type="curve"/>
      <point x="210" y="589" type="line"/>
      <point x="214" y="581"/>
      <point x="216" y="572"/>
      <point x="219" y="561" type="curve" smooth="yes"/>
      <point x="263" y="407" type="line"/>
      <point x="413" y="0" type="line"/>
      <point x="438" y="0"/>
      <point x="476" y="0"/>
      <point x="476" y="26" type="curve"/>
      <point x="648" y="585" type="line" name="hr02"/>
      <point x="723" y="43" type="line"/>
      <point x="682" y="36"/>
      <point x="660" y="30"/>
      <point x="660" y="12" type="curve" smooth="yes"/>
      <point x="660" y="5"/>
      <point x="663" y="0"/>
      <point x="681" y="0" type="curve" smooth="yes"/>
      <point x="851" y="0" type="line" smooth="yes"/>
      <point x="875" y="0"/>
      <point x="884" y="5"/>
      <point x="884" y="11" type="curve" smooth="yes"/>
      <point x="884" y="35"/>
      <point x="859" y="41"/>
      <point x="817" y="45" type="curve"/>
      <point x="718" y="606" type="line"/>
      <point x="747" y="616"/>
      <point x="796" y="623"/>
      <point x="796" y="636" type="curve" smooth="yes"/>
      <point x="796" y="649"/>
      <point x="791" y="658"/>
      <point x="777" y="658" type="curve" smooth="yes"/>
      <point x="635" y="658" type="line" smooth="yes"/>
      <point x="618" y="658"/>
      <point x="612" y="651"/>
      <point x="609" y="641" type="curve" smooth="yes"/>
      <point x="608" y="636"/>
      <point x="597" y="623"/>
      <point x="447" y="99" type="curve"/>
      <point x="419" y="226" type="line"/>
      <point x="271" y="656" type="line" name="hr03"/>
      <point x="269" y="657"/>
      <point x="260" y="658"/>
      <point x="248" y="658" type="curve" smooth="yes"/>
      <point x="236" y="658"/>
      <point x="221" y="657"/>
      <point x="211" y="657" type="curve" smooth="yes"/>
      <point x="205" y="657"/>
      <point x="201" y="657"/>
      <point x="200" y="658" type="curve"/>
      <point x="109" y="658" type="line" smooth="yes"/>
      <point x="93" y="658"/>
      <point x="86" y="649"/>
      <point x="86" y="640" type="curve" smooth="yes"/>
      <point x="86" y="630"/>
      <point x="95" y="620"/>
      <point x="109" y="620" type="curve" smooth="yes"/>
      <point x="123" y="620"/>
      <point x="154" y="606"/>
      <point x="165" y="605" type="curve"/>
      <point x="166" y="605" type="line"/>
      <point x="78" y="43" type="line"/>
      <point x="21" y="34"/>
      <point x="22" y="25"/>
    </contour>
  </outline>
</glyph>
<glyph name="O" format="1">
  <advance width="661"/>
  <unicode hex="004F"/>
  <outline>
    <contour>
      <point x="40" y="306" type="curve" name="hr00" smooth="yes"/>
      <point x="40" y="132"/>
      <point x="119" y="-16"/>
      <point x="314" y="-16" type="curve" smooth="yes"/>
      <point x="526" y="-16"/>
      <point x="631" y="163"/>
      <point x="631" y="346" type="curve" smooth="yes"/>
      <point x="631" y="520"/>
      <point x="555" y="672"/>
      <point x="361" y="672" type="curve" smooth="yes"/>
      <point x="149" y="672"/>
      <point x="40" y="490"/>
    </contour>
    <contour>
      <point x="344" y="42" type="curve" smooth="yes"/>
      <point x="195" y="42"/>
      <point x="126" y="196"/>
      <point x="126" y="345" type="curve" smooth="yes"/>
      <point x="126" y="460"/>
      <point x="172" y="613"/>
      <point x="331" y="613" type="curve" smooth="yes"/>
      <point x="483" y="613"/>
      <point x="545" y="457"/>
      <point x="545" y="307" type="curve" smooth="yes"/>
      <point x="545" y="193"/>
      <point x="505" y="42"/>
    </contour>
    <contour>
      <point x="331" y="0" type="move" name="bottom"/>
    </contour>
    <contour>
      <point x="331" y="340" type="move" name="center"/>
    </contour>
    <contour>
      <point x="595" y="10" type="move" name="ogonek"/>
    </contour>
    <contour>
      <point x="331" y="680" type="move" name="top"/>
    </contour>
    <contour>
      <point x="20" y="680" type="move" name="topleft"/>
    </contour>
    <contour>
      <point x="641" y="680" type="move" name="topright"/>
    </contour>
  </outline>
</glyph>
<glyph name="R" format="1">
  <advance width="609"/>
  <unicode hex="0052"/>
  <outline>
    <contour>
      <point x="48" y="24" type="curve" name="hr00" smooth="yes"/>
      <point x="48" y="16"/>
      <point x="51" y="0"/>
      <point x="67" y="0" type="curve" smooth="yes"/>
      <point x="251" y="0" type="line" smooth="yes"/>
      <point x="275" y="0"/>
      <point x="285" y="16"/>
      <point x="285" y="22" type="curve" smooth="yes"/>
      <point x="285" y="57"/>
      <point x="202" y="33"/>
      <point x="202" y="74" type="curve" smooth="yes"/>
      <point x="202" y="281" type="line"/>
      <point x="316" y="281" type="line" smooth="yes"/>
      <point x="353" y="281"/>
      <point x="390" y="238"/>
      <point x="428" y="109" type="curve"/>
      <point x="460" y="16"/>
      <point x="469" y="0"/>
      <point x="494" y="0" type="curve" smooth="yes"/>
      <point x="576" y="0" type="line" smooth="yes"/>
      <point x="613" y="0"/>
      <point x="616" y="15"/>
      <point x="616" y="21" type="curve" smooth="yes"/>
      <point x="616" y="54"/>
      <point x="567" y="19"/>
      <point x="535" y="94" type="curve"/>
      <point x="498" y="191"/>
      <point x="468" y="289"/>
      <point x="392" y="300" type="curve"/>
      <point x="481" y="330"/>
      <point x="521" y="414"/>
      <point x="521" y="493" type="curve" smooth="yes"/>
      <point x="521" y="607"/>
      <point x="434" y="667"/>
      <point x="328" y="667" type="curve" smooth="yes"/>
      <point x="255" y="667"/>
      <point x="218" y="658"/>
      <point x="160" y="658" type="curve" smooth="yes"/>
      <point x="67" y="658" type="line" smooth="yes"/>
      <point x="51" y="658"/>
      <point x="48" y="642"/>
      <point x="48" y="634" type="curve" smooth="yes"/>
      <point x="48" y="618"/>
      <point x="98" y="610"/>
      <point x="112" y="603" type="curve"/>
      <point x="112" y="55" type="line"/>
      <point x="98" y="48"/>
      <point x="48" y="39"/>
    </contour>
    <contour>
      <point x="202" y="331" type="curve"/>
      <point x="202" y="610" type="line"/>
      <point x="218" y="611"/>
      <point x="248" y="613"/>
      <point x="269" y="613" type="curve" smooth="yes"/>
      <point x="371" y="613"/>
      <point x="430" y="584"/>
      <point x="430" y="471" type="curve" smooth="yes"/>
      <point x="430" y="376"/>
      <point x="384" y="330"/>
      <point x="279" y="330" type="curve" smooth="yes"/>
      <point x="250" y="330"/>
      <point x="224" y="330"/>
    </contour>
    <contour>
      <point x="305" y="0" type="move" name="bottom"/>
    </contour>
    <contour>
      <point x="305" y="680" type="move" name="top"/>
    </contour>
  </outline>
</glyph>
<glyph name="U" format="1">
  <advance width="628"/>
  <unicode hex="0055"/>
  <outline>
    <contour>
      <point x="76" y="254" type="line" smooth="yes" name="hr01"/>
      <point x="76" y="73"/>
      <point x="153" y="-16"/>
      <point x="308" y="-16" type="curve" smooth="yes"/>
      <point x="506" y="-16"/>
      <point x="555" y="134"/>
      <point x="555" y="287" type="curve" smooth="yes"/>
      <point x="555" y="584" type="line" smooth="yes" name="hr02"/>
      <point x="555" y="625"/>
      <point x="616" y="604"/>
      <point x="616" y="636" type="curve" smooth="yes"/>
      <point x="616" y="642"/>
      <point x="606" y="658"/>
      <point x="582" y="658" type="curve" smooth="yes"/>
      <point x="440" y="658" type="line" smooth="yes"/>
      <point x="423" y="658"/>
      <point x="421" y="642"/>
      <point x="421" y="634" type="curve" smooth="yes"/>
      <point x="421" y="618"/>
      <point x="471" y="610"/>
      <point x="485" y="603" type="curve"/>
      <point x="485" y="315" type="line" smooth="yes"/>
      <point x="485" y="68"/>
      <point x="435" y="42"/>
      <point x="335" y="42" type="curve" smooth="yes"/>
      <point x="199" y="42"/>
      <point x="169" y="113"/>
      <point x="169" y="305" type="curve" smooth="yes"/>
      <point x="169" y="584" type="line" smooth="yes" name="hr03"/>
      <point x="169" y="625"/>
      <point x="246" y="601"/>
      <point x="246" y="636" type="curve" smooth="yes"/>
      <point x="246" y="642"/>
      <point x="236" y="658"/>
      <point x="212" y="658" type="curve" smooth="yes"/>
      <point x="51" y="658" type="line" smooth="yes"/>
      <point x="35" y="658"/>
      <point x="32" y="642"/>
      <point x="32" y="634" type="curve" smooth="yes"/>
      <point x="32" y="622"/>
      <point x="67" y="611"/>
      <point x="76" y="603" type="curve"/>
    </contour>
  </outline>
</glyph>
<glyph name="Y" format="1">
  <advance width="546"/>
  <unicode hex="0059"/>
  <outline>
    <contour>
      <point x="140" y="29" type="curve" name="hr00" smooth="yes"/>
      <point x="140" y="21"/>
      <point x="143" y="0"/>
      <point x="159" y="0" type="curve" smooth="yes"/>
      <point x="387" y="0" type="line" smooth="yes"/>
      <point x="411" y="0"/>
      <point x="421" y="21"/>
      <point x="421" y="27" type="curve" smooth="yes"/>
      <point x="421" y="63"/>
      <point x="327" y="40"/>
      <point x="324" y="77" type="curve"/>
      <point x="324" y="272" type="line"/>
      <point x="498" y="583" type="line"/>
      <point x="516" y="610"/>
      <point x="522" y="609"/>
      <point x="552" y="617" type="curve" smooth="yes"/>
      <point x="564" y="620"/>
      <point x="571" y="623"/>
      <point x="571" y="636" type="curve" smooth="yes"/>
      <point x="571" y="642"/>
      <point x="565" y="658"/>
      <point x="541" y="658" type="curve" smooth="yes"/>
      <point x="385" y="658" type="line" smooth="yes"/>
      <point x="369" y="658"/>
      <point x="366" y="642"/>
      <point x="366" y="634" type="curve" smooth="yes"/>
      <point x="366" y="615"/>
      <point x="426" y="611"/>
      <point x="443" y="603" type="curve"/>
      <point x="290" y="321" type="line"/>
      <point x="134" y="605" type="line"/>
      <point x="149" y="613"/>
      <point x="202" y="611"/>
      <point x="202" y="636" type="curve" smooth="yes"/>
      <point x="202" y="642"/>
      <point x="192" y="658"/>
      <point x="168" y="658" type="curve" smooth="yes"/>
      <point x="2" y="658" type="line" smooth="yes"/>
      <point x="-14" y="658"/>
      <point x="-17" y="642"/>
      <point x="-17" y="634" type="curve" smooth="yes"/>
      <point x="-17" y="621"/>
      <point x="28" y="609"/>
      <point x="39" y="603" type="curve"/>
      <point x="234" y="274" type="line"/>
      <point x="234" y="60" type="line"/>
      <point x="213" y="50"/>
      <point x="140" y="51"/>
    </contour>
    <contour>
      <point x="273" y="0" type="move" name="bottom"/>
    </contour>
    <contour>
      <point x="273" y="680" type="move" name="top"/>
    </contour>
    <contour>
      <point x="20" y="680" type="move" name="topleft"/>
    </contour>
  </outline>
</glyph>
<glyph name="bracketleft" format="1">
  <advance width="416"/>
  <unicode hex="005B"/>
  <outline>
    <contour>
      <point x="94" y="-161" type="line" name="hr00"/>
      <point x="272" y="-161" type="line" smooth="yes"/>
      <point x="290" y="-161"/>
      <point x="292" y="-156"/>
      <point x="292" y="-148" type="curve" smooth="yes"/>
      <point x="292" y="-135"/>
      <point x="279" y="-126"/>
      <point x="184" y="-117" type="curve"/>
      <point x="184" y="615" type="line"/>
      <point x="265" y="615"/>
      <point x="280" y="620"/>
      <point x="280" y="645" type="curve" smooth="yes"/>
      <point x="280" y="653"/>
      <point x="276" y="658"/>
      <point x="217" y="658" type="curve" smooth="yes"/>
      <point x="94" y="658" type="line"/>
    </contour>
  </outline>
</glyph>
<glyph name="bracketright" format="1">
  <advance width="416"/>
  <unicode hex="005D"/>
  <outline>
    <contour>
      <point x="124" y="-148" type="curve" smooth="yes" name="hr00"/>
      <point x="124" y="-156"/>
      <point x="126" y="-161"/>
      <point x="142" y="-161" type="curve" smooth="yes"/>
      <point x="322" y="-161" type="line"/>
      <point x="322" y="658" type="line"/>
      <point x="199" y="658" type="line" smooth="yes"/>
      <point x="130" y="658"/>
      <point x="134" y="652"/>
      <point x="134" y="641" type="curve" smooth="yes"/>
      <point x="134" y="620"/>
      <point x="158" y="615"/>
      <point x="232" y="615" type="curve"/>
      <point x="232" y="-117" type="line"/>
      <point x="135" y="-126"/>
      <point x="124" y="-135"/>
    </contour>
  </outline>
</glyph>
<glyph name="asciicircum" format="1">
  <advance width="569"/>
  <unicode hex="005E"/>
  <outline>
    <contour>
      <point x="108" y="265" type="curve" smooth="yes" name="hr00"/>
      <point x="113" y="265"/>
      <point x="118" y="266"/>
      <point x="122" y="269" type="curve"/>
      <point x="151" y="302"/>
      <point x="242" y="478"/>
      <point x="285" y="577" type="curve"/>
      <point x="335" y="451"/>
      <point x="442" y="265"/>
      <point x="460" y="265" type="curve" smooth="yes"/>
      <point x="482" y="265"/>
      <point x="494" y="287"/>
      <point x="494" y="293" type="curve"/>
      <point x="342" y="635" type="line" smooth="yes"/>
      <point x="340" y="641"/>
      <point x="318" y="644"/>
      <point x="286" y="644" type="curve" smooth="yes"/>
      <point x="253" y="644"/>
      <point x="229" y="641"/>
      <point x="224" y="635" type="curve"/>
      <point x="76" y="293" type="line"/>
      <point x="76" y="287"/>
      <point x="88" y="265"/>
    </contour>
  </outline>
</glyph>
<glyph name="gravecomb" format="1">
  <advance width="239"/>
  <unicode hex="0060"/>
  <outline>
    <component base="grave"/>
    <contour>
      <point x="110" y="484" type="move" name="_top"/>
    </contour>
    <contour>
      <point x="110" y="773" type="move" name="top"/>
    </contour>
  </outline>
</glyph>
<glyph name="b" format="1">
  <advance width="500"/>
  <unicode hex="0062"/>
  <outline>
    <contour>
      <point x="59" y="42" type="line" name="hr00"/>
      <point x="85" y="14"/>
      <point x="144" y="-16"/>
      <point x="215" y="-16" type="curve" smooth="yes"/>
      <point x="388" y="-16"/>
      <point x="471" y="132"/>
      <point x="471" y="266" type="curve" smooth="yes"/>
      <point x="471" y="400"/>
      <point x="380" y="477"/>
      <point x="280" y="477" type="curve" smooth="yes"/>
      <point x="222" y="477"/>
      <point x="175" y="453"/>
      <point x="136" y="417" type="curve"/>
      <point x="144" y="561" type="line"/>
      <point x="144" y="714" type="line"/>
      <point x="141" y="723"/>
      <point x="132" y="723"/>
      <point x="121" y="723" type="curve" smooth="yes"/>
      <point x="81" y="723"/>
      <point x="13" y="715"/>
      <point x="13" y="680" type="curve" smooth="yes"/>
      <point x="13" y="672"/>
      <point x="31" y="663"/>
      <point x="60" y="659" type="curve"/>
    </contour>
    <contour>
      <point x="144" y="82" type="curve"/>
      <point x="144" y="379" type="line"/>
      <point x="171" y="409"/>
      <point x="202" y="421"/>
      <point x="234" y="421" type="curve" smooth="yes"/>
      <point x="326" y="421"/>
      <point x="374" y="341"/>
      <point x="374" y="222" type="curve" smooth="yes"/>
      <point x="374" y="124"/>
      <point x="341" y="41"/>
      <point x="251" y="41" type="curve" smooth="yes"/>
      <point x="226" y="41"/>
      <point x="170" y="49"/>
    </contour>
  </outline>
</glyph>
<glyph name="d" format="1">
  <advance width="522"/>
  <unicode hex="0064"/>
  <outline>
    <contour>
      <point x="29" y="195" type="curve" smooth="yes" name="hr01"/>
      <point x="29" y="62"/>
      <point x="121" y="-16"/>
      <point x="220" y="-16" type="curve" smooth="yes"/>
      <point x="282" y="-16"/>
      <point x="324" y="7"/>
      <point x="361" y="45" type="curve"/>
      <point x="361" y="19" type="line" smooth="yes" name="hr02"/>
      <point x="361" y="-6"/>
      <point x="375" y="-16"/>
      <point x="401" y="-16" type="curve" smooth="yes"/>
      <point x="461" y="-16"/>
      <point x="499" y="25"/>
      <point x="499" y="35" type="curve" smooth="yes"/>
      <point x="499" y="44"/>
      <point x="496" y="50"/>
      <point x="484" y="50" type="curve" smooth="yes"/>
      <point x="468" y="50"/>
      <point x="453" y="43"/>
      <point x="440" y="43" type="curve"/>
      <point x="440" y="714" type="line"/>
      <point x="437" y="723"/>
      <point x="426" y="723"/>
      <point x="417" y="723" type="curve" smooth="yes"/>
      <point x="350" y="723"/>
      <point x="276" y="707"/>
      <point x="276" y="673" type="curve" smooth="yes"/>
      <point x="276" y="665"/>
      <point x="327" y="656"/>
      <point x="356" y="652" type="curve"/>
      <point x="356" y="558" type="line"/>
      <point x="361" y="466" type="line"/>
      <point x="338" y="473"/>
      <point x="311" y="477"/>
      <point x="283" y="477" type="curve" smooth="yes"/>
      <point x="110" y="477"/>
      <point x="29" y="326"/>
    </contour>
    <contour>
      <point x="264" y="39" type="curve" smooth="yes"/>
      <point x="172" y="39"/>
      <point x="126" y="120"/>
      <point x="126" y="237" type="curve" smooth="yes"/>
      <point x="126" y="353"/>
      <point x="159" y="419"/>
      <point x="248" y="419" type="curve" smooth="yes"/>
      <point x="275" y="419"/>
      <point x="332" y="415"/>
      <point x="356" y="381" type="curve"/>
      <point x="357" y="77" type="line"/>
      <point x="329" y="52"/>
      <point x="293" y="39"/>
    </contour>
  </outline>
</glyph>
<glyph name="g" format="1">
  <advance width="484"/>
  <unicode hex="0067"/>
  <outline>
    <contour>
      <point x="76" y="68" type="curve" name="hr01"/>
      <point x="77" y="38"/>
      <point x="88" y="10"/>
      <point x="118" y="2" type="curve"/>
      <point x="71" y="-21"/>
      <point x="18" y="-64"/>
      <point x="18" y="-134" type="curve" name="hr02" smooth="yes"/>
      <point x="18" y="-219"/>
      <point x="71" y="-277"/>
      <point x="177" y="-277" type="curve" smooth="yes"/>
      <point x="282" y="-277"/>
      <point x="439" y="-215"/>
      <point x="439" y="-62" type="curve" smooth="yes"/>
      <point x="439" y="5"/>
      <point x="377" y="53"/>
      <point x="221" y="58" type="curve"/>
      <point x="185" y="58"/>
      <point x="164" y="64"/>
      <point x="164" y="89" type="curve" name="hr03" smooth="yes"/>
      <point x="164" y="118"/>
      <point x="176" y="142"/>
      <point x="189" y="160" type="curve"/>
      <point x="213" y="160" type="line" smooth="yes"/>
      <point x="318" y="160"/>
      <point x="409" y="215"/>
      <point x="409" y="345" type="curve" smooth="yes"/>
      <point x="409" y="388"/>
      <point x="387" y="423"/>
      <point x="354" y="446" type="curve"/>
      <point x="385" y="456"/>
      <point x="468" y="471"/>
      <point x="468" y="523" type="curve" smooth="yes"/>
      <point x="468" y="542"/>
      <point x="448" y="555"/>
      <point x="432" y="555" type="curve" smooth="yes"/>
      <point x="419" y="555"/>
      <point x="366" y="498"/>
      <point x="323" y="463" type="curve"/>
      <point x="300" y="472"/>
      <point x="274" y="477"/>
      <point x="247" y="477" type="curve" smooth="yes"/>
      <point x="117" y="477"/>
      <point x="29" y="413"/>
      <point x="29" y="299" type="curve" name="hr04" smooth="yes"/>
      <point x="29" y="224"/>
      <point x="72" y="181"/>
      <point x="144" y="166" type="curve"/>
      <point x="109" y="139"/>
      <point x="76" y="105"/>
    </contour>
    <contour>
      <point x="226" y="210" type="curve" name="hr06" smooth="yes"/>
      <point x="143" y="210"/>
      <point x="110" y="256"/>
      <point x="110" y="339" type="curve" smooth="yes"/>
      <point x="110" y="407"/>
      <point x="137" y="428"/>
      <point x="211" y="428" type="curve" smooth="yes"/>
      <point x="277" y="428"/>
      <point x="331" y="386"/>
      <point x="331" y="306" type="curve" smooth="yes"/>
      <point x="331" y="234"/>
      <point x="290" y="210"/>
    </contour>
    <contour>
      <point x="101" y="-107" type="curve" name="hr07" smooth="yes"/>
      <point x="101" y="-63"/>
      <point x="122" y="-26"/>
      <point x="163" y="0" type="curve"/>
      <point x="293" y="-4"/>
      <point x="359" y="-40"/>
      <point x="359" y="-89" type="curve" smooth="yes"/>
      <point x="359" y="-177"/>
      <point x="345" y="-218"/>
      <point x="238" y="-218" type="curve" smooth="yes"/>
      <point x="138" y="-218"/>
      <point x="101" y="-173"/>
    </contour>
    <contour>
      <point x="242" y="-557" type="move" name="bottom"/>
    </contour>
    <contour>
      <point x="242" y="484" type="move" name="top"/>
    </contour>
  </outline>
</glyph>
<glyph name="h" format="1">
  <advance width="527"/>
  <unicode hex="0068"/>
  <outline>
    <contour>
      <point x="20" y="20" type="curve" smooth="yes" name="hr00"/>
      <point x="20" y="12"/>
      <point x="23" y="0"/>
      <point x="39" y="0" type="curve" smooth="yes"/>
      <point x="205" y="0" type="line" smooth="yes"/>
      <point x="229" y="0"/>
      <point x="239" y="6"/>
      <point x="239" y="22" type="curve" smooth="yes"/>
      <point x="239" y="57"/>
      <point x="161" y="33"/>
      <point x="161" y="74" type="curve" smooth="yes"/>
      <point x="161" y="376" type="line"/>
      <point x="191" y="403"/>
      <point x="237" y="417"/>
      <point x="277" y="417" type="curve" smooth="yes"/>
      <point x="330" y="417"/>
      <point x="365" y="382"/>
      <point x="365" y="289" type="curve" smooth="yes"/>
      <point x="365" y="50" type="line"/>
      <point x="354" y="44"/>
      <point x="313" y="33"/>
      <point x="313" y="20" type="curve" smooth="yes"/>
      <point x="313" y="12"/>
      <point x="316" y="0"/>
      <point x="332" y="0" type="curve" smooth="yes"/>
      <point x="494" y="0" type="line" smooth="yes"/>
      <point x="518" y="0"/>
      <point x="528" y="16"/>
      <point x="528" y="22" type="curve" smooth="yes"/>
      <point x="528" y="56"/>
      <point x="451" y="33"/>
      <point x="451" y="74" type="curve" smooth="yes"/>
      <point x="451" y="329" type="line" smooth="yes"/>
      <point x="451" y="362"/>
      <point x="450" y="399"/>
      <point x="424" y="432" type="curve"/>
      <point x="426" y="432" type="line"/>
      <point x="405" y="469"/>
      <point x="362" y="477"/>
      <point x="317" y="477" type="curve" smooth="yes"/>
      <point x="258" y="477"/>
      <point x="206" y="451"/>
      <point x="161" y="418" type="curve"/>
      <point x="161" y="714" type="line"/>
      <point x="158" y="723"/>
      <point x="149" y="723"/>
      <point x="138" y="723" type="curve" smooth="yes"/>
      <point x="97" y="723"/>
      <point x="26" y="716"/>
      <point x="26" y="680" type="curve" smooth="yes"/>
      <point x="26" y="672"/>
      <point x="44" y="663"/>
      <point x="73" y="659" type="curve"/>
      <point x="73" y="51" type="line"/>
      <point x="62" y="46"/>
      <point x="20" y="32"/>
    </contour>
  </outline>
</glyph>
<glyph name="l" format="1">
  <advance width="255"/>
  <unicode hex="006C"/>
  <outline>
    <contour>
      <point x="31" y="20" type="curve" name="hr00" smooth="yes"/>
      <point x="31" y="12"/>
      <point x="34" y="0"/>
      <point x="50" y="0" type="curve" smooth="yes"/>
      <point x="205" y="0" type="line" smooth="yes"/>
      <point x="229" y="0"/>
      <point x="239" y="6"/>
      <point x="239" y="22" type="curve" smooth="yes"/>
      <point x="239" y="56"/>
      <point x="168" y="33"/>
      <point x="168" y="74" type="curve" smooth="yes"/>
      <point x="168" y="714" type="line"/>
      <point x="165" y="720"/>
      <point x="156" y="723"/>
      <point x="145" y="723" type="curve" smooth="yes"/>
      <point x="103" y="723"/>
      <point x="31" y="716"/>
      <point x="31" y="680" type="curve" smooth="yes"/>
      <point x="31" y="672"/>
      <point x="55" y="663"/>
      <point x="84" y="659" type="curve"/>
      <point x="84" y="51" type="line"/>
      <point x="73" y="46"/>
      <point x="31" y="32"/>
    </contour>
    <contour>
      <point x="128" y="0" type="move" name="bottom"/>
    </contour>
    <contour>
      <point x="128" y="598" type="move" name="center"/>
    </contour>
    <contour>
      <point x="128" y="1196" type="move" name="top"/>
    </contour>
    <contour>
      <point x="235" y="1196" type="move" name="topright"/>
    </contour>
  </outline>
</glyph>
<glyph name="m" format="1">
  <advance width="835"/>
  <unicode hex="006D"/>
  <outline>
    <contour>
      <point x="43" y="20" type="curve" smooth="yes" name="hr00"/>
      <point x="43" y="12"/>
      <point x="46" y="0"/>
      <point x="62" y="0" type="curve" smooth="yes"/>
      <point x="216" y="0" type="line" smooth="yes"/>
      <point x="240" y="0"/>
      <point x="250" y="6"/>
      <point x="250" y="22" type="curve" smooth="yes"/>
      <point x="250" y="55"/>
      <point x="182" y="33"/>
      <point x="182" y="74" type="curve" smooth="yes"/>
      <point x="183" y="370" type="line"/>
      <point x="213" y="401"/>
      <point x="260" y="417"/>
      <point x="300" y="417" type="curve" smooth="yes"/>
      <point x="352" y="417"/>
      <point x="391" y="382"/>
      <point x="391" y="289" type="curve" smooth="yes"/>
      <point x="391" y="51" type="line"/>
      <point x="381" y="46"/>
      <point x="340" y="32"/>
      <point x="340" y="20" type="curve" smooth="yes"/>
      <point x="340" y="12"/>
      <point x="343" y="0"/>
      <point x="359" y="0" type="curve" smooth="yes"/>
      <point x="510" y="0" type="line" smooth="yes"/>
      <point x="534" y="0"/>
      <point x="544" y="16"/>
      <point x="544" y="22" type="curve" smooth="yes"/>
      <point x="544" y="55"/>
      <point x="477" y="33"/>
      <point x="477" y="74" type="curve" smooth="yes"/>
      <point x="477" y="329" type="line" smooth="yes"/>
      <point x="477" y="342"/>
      <point x="476" y="355"/>
      <point x="474" y="369" type="curve"/>
      <point x="484" y="378" type="line"/>
      <point x="506" y="406"/>
      <point x="552" y="417"/>
      <point x="586" y="417" type="curve" smooth="yes"/>
      <point x="638" y="417"/>
      <point x="672" y="382"/>
      <point x="673" y="289" type="curve" smooth="yes"/>
      <point x="674" y="51" type="line"/>
      <point x="664" y="46"/>
      <point x="623" y="32"/>
      <point x="623" y="20" type="curve" smooth="yes"/>
      <point x="623" y="12"/>
      <point x="626" y="0"/>
      <point x="642" y="0" type="curve" smooth="yes"/>
      <point x="792" y="0" type="line" smooth="yes"/>
      <point x="816" y="0"/>
      <point x="826" y="16"/>
      <point x="826" y="22" type="curve" smooth="yes"/>
      <point x="826" y="54"/>
      <point x="760" y="35"/>
      <point x="759" y="70" type="curve"/>
      <point x="759" y="329" type="line" smooth="yes"/>
      <point x="759" y="362"/>
      <point x="757" y="398"/>
      <point x="733" y="432" type="curve" smooth="yes"/>
      <point x="709" y="467"/>
      <point x="667" y="477"/>
      <point x="625" y="477" type="curve" smooth="yes"/>
      <point x="565" y="477"/>
      <point x="510" y="445"/>
      <point x="463" y="406" type="curve"/>
      <point x="438" y="462"/>
      <point x="394" y="477"/>
      <point x="340" y="477" type="curve" smooth="yes"/>
      <point x="275" y="477"/>
      <point x="220" y="445"/>
      <point x="172" y="406" type="curve"/>
      <point x="172" y="457" type="line"/>
      <point x="170" y="465"/>
      <point x="161" y="467"/>
      <point x="148" y="467" type="curve" smooth="yes"/>
      <point x="107" y="467"/>
      <point x="34" y="436"/>
      <point x="34" y="409" type="curve" smooth="yes"/>
      <point x="34" y="399"/>
      <point x="69" y="385"/>
      <point x="96" y="380" type="curve"/>
      <point x="96" y="51" type="line"/>
      <point x="85" y="46"/>
      <point x="43" y="32"/>
    </contour>
  </outline>
</glyph>
<glyph name="n" format="1">
  <advance width="554"/>
  <unicode hex="006E"/>
  <outline>
    <contour>
      <point x="43" y="20" type="curve" name="hr00" smooth="yes"/>
      <point x="43" y="12"/>
      <point x="46" y="0"/>
      <point x="62" y="0" type="curve" smooth="yes"/>
      <point x="216" y="0" type="line" smooth="yes"/>
      <point x="240" y="0"/>
      <point x="250" y="6"/>
      <point x="250" y="22" type="curve" smooth="yes"/>
      <point x="250" y="55"/>
      <point x="182" y="33"/>
      <point x="182" y="74" type="curve" smooth="yes"/>
      <point x="182" y="375" type="line"/>
      <point x="212" y="403"/>
      <point x="260" y="419"/>
      <point x="300" y="419" type="curve" smooth="yes"/>
      <point x="352" y="419"/>
      <point x="390" y="384"/>
      <point x="390" y="291" type="curve" smooth="yes"/>
      <point x="390" y="51" type="line"/>
      <point x="380" y="46"/>
      <point x="339" y="32"/>
      <point x="339" y="20" type="curve" smooth="yes"/>
      <point x="339" y="12"/>
      <point x="342" y="0"/>
      <point x="358" y="0" type="curve" smooth="yes"/>
      <point x="503" y="0" type="line" smooth="yes"/>
      <point x="527" y="0"/>
      <point x="537" y="16"/>
      <point x="537" y="22" type="curve" smooth="yes"/>
      <point x="537" y="52"/>
      <point x="479" y="35"/>
      <point x="478" y="68" type="curve"/>
      <point x="478" y="329" type="line" smooth="yes"/>
      <point x="478" y="363"/>
      <point x="473" y="397"/>
      <point x="447" y="432" type="curve" smooth="yes"/>
      <point x="421" y="466"/>
      <point x="385" y="477"/>
      <point x="339" y="477" type="curve" smooth="yes"/>
      <point x="271" y="477"/>
      <point x="219" y="447"/>
      <point x="172" y="406" type="curve"/>
      <point x="172" y="457" type="line"/>
      <point x="170" y="465"/>
      <point x="161" y="467"/>
      <point x="148" y="467" type="curve" smooth="yes"/>
      <point x="107" y="467"/>
      <point x="34" y="436"/>
      <point x="34" y="409" type="curve" smooth="yes"/>
      <point x="34" y="399"/>
      <point x="69" y="385"/>
      <point x="96" y="380" type="curve"/>
      <point x="96" y="51" type="line"/>
      <point x="85" y="46"/>
      <point x="43" y="32"/>
    </contour>
    <contour>
      <point x="277" y="0" type="move" name="bottom"/>
    </contour>
    <contour>
      <point x="277" y="484" type="move" name="top"/>
    </contour>
  </outline>
</glyph>
<glyph name="o" format="1">
  <advance width="528"/>
  <unicode hex="006F"/>
  <outline>
    <contour>
      <point x="44" y="210" type="curve" name="hr00" smooth="yes"/>
      <point x="44" y="59"/>
      <point x="131" y="-16"/>
      <point x="241" y="-16" type="curve" smooth="yes"/>
      <point x="300" y="-16"/>
      <point x="364" y="5"/>
      <point x="407" y="43" type="curve" smooth="yes"/>
      <point x="465" y="94"/>
      <point x="484" y="179"/>
      <point x="484" y="244" type="curve" smooth="yes"/>
      <point x="484" y="353"/>
      <point x="428" y="477"/>
      <point x="283" y="477" type="curve" smooth="yes"/>
      <point x="125" y="477"/>
      <point x="44" y="345"/>
    </contour>
    <contour>
      <point x="135" y="244" type="curve" smooth="yes"/>
      <point x="135" y="335"/>
      <point x="164" y="429"/>
      <point x="244" y="429" type="curve" smooth="yes"/>
      <point x="358" y="429"/>
      <point x="394" y="309"/>
      <point x="394" y="210" type="curve" smooth="yes"/>
      <point x="394" y="120"/>
      <point x="366" y="32"/>
      <point x="286" y="32" type="curve" smooth="yes"/>
      <point x="170" y="32"/>
      <point x="135" y="149"/>
    </contour>
    <contour>
      <point x="264" y="0" type="move" name="bottom"/>
    </contour>
    <contour>
      <point x="264" y="242" type="move" name="center"/>
    </contour>
    <contour>
      <point x="475" y="10" type="move" name="ogonek"/>
    </contour>
    <contour>
      <point x="264" y="484" type="move" name="top"/>
    </contour>
    <contour>
      <point x="508" y="484" type="move" name="topright"/>
    </contour>
  </outline>
</glyph>
<glyph name="q" format="1">
  <advance width="503"/>
  <unicode hex="0071"/>
  <outline>
    <contour>
      <point x="29" y="195" type="curve" name="hr00" smooth="yes"/>
      <point x="29" y="62"/>
      <point x="117" y="-16"/>
      <point x="220" y="-16" type="curve" smooth="yes"/>
      <point x="274" y="-16"/>
      <point x="319" y="1"/>
      <point x="357" y="30" type="curve"/>
      <point x="357" y="-166" type="line"/>
      <point x="344" y="-171"/>
      <point x="281" y="-182"/>
      <point x="281" y="-197" type="curve" smooth="yes"/>
      <point x="281" y="-205"/>
      <point x="284" y="-217"/>
      <point x="300" y="-217" type="curve" smooth="yes"/>
      <point x="462" y="-217" type="line" smooth="yes"/>
      <point x="486" y="-217"/>
      <point x="496" y="-211"/>
      <point x="496" y="-195" type="curve" smooth="yes"/>
      <point x="496" y="-164"/>
      <point x="440" y="-185"/>
      <point x="440" y="-143" type="curve" smooth="yes"/>
      <point x="440" y="453" type="line"/>
      <point x="437" y="464"/>
      <point x="428" y="467"/>
      <point x="419" y="467" type="curve" smooth="yes"/>
      <point x="404" y="467"/>
      <point x="388" y="464"/>
      <point x="373" y="460" type="curve"/>
      <point x="348" y="470"/>
      <point x="318" y="477"/>
      <point x="285" y="477" type="curve" smooth="yes"/>
      <point x="111" y="477"/>
      <point x="29" y="327"/>
    </contour>
    <contour>
      <point x="120" y="237" type="curve" smooth="yes"/>
      <point x="120" y="337"/>
      <point x="159" y="419"/>
      <point x="248" y="419" type="curve" smooth="yes"/>
      <point x="275" y="419"/>
      <point x="332" y="411"/>
      <point x="357" y="378" type="curve"/>
      <point x="357" y="88" type="line"/>
      <point x="330" y="55"/>
      <point x="298" y="39"/>
      <point x="266" y="39" type="curve" smooth="yes"/>
      <point x="174" y="39"/>
      <point x="120" y="120"/>
    </contour>
    <contour>
      <point x="252" y="0" type="move" name="bottom"/>
    </contour>
    <contour>
      <point x="252" y="484" type="move" name="top"/>
    </contour>
  </outline>
</glyph>
<glyph name="s" format="1">
  <advance width="409"/>
  <unicode hex="0073"/>
  <outline>
    <contour>
      <point x="48" y="44" type="curve" name="hr01"/>
      <point x="71" y="8"/>
      <point x="140" y="-16"/>
      <point x="190" y="-16" type="curve" smooth="yes"/>
      <point x="279" y="-16"/>
      <point x="376" y="32"/>
      <point x="376" y="123" type="curve" smooth="yes"/>
      <point x="376" y="278"/>
      <point x="130" y="261"/>
      <point x="130" y="366" type="curve" smooth="yes"/>
      <point x="130" y="407"/>
      <point x="158" y="422"/>
      <point x="187" y="422" type="curve" smooth="yes"/>
      <point x="262" y="422"/>
      <point x="283" y="408"/>
      <point x="295" y="378" type="curve" name="hr02"/>
      <point x="295" y="378"/>
      <point x="309" y="328"/>
      <point x="325" y="328" type="curve" smooth="yes"/>
      <point x="351" y="328"/>
      <point x="349" y="390"/>
      <point x="349" y="418" type="curve" smooth="yes"/>
      <point x="349" y="444"/>
      <point x="313" y="477"/>
      <point x="233" y="477" type="curve" smooth="yes"/>
      <point x="150" y="477"/>
      <point x="55" y="422"/>
      <point x="55" y="332" type="curve" smooth="yes"/>
      <point x="55" y="180"/>
      <point x="295" y="207"/>
      <point x="295" y="94" type="curve" name="hr03" smooth="yes"/>
      <point x="295" y="56"/>
      <point x="259" y="33"/>
      <point x="224" y="33" type="curve" smooth="yes"/>
      <point x="170" y="33"/>
      <point x="123" y="62"/>
      <point x="108" y="88" type="curve" smooth="yes"/>
      <point x="99" y="103"/>
      <point x="91" y="150"/>
      <point x="75" y="150" type="curve" smooth="yes"/>
      <point x="43" y="150"/>
      <point x="51" y="79"/>
    </contour>
    <contour>
      <point x="205" y="0" type="move" name="bottom"/>
    </contour>
    <contour>
      <point x="205" y="484" type="move" name="top"/>
    </contour>
  </outline>
</glyph>
<glyph name="v" format="1">
  <advance width="448"/>
  <unicode hex="0076"/>
  <outline>
    <contour>
      <point x="203" y="-10" type="line" name="hr00"/>
      <point x="244" y="-10" type="line"/>
      <point x="411" y="395" type="line"/>
      <point x="430" y="412" type="line"/>
      <point x="457" y="414"/>
      <point x="467" y="422"/>
      <point x="467" y="446" type="curve" smooth="yes"/>
      <point x="467" y="451"/>
      <point x="459" y="458"/>
      <point x="436" y="458" type="curve" smooth="yes"/>
      <point x="302" y="458" type="line" smooth="yes"/>
      <point x="287" y="458"/>
      <point x="280" y="444"/>
      <point x="280" y="435" type="curve" smooth="yes"/>
      <point x="280" y="421"/>
      <point x="324" y="416"/>
      <point x="350" y="412" type="curve"/>
      <point x="240" y="111" type="line"/>
      <point x="123" y="412" type="line"/>
      <point x="151" y="416"/>
      <point x="173" y="421"/>
      <point x="173" y="435" type="curve" smooth="yes"/>
      <point x="173" y="444"/>
      <point x="167" y="458"/>
      <point x="152" y="458" type="curve" smooth="yes"/>
      <point x="15" y="458" type="line" smooth="yes"/>
      <point x="-4" y="458"/>
      <point x="-13" y="451"/>
      <point x="-13" y="446" type="curve" smooth="yes"/>
      <point x="-13" y="422"/>
      <point x="-6" y="414"/>
      <point x="18" y="412" type="curve"/>
      <point x="38" y="395" type="line"/>
    </contour>
  </outline>
</glyph>
<glyph name="w" format="1">
  <advance width="679"/>
  <unicode hex="0077"/>
  <outline>
    <contour>
      <point x="201" y="-10" type="line" name="hr00"/>
      <point x="242" y="-10" type="line"/>
      <point x="344" y="258" type="line"/>
      <point x="443" y="-10" type="line"/>
      <point x="487" y="-10" type="line"/>
      <point x="646" y="412" type="line"/>
      <point x="673" y="414"/>
      <point x="697" y="422"/>
      <point x="697" y="446" type="curve" smooth="yes"/>
      <point x="697" y="451"/>
      <point x="688" y="458"/>
      <point x="669" y="458" type="curve" smooth="yes"/>
      <point x="528" y="458" type="line" smooth="yes"/>
      <point x="513" y="458"/>
      <point x="507" y="444"/>
      <point x="507" y="435" type="curve" smooth="yes"/>
      <point x="507" y="421"/>
      <point x="561" y="416"/>
      <point x="587" y="412" type="curve"/>
      <point x="477" y="106" type="line"/>
      <point x="377" y="412" type="line"/>
      <point x="410" y="416"/>
      <point x="438" y="421"/>
      <point x="438" y="435" type="curve" smooth="yes"/>
      <point x="438" y="444"/>
      <point x="431" y="458"/>
      <point x="416" y="458" type="curve" smooth="yes"/>
      <point x="277" y="458" type="line" smooth="yes"/>
      <point x="258" y="458"/>
      <point x="246" y="451"/>
      <point x="246" y="446" type="curve" smooth="yes"/>
      <point x="246" y="422"/>
      <point x="260" y="414"/>
      <point x="285" y="412" type="curve"/>
      <point x="293" y="395" type="line"/>
      <point x="316" y="333" type="line"/>
      <point x="235" y="104" type="line"/>
      <point x="125" y="412" type="line"/>
      <point x="151" y="416"/>
      <point x="174" y="421"/>
      <point x="174" y="435" type="curve" smooth="yes"/>
      <point x="174" y="444"/>
      <point x="167" y="458"/>
      <point x="151" y="458" type="curve" smooth="yes"/>
      <point x="11" y="458" type="line" smooth="yes"/>
      <point x="-8" y="458"/>
      <point x="-16" y="451"/>
      <point x="-16" y="446" type="curve" smooth="yes"/>
      <point x="-16" y="422"/>
      <point x="5" y="414"/>
      <point x="30" y="412" type="curve"/>
      <point x="38" y="395" type="line"/>
    </contour>
  </outline>
</glyph>
<glyph name="y" format="1">
  <advance width="472"/>
  <unicode hex="0079"/>
  <outline>
    <contour>
      <point x="80" y="-79" type="curve" smooth="yes" name="hr00"/>
      <point x="40" y="-79"/>
      <point x="29" y="-109"/>
      <point x="29" y="-134" type="curve" smooth="yes"/>
      <point x="29" y="-181"/>
      <point x="73" y="-215"/>
      <point x="108" y="-215" type="curve" smooth="yes"/>
      <point x="169" y="-215"/>
      <point x="225" y="-173"/>
      <point x="276" y="-42" type="curve"/>
      <point x="438" y="411" type="line"/>
      <point x="466" y="413"/>
      <point x="495" y="422"/>
      <point x="495" y="446" type="curve" smooth="yes"/>
      <point x="495" y="451"/>
      <point x="487" y="458"/>
      <point x="467" y="458" type="curve" smooth="yes"/>
      <point x="321" y="458" type="line" smooth="yes"/>
      <point x="306" y="458"/>
      <point x="299" y="444"/>
      <point x="299" y="435" type="curve" smooth="yes"/>
      <point x="299" y="421"/>
      <point x="339" y="416"/>
      <point x="367" y="412" type="curve"/>
      <point x="289" y="181" type="line"/>
      <point x="257" y="48" type="line"/>
      <point x="214" y="181" type="line"/>
      <point x="125" y="412" type="line"/>
      <point x="153" y="416"/>
      <point x="179" y="421"/>
      <point x="179" y="435" type="curve" smooth="yes"/>
      <point x="179" y="444"/>
      <point x="173" y="458"/>
      <point x="158" y="458" type="curve" smooth="yes"/>
      <point x="6" y="458" type="line" smooth="yes"/>
      <point x="-13" y="458"/>
      <point x="-12" y="451"/>
      <point x="-12" y="446" type="curve" smooth="yes"/>
      <point x="-12" y="422"/>
      <point x="-10" y="414"/>
      <point x="14" y="412" type="curve"/>
      <point x="38" y="395" type="line"/>
      <point x="224" y="-41" type="line"/>
      <point x="206" y="-95"/>
      <point x="179" y="-141"/>
      <point x="147" y="-141" type="curve" smooth="yes"/>
      <point x="88" y="-141"/>
      <point x="118" y="-79"/>
    </contour>
  </outline>
</glyph>
<glyph name="braceleft" format="1">
  <advance width="415"/>
  <unicode hex="007B"/>
  <outline>
    <contour>
      <point x="95" y="9" type="line" smooth="yes" name="hr00"/>
      <point x="95" y="-115"/>
      <point x="142" y="-161"/>
      <point x="211" y="-161" type="curve" smooth="yes"/>
      <point x="248" y="-161" type="line" smooth="yes"/>
      <point x="317" y="-161"/>
      <point x="313" y="-156"/>
      <point x="313" y="-144" type="curve" smooth="yes"/>
      <point x="313" y="-128"/>
      <point x="307" y="-118"/>
      <point x="260" y="-118" type="curve" smooth="yes"/>
      <point x="255" y="-118"/>
      <point x="250" y="-118"/>
      <point x="245" y="-118" type="curve" smooth="yes"/>
      <point x="222" y="-118"/>
      <point x="186" y="-94"/>
      <point x="185" y="-17" type="curve" smooth="yes"/>
      <point x="183" y="165" type="line"/>
      <point x="181" y="201"/>
      <point x="166" y="240"/>
      <point x="119" y="257" type="curve"/>
      <point x="167" y="274"/>
      <point x="182" y="313"/>
      <point x="183" y="350" type="curve" smooth="yes"/>
      <point x="185" y="514" type="line" smooth="yes"/>
      <point x="186" y="593"/>
      <point x="223" y="615"/>
      <point x="246" y="615" type="curve" smooth="yes"/>
      <point x="251" y="615"/>
      <point x="256" y="615"/>
      <point x="260" y="615" type="curve" smooth="yes"/>
      <point x="310" y="615"/>
      <point x="313" y="626"/>
      <point x="313" y="644" type="curve" smooth="yes"/>
      <point x="313" y="653"/>
      <point x="310" y="658"/>
      <point x="248" y="658" type="curve" smooth="yes"/>
      <point x="211" y="658" type="line" smooth="yes"/>
      <point x="142" y="658"/>
      <point x="95" y="612"/>
      <point x="95" y="488" type="curve" smooth="yes"/>
      <point x="95" y="340" type="line" smooth="yes"/>
      <point x="95" y="290"/>
      <point x="66" y="276"/>
      <point x="33" y="276" type="curve"/>
      <point x="33" y="237" type="line"/>
      <point x="66" y="237"/>
      <point x="95" y="220"/>
      <point x="95" y="183" type="curve" smooth="yes"/>
    </contour>
  </outline>
</glyph>
<glyph name="braceright" format="1">
  <advance width="415"/>
  <unicode hex="007D"/>
  <outline>
    <contour>
      <point x="320" y="9" type="curve" name="hr00" smooth="yes"/>
      <point x="320" y="183" type="line" smooth="yes"/>
      <point x="320" y="220"/>
      <point x="349" y="237"/>
      <point x="382" y="237" type="curve"/>
      <point x="382" y="276" type="line"/>
      <point x="349" y="276"/>
      <point x="320" y="290"/>
      <point x="320" y="340" type="curve" smooth="yes"/>
      <point x="320" y="488" type="line" smooth="yes"/>
      <point x="320" y="612"/>
      <point x="273" y="658"/>
      <point x="204" y="658" type="curve" smooth="yes"/>
      <point x="167" y="658" type="line" smooth="yes"/>
      <point x="105" y="658"/>
      <point x="102" y="653"/>
      <point x="102" y="644" type="curve" smooth="yes"/>
      <point x="102" y="626"/>
      <point x="105" y="615"/>
      <point x="155" y="615" type="curve" smooth="yes"/>
      <point x="159" y="615"/>
      <point x="164" y="615"/>
      <point x="169" y="615" type="curve" smooth="yes"/>
      <point x="192" y="615"/>
      <point x="229" y="593"/>
      <point x="230" y="514" type="curve" smooth="yes"/>
      <point x="232" y="350" type="line" smooth="yes"/>
      <point x="233" y="313"/>
      <point x="248" y="274"/>
      <point x="296" y="257" type="curve"/>
      <point x="249" y="240"/>
      <point x="234" y="201"/>
      <point x="232" y="165" type="curve"/>
      <point x="230" y="-17" type="line" smooth="yes"/>
      <point x="229" y="-94"/>
      <point x="193" y="-118"/>
      <point x="170" y="-118" type="curve" smooth="yes"/>
      <point x="165" y="-118"/>
      <point x="160" y="-118"/>
      <point x="155" y="-118" type="curve" smooth="yes"/>
      <point x="108" y="-118"/>
      <point x="102" y="-128"/>
      <point x="102" y="-144" type="curve" smooth="yes"/>
      <point x="102" y="-156"/>
      <point x="98" y="-161"/>
      <point x="167" y="-161" type="curve" smooth="yes"/>
      <point x="204" y="-161" type="line" smooth="yes"/>
      <point x="273" y="-161"/>
      <point x="320" y="-115"/>
    </contour>
  </outline>
</glyph>
<glyph name="asciitilde" format="1">
  <advance width="666"/>
  <unicode hex="007E"/>
  <outline>
    <contour>
      <point x="128" y="215" type="curve" smooth="yes" name="hr01"/>
      <point x="131" y="215"/>
      <point x="133" y="216"/>
      <point x="134" y="217" type="curve" smooth="yes"/>
      <point x="156" y="238"/>
      <point x="169" y="281"/>
      <point x="203" y="281" type="curve" smooth="yes"/>
      <point x="293" y="281"/>
      <point x="318" y="195"/>
      <point x="436" y="195" type="curve" smooth="yes"/>
      <point x="513" y="195"/>
      <point x="550" y="266"/>
      <point x="575" y="304" type="curve" smooth="yes" name="hr02"/>
      <point x="576" y="306"/>
      <point x="577" y="308"/>
      <point x="577" y="310" type="curve" smooth="yes"/>
      <point x="577" y="323"/>
      <point x="550" y="329"/>
      <point x="537" y="329" type="curve" smooth="yes"/>
      <point x="534" y="329"/>
      <point x="531" y="329"/>
      <point x="531" y="328" type="curve" smooth="yes"/>
      <point x="510" y="307"/>
      <point x="489" y="254"/>
      <point x="452" y="254" type="curve" smooth="yes"/>
      <point x="363" y="254"/>
      <point x="310" y="340"/>
      <point x="219" y="340" type="curve" smooth="yes" name="hr03"/>
      <point x="142" y="340"/>
      <point x="115" y="280"/>
      <point x="93" y="241" type="curve"/>
      <point x="91" y="239"/>
      <point x="91" y="236"/>
      <point x="91" y="234" type="curve" smooth="yes"/>
      <point x="91" y="222"/>
      <point x="116" y="215"/>
    </contour>
  </outline>
</glyph>
<glyph name="dv_CandrabinduInverted" format="1">
  <advance width="0"/>
  <unicode hex="0090"/>
  <outline>
    <contour>
      <point x="65" y="818" type="curve" smooth="yes" name="hr01"/>
      <point x="69" y="818"/>
      <point x="72" y="820"/>
      <point x="75" y="825" type="curve"/>
      <point x="101" y="904"/>
      <point x="155" y="938"/>
      <point x="233" y="938" type="curve" smooth="yes"/>
      <point x="311" y="938"/>
      <point x="365" y="904"/>
      <point x="391" y="825" type="curve" smooth="yes"/>
      <point x="393" y="820"/>
      <point x="397" y="818"/>
      <point x="400" y="818" type="curve" smooth="yes"/>
      <point x="417" y="818"/>
      <point x="440" y="858"/>
      <point x="440" y="880" type="curve" smooth="yes"/>
      <point x="440" y="881"/>
      <point x="440" y="883"/>
      <point x="440" y="884" type="curve" smooth="yes"/>
      <point x="412" y="967"/>
      <point x="316" y="1027"/>
      <point x="233" y="1027" type="curve" smooth="yes"/>
      <point x="150" y="1027"/>
      <point x="54" y="967"/>
      <point x="26" y="884" type="curve"/>
      <point x="26" y="883"/>
      <point x="26" y="881"/>
      <point x="26" y="880" type="curve" smooth="yes"/>
      <point x="26" y="858"/>
      <point x="49" y="818"/>
    </contour>
    <contour>
      <point x="233" y="739" type="curve" smooth="yes" name="hr02"/>
      <point x="235" y="739"/>
      <point x="236" y="739"/>
      <point x="237" y="739" type="curve"/>
      <point x="252" y="755"/>
      <point x="300" y="801"/>
      <point x="300" y="813" type="curve" smooth="yes"/>
      <point x="300" y="836"/>
      <point x="254" y="883"/>
      <point x="230" y="883" type="curve" smooth="yes"/>
      <point x="226" y="883"/>
      <point x="161" y="825"/>
      <point x="161" y="810" type="curve" smooth="yes"/>
      <point x="161" y="787"/>
      <point x="207" y="739"/>
    </contour>
  </outline>
</glyph>
<glyph name="section" format="1">
  <advance width="601"/>
  <unicode hex="00A7"/>
  <outline>
    <contour>
      <point x="101" y="33" type="curve" smooth="yes" name="hr01"/>
      <point x="129" y="8"/>
      <point x="229" y="-16"/>
      <point x="285" y="-16" type="curve" smooth="yes"/>
      <point x="406" y="-16"/>
      <point x="513" y="57"/>
      <point x="513" y="148" type="curve" smooth="yes" name="hr02"/>
      <point x="513" y="200"/>
      <point x="486" y="230"/>
      <point x="447" y="251" type="curve"/>
      <point x="471" y="277"/>
      <point x="486" y="307"/>
      <point x="486" y="339" type="curve" smooth="yes" name="hr03"/>
      <point x="486" y="527"/>
      <point x="172" y="454"/>
      <point x="172" y="590" type="curve" smooth="yes"/>
      <point x="172" y="631"/>
      <point x="227" y="653"/>
      <point x="286" y="653" type="curve" smooth="yes"/>
      <point x="362" y="653"/>
      <point x="410" y="629"/>
      <point x="433" y="593" type="curve" name="hr04"/>
      <point x="433" y="593"/>
      <point x="447" y="522"/>
      <point x="463" y="522" type="curve" smooth="yes"/>
      <point x="490" y="522"/>
      <point x="487" y="602"/>
      <point x="487" y="632" type="curve" smooth="yes"/>
      <point x="487" y="673"/>
      <point x="400" y="711"/>
      <point x="331" y="711" type="curve" smooth="yes"/>
      <point x="210" y="711"/>
      <point x="101" y="651"/>
      <point x="101" y="560" type="curve" smooth="yes"/>
      <point x="101" y="511"/>
      <point x="124" y="478"/>
      <point x="159" y="454" type="curve"/>
      <point x="122" y="427"/>
      <point x="101" y="407"/>
      <point x="101" y="357" type="curve" smooth="yes"/>
      <point x="101" y="261"/>
      <point x="181" y="233"/>
      <point x="289" y="210" type="curve" smooth="yes"/>
      <point x="365" y="194"/>
      <point x="438" y="183"/>
      <point x="438" y="112" type="curve" smooth="yes" name="hr05"/>
      <point x="438" y="76"/>
      <point x="388" y="45"/>
      <point x="326" y="45" type="curve" smooth="yes"/>
      <point x="226" y="45"/>
      <point x="163" y="76"/>
      <point x="152" y="112" type="curve"/>
      <point x="152" y="112"/>
      <point x="137" y="188"/>
      <point x="121" y="188" type="curve" smooth="yes"/>
      <point x="112" y="188"/>
      <point x="102" y="183"/>
      <point x="102" y="171" type="curve" smooth="yes"/>
      <point x="101" y="136"/>
      <point x="97" y="52"/>
      <point x="97" y="48" type="curve" smooth="yes"/>
      <point x="97" y="39"/>
      <point x="99" y="34"/>
    </contour>
    <contour>
      <point x="172" y="387" type="curve" smooth="yes"/>
      <point x="172" y="406"/>
      <point x="178" y="423"/>
      <point x="188" y="438" type="curve"/>
      <point x="314" y="375"/>
      <point x="413" y="409"/>
      <point x="413" y="303" type="curve" smooth="yes"/>
      <point x="413" y="291"/>
      <point x="411" y="279"/>
      <point x="408" y="268" type="curve"/>
      <point x="379" y="279"/>
      <point x="346" y="286"/>
      <point x="315" y="294" type="curve"/>
      <point x="221" y="310"/>
      <point x="172" y="330"/>
    </contour>
  </outline>
</glyph>
<glyph name="dieresis" format="1">
  <advance width="407"/>
  <unicode hex="00A8"/>
  <outline>
    <contour>
      <point x="322" y="554" type="curve" smooth="yes" name="hr00"/>
      <point x="348" y="554"/>
      <point x="380" y="589"/>
      <point x="380" y="612" type="curve" smooth="yes"/>
      <point x="380" y="630"/>
      <point x="363" y="658"/>
      <point x="301" y="658" type="curve" smooth="yes"/>
      <point x="276" y="658"/>
      <point x="246" y="618"/>
      <point x="246" y="596" type="curve" smooth="yes"/>
      <point x="246" y="587"/>
      <point x="264" y="554"/>
    </contour>
    <contour>
      <point x="102" y="554" type="curve" smooth="yes"/>
      <point x="129" y="554"/>
      <point x="161" y="589"/>
      <point x="161" y="612" type="curve" smooth="yes"/>
      <point x="161" y="630"/>
      <point x="142" y="658"/>
      <point x="83" y="658" type="curve" smooth="yes"/>
      <point x="57" y="658"/>
      <point x="27" y="618"/>
      <point x="27" y="596" type="curve" smooth="yes"/>
      <point x="27" y="587"/>
      <point x="42" y="554"/>
    </contour>
  </outline>
</glyph>
<glyph name="dieresiscomb" format="1">
  <advance width="407"/>
  <unicode hex="00A8"/>
  <outline>
    <component base="dieresis"/>
    <contour>
      <point x="204" y="484" type="move" name="_top"/>
    </contour>
    <contour>
      <point x="204" y="658" type="move" name="top"/>
    </contour>
  </outline>
</glyph>
<glyph name="copyright" format="1">
  <advance width="951"/>
  <unicode hex="00A9"/>
  <outline>
    <contour>
      <point x="84" y="447" type="curve" smooth="yes" name="hr00"/>
      <point x="84" y="269"/>
      <point x="227" y="89"/>
      <point x="462" y="89" type="curve" smooth="yes"/>
      <point x="678" y="89"/>
      <point x="847" y="248"/>
      <point x="847" y="480" type="curve" smooth="yes"/>
      <point x="847" y="659"/>
      <point x="704" y="838"/>
      <point x="472" y="838" type="curve" smooth="yes"/>
      <point x="256" y="838"/>
      <point x="84" y="679"/>
    </contour>
    <contour>
      <point x="488" y="132" type="curve"/>
      <point x="253" y="138"/>
      <point x="137" y="298"/>
      <point x="137" y="487" type="curve" smooth="yes"/>
      <point x="137" y="672"/>
      <point x="316" y="789"/>
      <point x="442" y="789" type="curve" smooth="yes"/>
      <point x="680" y="789"/>
      <point x="794" y="629"/>
      <point x="794" y="440" type="curve" smooth="yes"/>
      <point x="794" y="256"/>
      <point x="615" y="132"/>
    </contour>
    <contour>
      <point x="298" y="436" type="curve" smooth="yes"/>
      <point x="298" y="346"/>
      <point x="362" y="264"/>
      <point x="474" y="264" type="curve" smooth="yes"/>
      <point x="524" y="264"/>
      <point x="604" y="303"/>
      <point x="604" y="333" type="curve" smooth="yes"/>
      <point x="604" y="341"/>
      <point x="597" y="350"/>
      <point x="573" y="350" type="curve" smooth="yes"/>
      <point x="525" y="350"/>
      <point x="524" y="320"/>
      <point x="490" y="320" type="curve" smooth="yes"/>
      <point x="422" y="320"/>
      <point x="392" y="395"/>
      <point x="392" y="466" type="curve" smooth="yes"/>
      <point x="392" y="541"/>
      <point x="416" y="599"/>
      <point x="468" y="599" type="curve" smooth="yes"/>
      <point x="488" y="599"/>
      <point x="505" y="588"/>
      <point x="508" y="559" type="curve" smooth="yes"/>
      <point x="510" y="543"/>
      <point x="521" y="537"/>
      <point x="536" y="537" type="curve" smooth="yes"/>
      <point x="567" y="537"/>
      <point x="599" y="562"/>
      <point x="599" y="583" type="curve"/>
      <point x="594" y="632"/>
      <point x="536" y="650"/>
      <point x="490" y="650" type="curve" smooth="yes"/>
      <point x="374" y="650"/>
      <point x="298" y="565"/>
    </contour>
  </outline>
</glyph>
<glyph name="ordfeminine" format="1">
  <advance width="485"/>
  <unicode hex="00AA"/>
  <outline>
    <contour>
      <point x="207" y="273" type="curve" smooth="yes" name="hr01"/>
      <point x="247" y="273"/>
      <point x="281" y="291"/>
      <point x="310" y="315" type="curve"/>
      <point x="310" y="303" type="line" smooth="yes" name="hr02"/>
      <point x="310" y="280"/>
      <point x="329" y="271"/>
      <point x="350" y="271" type="curve" smooth="yes"/>
      <point x="402" y="271"/>
      <point x="433" y="306"/>
      <point x="433" y="315" type="curve" smooth="yes"/>
      <point x="433" y="324"/>
      <point x="427" y="331"/>
      <point x="412" y="331" type="curve" smooth="yes"/>
      <point x="410" y="331"/>
      <point x="408" y="330"/>
      <point x="406" y="330" type="curve" smooth="yes"/>
      <point x="400" y="330" type="line"/>
      <point x="389" y="326" type="line"/>
      <point x="389" y="549" type="line"/>
      <point x="387" y="609"/>
      <point x="369" y="673"/>
      <point x="274" y="673" type="curve" smooth="yes"/>
      <point x="201" y="673"/>
      <point x="102" y="625"/>
      <point x="102" y="564" type="curve" smooth="yes"/>
      <point x="102" y="551"/>
      <point x="104" y="529"/>
      <point x="131" y="529" type="curve" smooth="yes"/>
      <point x="154" y="529"/>
      <point x="190" y="552"/>
      <point x="190" y="572" type="curve" smooth="yes"/>
      <point x="190" y="574"/>
      <point x="190" y="576"/>
      <point x="188" y="578" type="curve" smooth="yes"/>
      <point x="187" y="579" type="line" smooth="yes"/>
      <point x="186" y="583"/>
      <point x="184" y="589"/>
      <point x="184" y="592" type="curve" smooth="yes"/>
      <point x="184" y="616"/>
      <point x="199" y="619"/>
      <point x="238" y="619" type="curve" smooth="yes"/>
      <point x="297" y="619"/>
      <point x="310" y="579"/>
      <point x="310" y="521" type="curve" smooth="yes"/>
      <point x="310" y="508" type="line"/>
      <point x="209" y="497"/>
      <point x="92" y="464"/>
      <point x="92" y="368" type="curve" smooth="yes" name="hr03"/>
      <point x="92" y="325"/>
      <point x="124" y="273"/>
    </contour>
    <contour>
      <point x="248" y="326" type="curve" smooth="yes"/>
      <point x="194" y="326"/>
      <point x="175" y="353"/>
      <point x="175" y="394" type="curve" smooth="yes"/>
      <point x="175" y="450"/>
      <point x="251" y="462"/>
      <point x="310" y="466" type="curve"/>
      <point x="310" y="352" type="line"/>
      <point x="294" y="335"/>
      <point x="271" y="326"/>
    </contour>
  </outline>
</glyph>
<glyph name="uni00AD" format="1">
  <advance width="509"/>
  <unicode hex="00AD"/>
  <outline>
    <contour>
      <point x="124" y="225" type="curve" name="hr00"/>
      <point x="354" y="225" type="line" smooth="yes"/>
      <point x="373" y="225"/>
      <point x="407" y="235"/>
      <point x="407" y="271" type="curve" smooth="yes"/>
      <point x="407" y="278"/>
      <point x="395" y="285"/>
      <point x="383" y="285" type="curve" smooth="yes"/>
      <point x="145" y="285" type="line" smooth="yes"/>
      <point x="135" y="285"/>
      <point x="105" y="267"/>
      <point x="105" y="248" type="curve" smooth="yes"/>
      <point x="105" y="233"/>
      <point x="117" y="225"/>
    </contour>
  </outline>
</glyph>
<glyph name="registered" format="1">
  <advance width="951"/>
  <unicode hex="00AE"/>
  <outline>
    <contour>
      <point x="84" y="447" type="curve" smooth="yes" name="hr01"/>
      <point x="84" y="269"/>
      <point x="227" y="89"/>
      <point x="462" y="89" type="curve" smooth="yes"/>
      <point x="678" y="89"/>
      <point x="847" y="248"/>
      <point x="847" y="480" type="curve" smooth="yes"/>
      <point x="847" y="659"/>
      <point x="704" y="838"/>
      <point x="472" y="838" type="curve" smooth="yes"/>
      <point x="256" y="838"/>
      <point x="84" y="679"/>
    </contour>
    <contour>
      <point x="488" y="132" type="curve"/>
      <point x="253" y="138"/>
      <point x="137" y="298"/>
      <point x="137" y="487" type="curve" smooth="yes"/>
      <point x="137" y="672"/>
      <point x="316" y="789"/>
      <point x="442" y="789" type="curve" smooth="yes"/>
      <point x="680" y="789"/>
      <point x="794" y="629"/>
      <point x="794" y="440" type="curve" smooth="yes"/>
      <point x="794" y="256"/>
      <point x="615" y="132"/>
    </contour>
    <contour>
      <point x="297" y="287" type="curve" smooth="yes"/>
      <point x="297" y="281"/>
      <point x="298" y="276"/>
      <point x="312" y="276" type="curve" smooth="yes"/>
      <point x="438" y="276" type="line" smooth="yes"/>
      <point x="458" y="276"/>
      <point x="465" y="281"/>
      <point x="465" y="287" type="curve" smooth="yes"/>
      <point x="465" y="303"/>
      <point x="436" y="309"/>
      <point x="407" y="310" type="curve"/>
      <point x="407" y="438" type="line"/>
      <point x="430" y="438" type="line" smooth="yes"/>
      <point x="552" y="438"/>
      <point x="524" y="276"/>
      <point x="598" y="276" type="curve" smooth="yes" name="hr02"/>
      <point x="641" y="276" type="line" smooth="yes"/>
      <point x="671" y="276"/>
      <point x="673" y="288"/>
      <point x="673" y="292" type="curve" smooth="yes"/>
      <point x="674" y="324"/>
      <point x="638" y="286"/>
      <point x="612" y="336" type="curve" smooth="yes"/>
      <point x="603" y="353" type="line"/>
      <point x="604" y="353" type="line"/>
      <point x="583" y="403"/>
      <point x="540" y="443"/>
      <point x="520" y="451" type="curve"/>
      <point x="583" y="465"/>
      <point x="617" y="511"/>
      <point x="617" y="563" type="curve" smooth="yes"/>
      <point x="617" y="630"/>
      <point x="550" y="666"/>
      <point x="486" y="666" type="curve" smooth="yes"/>
      <point x="440" y="666"/>
      <point x="417" y="661"/>
      <point x="377" y="661" type="curve" smooth="yes"/>
      <point x="349" y="661" type="line" smooth="yes"/>
      <point x="300" y="661"/>
      <point x="296" y="656"/>
      <point x="296" y="647" type="curve" smooth="yes"/>
      <point x="296" y="631"/>
      <point x="308" y="626"/>
      <point x="339" y="626" type="curve"/>
      <point x="339" y="309" type="line" name="hr03"/>
      <point x="302" y="301"/>
      <point x="297" y="296"/>
    </contour>
    <contour>
      <point x="407" y="471" type="line"/>
      <point x="407" y="625" type="line"/>
      <point x="417" y="626"/>
      <point x="429" y="626"/>
      <point x="441" y="626" type="curve" smooth="yes"/>
      <point x="510" y="626"/>
      <point x="550" y="611"/>
      <point x="550" y="549" type="curve" smooth="yes"/>
      <point x="550" y="497"/>
      <point x="504" y="471"/>
      <point x="453" y="471" type="curve" smooth="yes"/>
    </contour>
  </outline>
</glyph>
<glyph name="macroncomb" format="1">
  <advance width="357"/>
  <unicode hex="00AF"/>
  <outline>
    <component base="macron"/>
    <contour>
      <point x="179" y="484" type="move" name="_top"/>
    </contour>
    <contour>
      <point x="179" y="676" type="move" name="top"/>
    </contour>
  </outline>
</glyph>
<glyph name="degree" format="1">
  <advance width="346"/>
  <unicode hex="00B0"/>
  <outline>
    <contour>
      <point x="164" y="527" type="curve" smooth="yes" name="hr00"/>
      <point x="260" y="527"/>
      <point x="319" y="596"/>
      <point x="319" y="674" type="curve" smooth="yes"/>
      <point x="319" y="765"/>
      <point x="243" y="802"/>
      <point x="186" y="802" type="curve" smooth="yes"/>
      <point x="90" y="802"/>
      <point x="27" y="736"/>
      <point x="27" y="660" type="curve" smooth="yes"/>
      <point x="27" y="567"/>
      <point x="104" y="527"/>
    </contour>
    <contour>
      <point x="171" y="579" type="curve" smooth="yes"/>
      <point x="140" y="579"/>
      <point x="96" y="604"/>
      <point x="96" y="667" type="curve" smooth="yes"/>
      <point x="96" y="712"/>
      <point x="122" y="752"/>
      <point x="174" y="752" type="curve" smooth="yes"/>
      <point x="203" y="752"/>
      <point x="250" y="728"/>
      <point x="250" y="660" type="curve" smooth="yes"/>
      <point x="250" y="617"/>
      <point x="233" y="582"/>
      <point x="175" y="579" type="curve"/>
      <point x="174" y="579"/>
      <point x="172" y="579"/>
    </contour>
  </outline>
</glyph>
<glyph name="acutecomb" format="1">
  <advance width="239"/>
  <unicode hex="00B4"/>
  <outline>
    <component base="acute"/>
    <contour>
      <point x="129" y="484" type="move" name="_top"/>
    </contour>
    <contour>
      <point x="129" y="773" type="move" name="top"/>
    </contour>
  </outline>
</glyph>
<glyph name="paragraph" format="1">
  <advance width="633"/>
  <unicode hex="00B6"/>
  <outline>
    <contour>
      <point x="148" y="18" type="curve" smooth="yes" name="hr01"/>
      <point x="148" y="12"/>
      <point x="160" y="0"/>
      <point x="191" y="0" type="curve" smooth="yes"/>
      <point x="347" y="0" type="line"/>
      <point x="347" y="610" type="line"/>
      <point x="446" y="610" type="line"/>
      <point x="446" y="0" type="line"/>
      <point x="570" y="0" type="line" smooth="yes"/>
      <point x="593" y="0"/>
      <point x="601" y="5"/>
      <point x="601" y="11" type="curve" smooth="yes"/>
      <point x="601" y="35"/>
      <point x="581" y="41"/>
      <point x="536" y="45" type="curve" name="hr02"/>
      <point x="536" y="617" type="line"/>
      <point x="575" y="617"/>
      <point x="589" y="632"/>
      <point x="589" y="645" type="curve" smooth="yes"/>
      <point x="589" y="648"/>
      <point x="583" y="658"/>
      <point x="570" y="658" type="curve" smooth="yes"/>
      <point x="344" y="658" type="line"/>
      <point x="328" y="658" type="line" smooth="yes"/>
      <point x="320" y="658"/>
      <point x="292" y="663"/>
      <point x="244" y="663" type="curve" smooth="yes"/>
      <point x="122" y="663"/>
      <point x="47" y="602"/>
      <point x="47" y="513" type="curve" smooth="yes"/>
      <point x="47" y="388"/>
      <point x="115" y="316"/>
      <point x="208" y="316" type="curve" smooth="yes"/>
      <point x="259" y="316" type="line"/>
      <point x="259" y="57" type="line" name="hr03"/>
      <point x="177" y="57"/>
      <point x="148" y="42"/>
    </contour>
  </outline>
</glyph>
<glyph name="cedilla" format="1">
  <advance width="291"/>
  <unicode hex="00B8"/>
  <outline>
    <contour>
      <point x="88" y="6" type="line" name="hr00"/>
      <point x="71" y="-100" type="line"/>
      <point x="77" y="-99"/>
      <point x="84" y="-99"/>
      <point x="90" y="-99" type="curve" smooth="yes"/>
      <point x="131" y="-99"/>
      <point x="169" y="-110"/>
      <point x="169" y="-146" type="curve" smooth="yes"/>
      <point x="169" y="-201"/>
      <point x="124" y="-211"/>
      <point x="81" y="-211" type="curve" smooth="yes"/>
      <point x="70" y="-211"/>
      <point x="53" y="-205"/>
      <point x="42" y="-205" type="curve" smooth="yes"/>
      <point x="37" y="-205"/>
      <point x="27" y="-223"/>
      <point x="27" y="-236" type="curve" smooth="yes"/>
      <point x="27" y="-257"/>
      <point x="93" y="-264"/>
      <point x="112" y="-264" type="curve" smooth="yes"/>
      <point x="192" y="-264"/>
      <point x="264" y="-221"/>
      <point x="264" y="-141" type="curve" smooth="yes"/>
      <point x="264" y="-84"/>
      <point x="202" y="-64"/>
      <point x="156" y="-64" type="curve"/>
      <point x="156" y="6" type="line"/>
    </contour>
  </outline>
</glyph>
<glyph name="one.sups" format="1">
  <advance width="336"/>
  <unicode hex="00B9"/>
  <outline>
    <contour>
      <point x="58" y="270" type="curve" name="hr00"/>
      <point x="281" y="270" type="line" smooth="yes"/>
      <point x="305" y="270"/>
      <point x="316" y="275"/>
      <point x="316" y="290" type="curve" smooth="yes"/>
      <point x="316" y="301"/>
      <point x="308" y="311"/>
      <point x="290" y="311" type="curve" smooth="yes"/>
      <point x="287" y="311"/>
      <point x="283" y="311"/>
      <point x="279" y="311" type="curve" smooth="yes"/>
      <point x="258" y="311"/>
      <point x="223" y="313"/>
      <point x="223" y="333" type="curve" smooth="yes"/>
      <point x="223" y="725" type="line" smooth="yes"/>
      <point x="223" y="733"/>
      <point x="199" y="747"/>
      <point x="186" y="747" type="curve" smooth="yes"/>
      <point x="161" y="747"/>
      <point x="98" y="697"/>
      <point x="40" y="672" type="curve" smooth="yes"/>
      <point x="30" y="667"/>
      <point x="26" y="661"/>
      <point x="26" y="655" type="curve" smooth="yes"/>
      <point x="26" y="643"/>
      <point x="40" y="635"/>
      <point x="55" y="635" type="curve" smooth="yes"/>
      <point x="79" y="635"/>
      <point x="111" y="649"/>
      <point x="138" y="662" type="curve"/>
      <point x="138" y="317" type="line"/>
      <point x="69" y="307"/>
      <point x="33" y="309"/>
      <point x="33" y="289" type="curve" smooth="yes"/>
      <point x="33" y="281"/>
      <point x="37" y="270"/>
    </contour>
  </outline>
</glyph>
<glyph name="ordmasculine" format="1">
  <advance width="484"/>
  <unicode hex="00BA"/>
  <outline>
    <contour>
      <point x="230" y="273" type="curve" smooth="yes" name="hr00"/>
      <point x="371" y="273"/>
      <point x="429" y="384"/>
      <point x="429" y="485" type="curve" smooth="yes"/>
      <point x="429" y="575"/>
      <point x="385" y="672"/>
      <point x="263" y="672" type="curve" smooth="yes"/>
      <point x="138" y="672"/>
      <point x="69" y="568"/>
      <point x="69" y="458" type="curve" smooth="yes"/>
      <point x="69" y="332"/>
      <point x="139" y="273"/>
    </contour>
    <contour>
      <point x="265" y="320" type="curve" smooth="yes"/>
      <point x="176" y="320"/>
      <point x="150" y="410"/>
      <point x="150" y="485" type="curve" smooth="yes"/>
      <point x="150" y="547"/>
      <point x="167" y="625"/>
      <point x="232" y="625" type="curve" smooth="yes"/>
      <point x="321" y="625"/>
      <point x="346" y="535"/>
      <point x="346" y="458" type="curve" smooth="yes"/>
      <point x="346" y="387"/>
      <point x="326" y="320"/>
    </contour>
  </outline>
</glyph>
<glyph name="AE" format="1">
  <advance width="795"/>
  <unicode hex="00C6"/>
  <outline>
    <contour>
      <point x="4" y="20" type="curve" smooth="yes" name="hr00"/>
      <point x="4" y="12"/>
      <point x="7" y="0"/>
      <point x="23" y="0" type="curve" smooth="yes"/>
      <point x="52" y="0" type="line"/>
      <point x="54" y="-1"/>
      <point x="56" y="-2"/>
      <point x="59" y="-2" type="curve" smooth="yes"/>
      <point x="61" y="-2"/>
      <point x="64" y="-1"/>
      <point x="68" y="0" type="curve"/>
      <point x="175" y="0" type="line" smooth="yes"/>
      <point x="199" y="0"/>
      <point x="209" y="6"/>
      <point x="209" y="22" type="curve" smooth="yes"/>
      <point x="209" y="55"/>
      <point x="141" y="33"/>
      <point x="141" y="74" type="curve"/>
      <point x="192" y="198" type="line"/>
      <point x="380" y="198" type="line"/>
      <point x="380" y="55" type="line"/>
      <point x="366" y="48"/>
      <point x="316" y="39"/>
      <point x="316" y="24" type="curve" smooth="yes"/>
      <point x="316" y="16"/>
      <point x="319" y="0"/>
      <point x="335" y="0" type="curve" smooth="yes"/>
      <point x="754" y="0" type="line" smooth="yes"/>
      <point x="759" y="0"/>
      <point x="766" y="63"/>
      <point x="766" y="111" type="curve" smooth="yes"/>
      <point x="766" y="165"/>
      <point x="758" y="178"/>
      <point x="724" y="178" type="curve" smooth="yes"/>
      <point x="717" y="178"/>
      <point x="701" y="80"/>
      <point x="673" y="63" type="curve" smooth="yes"/>
      <point x="656" y="53"/>
      <point x="599" y="49"/>
      <point x="545" y="49" type="curve" smooth="yes"/>
      <point x="515" y="49"/>
      <point x="489" y="50"/>
      <point x="469" y="50" type="curve"/>
      <point x="469" y="319" type="line"/>
      <point x="623" y="305" type="line"/>
      <point x="644" y="307"/>
      <point x="661" y="350"/>
      <point x="661" y="367" type="curve" smooth="yes"/>
      <point x="661" y="372"/>
      <point x="657" y="377"/>
      <point x="644" y="378" type="curve"/>
      <point x="469" y="374" type="line"/>
      <point x="469" y="613" type="line"/>
      <point x="622" y="613" type="line" smooth="yes"/>
      <point x="689" y="613"/>
      <point x="669" y="528"/>
      <point x="708" y="528" type="curve" smooth="yes"/>
      <point x="728" y="528"/>
      <point x="744" y="596"/>
      <point x="744" y="628" type="curve" smooth="yes"/>
      <point x="744" y="656"/>
      <point x="701" y="658"/>
      <point x="657" y="658" type="curve" smooth="yes"/>
      <point x="380" y="657" type="line"/>
      <point x="370" y="655" type="line"/>
      <point x="374" y="658" type="line"/>
      <point x="216" y="658" type="line" smooth="yes"/>
      <point x="200" y="658"/>
      <point x="197" y="642"/>
      <point x="197" y="634" type="curve" smooth="yes"/>
      <point x="197" y="607"/>
      <point x="278" y="626"/>
      <point x="302" y="610" type="curve"/>
      <point x="60" y="50" type="line"/>
      <point x="47" y="43"/>
      <point x="4" y="33"/>
    </contour>
    <contour>
      <point x="215" y="254" type="line"/>
      <point x="344" y="563" type="line"/>
      <point x="380" y="642" type="line"/>
      <point x="380" y="254" type="line"/>
    </contour>
  </outline>
</glyph>
<glyph name="Eth" format="1">
  <advance width="664"/>
  <unicode hex="00D0"/>
  <outline>
    <contour>
      <point x="67" y="24" type="curve" name="hr01" smooth="yes"/>
      <point x="67" y="16"/>
      <point x="70" y="0"/>
      <point x="86" y="0" type="curve" smooth="yes"/>
      <point x="162" y="0" type="line" smooth="yes"/>
      <point x="232" y="0"/>
      <point x="255" y="-5"/>
      <point x="296" y="-5" type="curve" smooth="yes"/>
      <point x="529" y="-5"/>
      <point x="635" y="174"/>
      <point x="635" y="349" type="curve" name="hr02" smooth="yes"/>
      <point x="635" y="546"/>
      <point x="535" y="665"/>
      <point x="314" y="665" type="curve" smooth="yes"/>
      <point x="259" y="665"/>
      <point x="200" y="658"/>
      <point x="165" y="658" type="curve" smooth="yes"/>
      <point x="86" y="658" type="line" smooth="yes"/>
      <point x="70" y="658"/>
      <point x="67" y="642"/>
      <point x="67" y="634" type="curve" smooth="yes"/>
      <point x="67" y="618"/>
      <point x="117" y="610"/>
      <point x="131" y="603" type="curve"/>
      <point x="131" y="376" type="line"/>
      <point x="107" y="376" type="line" smooth="yes"/>
      <point x="97" y="376"/>
      <point x="67" y="358"/>
      <point x="67" y="339" type="curve" smooth="yes"/>
      <point x="67" y="324"/>
      <point x="79" y="316"/>
      <point x="86" y="316" type="curve" smooth="yes"/>
      <point x="131" y="316" type="line"/>
      <point x="131" y="55" type="line" name="hr03"/>
      <point x="117" y="48"/>
      <point x="67" y="39"/>
    </contour>
    <contour>
      <point x="220" y="48" type="curve" name="hr04"/>
      <point x="220" y="316" type="line"/>
      <point x="316" y="316" type="line" smooth="yes"/>
      <point x="335" y="316"/>
      <point x="369" y="326"/>
      <point x="369" y="362" type="curve" smooth="yes"/>
      <point x="369" y="369"/>
      <point x="357" y="376"/>
      <point x="345" y="376" type="curve" smooth="yes"/>
      <point x="220" y="376" type="line"/>
      <point x="220" y="611" type="line"/>
      <point x="297" y="611" type="line" smooth="yes"/>
      <point x="476" y="611"/>
      <point x="546" y="484"/>
      <point x="546" y="339" type="curve" smooth="yes"/>
      <point x="546" y="156"/>
      <point x="456" y="45"/>
      <point x="292" y="45" type="curve" smooth="yes"/>
      <point x="259" y="45"/>
      <point x="232" y="48"/>
    </contour>
  </outline>
</glyph>
<glyph name="Thorn" format="1">
  <advance width="542"/>
  <unicode hex="00DE"/>
  <outline>
    <contour>
      <point x="48" y="24" type="curve" name="hr00" smooth="yes"/>
      <point x="48" y="16"/>
      <point x="51" y="0"/>
      <point x="67" y="0" type="curve" smooth="yes"/>
      <point x="251" y="0" type="line" smooth="yes"/>
      <point x="275" y="0"/>
      <point x="285" y="16"/>
      <point x="285" y="22" type="curve" smooth="yes"/>
      <point x="285" y="57"/>
      <point x="202" y="33"/>
      <point x="202" y="74" type="curve" smooth="yes"/>
      <point x="202" y="131" type="line"/>
      <point x="218" y="129"/>
      <point x="232" y="128"/>
      <point x="239" y="128" type="curve" smooth="yes"/>
      <point x="299" y="128"/>
      <point x="376" y="130"/>
      <point x="432" y="170" type="curve" smooth="yes"/>
      <point x="493" y="213"/>
      <point x="526" y="278"/>
      <point x="526" y="350" type="curve" smooth="yes"/>
      <point x="526" y="404"/>
      <point x="504" y="471"/>
      <point x="442" y="508" type="curve" smooth="yes"/>
      <point x="400" y="533"/>
      <point x="345" y="541"/>
      <point x="313" y="541" type="curve" smooth="yes"/>
      <point x="258" y="541"/>
      <point x="239" y="537"/>
      <point x="202" y="535" type="curve"/>
      <point x="202" y="588" type="line"/>
      <point x="205" y="621"/>
      <point x="273" y="604"/>
      <point x="273" y="636" type="curve" smooth="yes"/>
      <point x="273" y="642"/>
      <point x="263" y="658"/>
      <point x="239" y="658" type="curve" smooth="yes"/>
      <point x="67" y="658" type="line" smooth="yes"/>
      <point x="51" y="658"/>
      <point x="48" y="642"/>
      <point x="48" y="634" type="curve" smooth="yes"/>
      <point x="48" y="618"/>
      <point x="98" y="610"/>
      <point x="112" y="603" type="curve"/>
      <point x="112" y="55" type="line"/>
      <point x="98" y="48"/>
      <point x="48" y="39"/>
    </contour>
    <contour>
      <point x="202" y="190" type="curve"/>
      <point x="202" y="487" type="line"/>
      <point x="220" y="488"/>
      <point x="239" y="489"/>
      <point x="255" y="489" type="curve" smooth="yes"/>
      <point x="378" y="489"/>
      <point x="436" y="449"/>
      <point x="436" y="320" type="curve" smooth="yes"/>
      <point x="436" y="216"/>
      <point x="353" y="186"/>
      <point x="280" y="186" type="curve" smooth="yes"/>
      <point x="257" y="186"/>
      <point x="224" y="188"/>
    </contour>
  </outline>
</glyph>
<glyph name="germandbls" format="1">
  <advance width="515"/>
  <unicode hex="00DF"/>
  <outline>
    <contour>
      <point x="85" y="-4" type="line" name="hr01"/>
      <point x="91" y="-12"/>
      <point x="99" y="-16"/>
      <point x="108" y="-16" type="curve" smooth="yes"/>
      <point x="129" y="-16"/>
      <point x="164" y="2"/>
      <point x="169" y="17" type="curve"/>
      <point x="169" y="539" type="line" smooth="yes"/>
      <point x="169" y="578"/>
      <point x="177" y="672"/>
      <point x="259" y="672" type="curve" smooth="yes"/>
      <point x="328" y="672"/>
      <point x="348" y="626"/>
      <point x="348" y="567" type="curve" smooth="yes" name="hr02"/>
      <point x="348" y="470"/>
      <point x="244" y="468"/>
      <point x="244" y="383" type="curve" smooth="yes"/>
      <point x="244" y="297"/>
      <point x="408" y="265"/>
      <point x="408" y="153" type="curve" smooth="yes" name="hr03"/>
      <point x="408" y="72"/>
      <point x="394" y="61"/>
      <point x="310" y="61" type="curve" smooth="yes"/>
      <point x="266" y="61"/>
      <point x="258" y="50"/>
      <point x="258" y="12" type="curve" smooth="yes"/>
      <point x="258" y="7"/>
      <point x="262" y="3"/>
      <point x="272" y="0" type="curve"/>
      <point x="316" y="0" type="line" smooth="yes"/>
      <point x="416" y="0"/>
      <point x="488" y="79"/>
      <point x="488" y="186" type="curve" smooth="yes"/>
      <point x="488" y="318"/>
      <point x="316" y="352"/>
      <point x="315" y="416" type="curve" smooth="yes"/>
      <point x="315" y="422"/>
      <point x="315" y="427"/>
      <point x="317" y="433" type="curve"/>
      <point x="386" y="492"/>
      <point x="429" y="502"/>
      <point x="429" y="602" type="curve" smooth="yes" name="hr04"/>
      <point x="429" y="685"/>
      <point x="358" y="729"/>
      <point x="300" y="729" type="curve" smooth="yes"/>
      <point x="162" y="729"/>
      <point x="90" y="587"/>
      <point x="85" y="458" type="curve"/>
      <point x="42" y="458" type="line" smooth="yes"/>
      <point x="23" y="458"/>
      <point x="11" y="435"/>
      <point x="11" y="420" type="curve" smooth="yes"/>
      <point x="11" y="410"/>
      <point x="14" y="402"/>
      <point x="31" y="402" type="curve" smooth="yes"/>
      <point x="85" y="402" type="line"/>
    </contour>
  </outline>
</glyph>
<glyph name="ae" format="1">
  <advance width="733"/>
  <unicode hex="00E6"/>
  <outline>
    <contour>
      <point x="39" y="101" type="curve" smooth="yes" name="hr01"/>
      <point x="39" y="50"/>
      <point x="77" y="-16"/>
      <point x="177" y="-16" type="curve" smooth="yes"/>
      <point x="248" y="-16"/>
      <point x="292" y="29"/>
      <point x="333" y="82" type="curve"/>
      <point x="356" y="24"/>
      <point x="404" y="-16"/>
      <point x="493" y="-16" type="curve" smooth="yes"/>
      <point x="592" y="-16"/>
      <point x="678" y="30"/>
      <point x="678" y="66" type="curve" smooth="yes"/>
      <point x="678" y="72"/>
      <point x="674" y="77"/>
      <point x="664" y="77" type="curve" smooth="yes"/>
      <point x="632" y="77"/>
      <point x="617" y="42"/>
      <point x="518" y="42" type="curve" smooth="yes"/>
      <point x="426" y="42"/>
      <point x="401" y="131"/>
      <point x="398" y="221" type="curve" name="hr02"/>
      <point x="652" y="221" type="line" smooth="yes"/>
      <point x="670" y="221"/>
      <point x="692" y="220"/>
      <point x="692" y="240" type="curve" smooth="yes"/>
      <point x="689" y="343"/>
      <point x="669" y="477"/>
      <point x="517" y="477" type="curve" smooth="yes"/>
      <point x="458" y="477"/>
      <point x="413" y="455"/>
      <point x="381" y="420" type="curve"/>
      <point x="363" y="453"/>
      <point x="329" y="477"/>
      <point x="264" y="477" type="curve" smooth="yes" name="hr03"/>
      <point x="205" y="477"/>
      <point x="53" y="421"/>
      <point x="53" y="346" type="curve" smooth="yes"/>
      <point x="53" y="333"/>
      <point x="56" y="309"/>
      <point x="86" y="309" type="curve" smooth="yes"/>
      <point x="112" y="309"/>
      <point x="151" y="333"/>
      <point x="151" y="355" type="curve" smooth="yes"/>
      <point x="151" y="361"/>
      <point x="144" y="362"/>
      <point x="144" y="381" type="curve" smooth="yes"/>
      <point x="144" y="415"/>
      <point x="148" y="420"/>
      <point x="219" y="420" type="curve" smooth="yes"/>
      <point x="247" y="420"/>
      <point x="281" y="416"/>
      <point x="297" y="389" type="curve" smooth="yes"/>
      <point x="313" y="362"/>
      <point x="314" y="329"/>
      <point x="314" y="297" type="curve" smooth="yes"/>
      <point x="314" y="275" type="line"/>
      <point x="177" y="266"/>
      <point x="39" y="220"/>
    </contour>
    <contour>
      <point x="398" y="266" type="line" name="hr05"/>
      <point x="401" y="356"/>
      <point x="419" y="423"/>
      <point x="486" y="423" type="curve" smooth="yes"/>
      <point x="577" y="423"/>
      <point x="591" y="356"/>
      <point x="593" y="273" type="curve"/>
    </contour>
    <contour>
      <point x="133" y="134" type="curve" smooth="yes" name="hr06"/>
      <point x="133" y="211"/>
      <point x="236" y="225"/>
      <point x="314" y="229" type="curve"/>
      <point x="314" y="95" type="line"/>
      <point x="291" y="62"/>
      <point x="256" y="40"/>
      <point x="227" y="40" type="curve" smooth="yes"/>
      <point x="155" y="40"/>
      <point x="133" y="81"/>
    </contour>
  </outline>
</glyph>
<glyph name="ccedilla" format="1">
  <advance width="419"/>
  <unicode hex="00E7"/>
  <outline>
    <contour>
      <point x="195" y="-12" type="curve" name="hr00"/>
      <point x="181" y="-100" type="line"/>
      <point x="187" y="-99"/>
      <point x="194" y="-99"/>
      <point x="200" y="-99" type="curve" smooth="yes"/>
      <point x="241" y="-99"/>
      <point x="279" y="-110"/>
      <point x="279" y="-146" type="curve" smooth="yes"/>
      <point x="279" y="-201"/>
      <point x="234" y="-211"/>
      <point x="191" y="-211" type="curve" smooth="yes"/>
      <point x="180" y="-211"/>
      <point x="163" y="-205"/>
      <point x="152" y="-205" type="curve" smooth="yes"/>
      <point x="147" y="-205"/>
      <point x="137" y="-223"/>
      <point x="137" y="-236" type="curve" smooth="yes"/>
      <point x="137" y="-257"/>
      <point x="203" y="-264"/>
      <point x="222" y="-264" type="curve" smooth="yes"/>
      <point x="302" y="-264"/>
      <point x="374" y="-221"/>
      <point x="374" y="-141" type="curve" smooth="yes"/>
      <point x="374" y="-84"/>
      <point x="312" y="-64"/>
      <point x="266" y="-64" type="curve"/>
      <point x="266" y="-14" type="line"/>
      <point x="315" y="-8"/>
      <point x="396" y="34"/>
      <point x="396" y="68" type="curve" smooth="yes"/>
      <point x="396" y="74"/>
      <point x="390" y="82"/>
      <point x="373" y="82" type="curve" smooth="yes"/>
      <point x="324" y="82"/>
      <point x="319" y="42"/>
      <point x="266" y="42" type="curve" smooth="yes"/>
      <point x="164" y="42"/>
      <point x="124" y="144"/>
      <point x="124" y="240" type="curve" smooth="yes"/>
      <point x="124" y="343"/>
      <point x="154" y="426"/>
      <point x="234" y="426" type="curve" smooth="yes"/>
      <point x="274" y="426"/>
      <point x="290" y="412"/>
      <point x="297" y="351" type="curve" smooth="yes"/>
      <point x="299" y="327"/>
      <point x="308" y="322"/>
      <point x="320" y="322" type="curve"/>
      <point x="351" y="327"/>
      <point x="389" y="344"/>
      <point x="389" y="387" type="curve" smooth="yes"/>
      <point x="389" y="458"/>
      <point x="314" y="477"/>
      <point x="265" y="477" type="curve" smooth="yes"/>
      <point x="122" y="477"/>
      <point x="32" y="366"/>
      <point x="32" y="202" type="curve" smooth="yes"/>
      <point x="32" y="101"/>
      <point x="84" y="8"/>
    </contour>
  </outline>
</glyph>
<glyph name="eth" format="1">
  <advance width="495"/>
  <unicode hex="00F0"/>
  <outline>
    <contour>
      <point x="216" y="-16" type="curve" smooth="yes" name="hr00"/>
      <point x="383" y="-16"/>
      <point x="457" y="118"/>
      <point x="457" y="264" type="curve" smooth="yes"/>
      <point x="457" y="322"/>
      <point x="450" y="412"/>
      <point x="422" y="472" type="curve" smooth="yes"/>
      <point x="374" y="576"/>
      <point x="322" y="647"/>
      <point x="248" y="700" type="curve"/>
      <point x="271" y="726"/>
      <point x="311" y="766"/>
      <point x="311" y="787" type="curve" smooth="yes"/>
      <point x="311" y="795"/>
      <point x="306" y="798"/>
      <point x="299" y="798" type="curve" smooth="yes"/>
      <point x="262" y="798"/>
      <point x="235" y="752"/>
      <point x="211" y="725" type="curve"/>
      <point x="175" y="746"/>
      <point x="134" y="765"/>
      <point x="86" y="783" type="curve"/>
      <point x="69" y="783"/>
      <point x="45" y="769"/>
      <point x="45" y="755" type="curve" smooth="yes"/>
      <point x="45" y="749"/>
      <point x="49" y="743"/>
      <point x="65" y="740" type="curve"/>
      <point x="105" y="726"/>
      <point x="141" y="707"/>
      <point x="174" y="684" type="curve"/>
      <point x="148" y="654"/>
      <point x="103" y="607"/>
      <point x="103" y="592" type="curve" smooth="yes"/>
      <point x="103" y="585"/>
      <point x="109" y="585"/>
      <point x="118" y="585" type="curve" smooth="yes"/>
      <point x="158" y="585"/>
      <point x="180" y="624"/>
      <point x="208" y="656" type="curve"/>
      <point x="266" y="605"/>
      <point x="309" y="538"/>
      <point x="340" y="465" type="curve"/>
      <point x="317" y="473"/>
      <point x="294" y="477"/>
      <point x="276" y="477" type="curve" smooth="yes"/>
      <point x="108" y="477"/>
      <point x="37" y="341"/>
      <point x="37" y="222" type="curve" smooth="yes"/>
      <point x="37" y="87"/>
      <point x="99" y="-16"/>
    </contour>
    <contour>
      <point x="262" y="41" type="curve" smooth="yes"/>
      <point x="167" y="41"/>
      <point x="116" y="164"/>
      <point x="116" y="256" type="curve" smooth="yes"/>
      <point x="116" y="348"/>
      <point x="154" y="421"/>
      <point x="239" y="421" type="curve" smooth="yes"/>
      <point x="285" y="421"/>
      <point x="329" y="402"/>
      <point x="360" y="377" type="curve"/>
      <point x="373" y="331"/>
      <point x="378" y="292"/>
      <point x="378" y="232" type="curve" smooth="yes"/>
      <point x="378" y="138"/>
      <point x="364" y="41"/>
    </contour>
  </outline>
</glyph>
<glyph name="divide" format="1">
  <advance width="582"/>
  <unicode hex="00F7"/>
  <outline>
    <contour>
      <point x="286" y="451" type="curve" smooth="yes" name="hr00"/>
      <point x="312" y="451"/>
      <point x="341" y="486"/>
      <point x="341" y="509" type="curve" smooth="yes"/>
      <point x="341" y="527"/>
      <point x="325" y="554"/>
      <point x="266" y="554" type="curve" smooth="yes"/>
      <point x="237" y="554"/>
      <point x="210" y="515"/>
      <point x="210" y="493" type="curve" smooth="yes"/>
      <point x="210" y="484"/>
      <point x="225" y="451"/>
    </contour>
    <contour>
      <point x="88" y="320" type="curve"/>
      <point x="448" y="320" type="line"/>
      <point x="470" y="322"/>
      <point x="511" y="348"/>
      <point x="511" y="363" type="curve" smooth="yes"/>
      <point x="511" y="369"/>
      <point x="505" y="373"/>
      <point x="491" y="374" type="curve"/>
      <point x="115" y="374" type="line"/>
      <point x="103" y="371"/>
      <point x="69" y="354"/>
      <point x="69" y="338" type="curve" smooth="yes"/>
      <point x="69" y="331"/>
      <point x="74" y="325"/>
    </contour>
    <contour>
      <point x="220" y="183" type="curve" smooth="yes"/>
      <point x="220" y="174"/>
      <point x="235" y="141"/>
      <point x="296" y="141" type="curve" smooth="yes"/>
      <point x="322" y="141"/>
      <point x="351" y="176"/>
      <point x="351" y="199" type="curve" smooth="yes"/>
      <point x="351" y="217"/>
      <point x="335" y="244"/>
      <point x="276" y="244" type="curve" smooth="yes"/>
      <point x="247" y="244"/>
      <point x="220" y="205"/>
    </contour>
  </outline>
</glyph>
<glyph name="oslash" format="1">
  <advance width="528"/>
  <unicode hex="00F8"/>
  <outline>
    <contour>
      <point x="99" y="-61" type="curve" smooth="yes" name="hr01"/>
      <point x="96" y="-69"/>
      <point x="94" y="-75"/>
      <point x="94" y="-79" type="curve" smooth="yes"/>
      <point x="94" y="-91"/>
      <point x="102" y="-95"/>
      <point x="113" y="-95" type="curve" smooth="yes"/>
      <point x="130" y="-95"/>
      <point x="143" y="-84"/>
      <point x="155" y="-70" type="curve"/>
      <point x="189" y="-10" type="line"/>
      <point x="206" y="-14"/>
      <point x="223" y="-16"/>
      <point x="241" y="-16" type="curve" smooth="yes"/>
      <point x="300" y="-16"/>
      <point x="364" y="5"/>
      <point x="407" y="43" type="curve" smooth="yes"/>
      <point x="465" y="94"/>
      <point x="484" y="179"/>
      <point x="484" y="244" type="curve" smooth="yes"/>
      <point x="484" y="319"/>
      <point x="457" y="401"/>
      <point x="393" y="445" type="curve"/>
      <point x="437" y="528" type="line" smooth="yes"/>
      <point x="440" y="535"/>
      <point x="441" y="540"/>
      <point x="441" y="545" type="curve" smooth="yes"/>
      <point x="441" y="555"/>
      <point x="434" y="559"/>
      <point x="424" y="559" type="curve" smooth="yes"/>
      <point x="404" y="559"/>
      <point x="384" y="543"/>
      <point x="373" y="527" type="curve"/>
      <point x="345" y="468" type="line"/>
      <point x="327" y="473"/>
      <point x="306" y="477"/>
      <point x="283" y="477" type="curve" smooth="yes"/>
      <point x="125" y="477"/>
      <point x="44" y="345"/>
      <point x="44" y="210" type="curve" smooth="yes"/>
      <point x="44" y="111"/>
      <point x="81" y="44"/>
      <point x="138" y="10" type="curve"/>
      <point x="126" y="-12"/>
      <point x="111" y="-36"/>
    </contour>
    <contour>
      <point x="179" y="83" type="line"/>
      <point x="147" y="126"/>
      <point x="135" y="189"/>
      <point x="135" y="244" type="curve" smooth="yes"/>
      <point x="135" y="335"/>
      <point x="164" y="429"/>
      <point x="244" y="429" type="curve" smooth="yes"/>
      <point x="274" y="429"/>
      <point x="298" y="420"/>
      <point x="318" y="406" type="curve"/>
    </contour>
    <contour>
      <point x="214" y="51" type="curve" name="hr02"/>
      <point x="353" y="370" type="line"/>
      <point x="383" y="326"/>
      <point x="394" y="265"/>
      <point x="394" y="210" type="curve" smooth="yes"/>
      <point x="394" y="120"/>
      <point x="366" y="32"/>
      <point x="286" y="32" type="curve" smooth="yes"/>
      <point x="257" y="32"/>
      <point x="234" y="39"/>
    </contour>
  </outline>
</glyph>
<glyph name="Aogonek" format="1">
  <advance width="571"/>
  <unicode hex="0104"/>
  <outline>
    <contour>
      <point x="-15" y="0" type="curve" name="hr00"/>
      <point x="139" y="0" type="line" smooth="yes"/>
      <point x="163" y="0"/>
      <point x="173" y="6"/>
      <point x="173" y="22" type="curve" smooth="yes"/>
      <point x="173" y="54"/>
      <point x="106" y="35"/>
      <point x="105" y="72" type="curve"/>
      <point x="148" y="197" type="line"/>
      <point x="239" y="197"/>
      <point x="307" y="196"/>
      <point x="396" y="196" type="curve"/>
      <point x="410" y="150"/>
      <point x="426" y="102"/>
      <point x="444" y="50" type="curve"/>
      <point x="406" y="33" type="line" smooth="yes"/>
      <point x="398" y="30"/>
      <point x="394" y="25"/>
      <point x="394" y="20" type="curve" smooth="yes"/>
      <point x="394" y="12"/>
      <point x="397" y="0"/>
      <point x="413" y="0" type="curve" smooth="yes"/>
      <point x="479" y="0" type="line"/>
      <point x="438" y="-23"/>
      <point x="402" y="-58"/>
      <point x="402" y="-113" type="curve" smooth="yes"/>
      <point x="402" y="-172"/>
      <point x="451" y="-209"/>
      <point x="508" y="-209" type="curve" smooth="yes"/>
      <point x="608" y="-209"/>
      <point x="619" y="-146"/>
      <point x="619" y="-136" type="curve" smooth="yes"/>
      <point x="619" y="-131"/>
      <point x="614" y="-118"/>
      <point x="605" y="-118" type="curve" smooth="yes"/>
      <point x="603" y="-118"/>
      <point x="602" y="-118"/>
      <point x="600" y="-119" type="curve" smooth="yes"/>
      <point x="571" y="-136"/>
      <point x="548" y="-137"/>
      <point x="531" y="-137" type="curve" smooth="yes"/>
      <point x="504" y="-137"/>
      <point x="493" y="-110"/>
      <point x="493" y="-95" type="curve" smooth="yes"/>
      <point x="493" y="-49"/>
      <point x="513" y="-21"/>
      <point x="540" y="0" type="curve"/>
      <point x="565" y="0" type="line" smooth="yes"/>
      <point x="589" y="0"/>
      <point x="599" y="16"/>
      <point x="599" y="22" type="curve" smooth="yes"/>
      <point x="599" y="35"/>
      <point x="592" y="38"/>
      <point x="580" y="41" type="curve" smooth="yes"/>
      <point x="550" y="49"/>
      <point x="544" y="52"/>
      <point x="532" y="79" type="curve"/>
      <point x="446" y="308"/>
      <point x="417" y="427"/>
      <point x="322" y="663" type="curve"/>
      <point x="313" y="666"/>
      <point x="304" y="667"/>
      <point x="297" y="667" type="curve" smooth="yes"/>
      <point x="269" y="667"/>
      <point x="250" y="649"/>
      <point x="234" y="615" type="curve"/>
      <point x="30" y="50" type="line"/>
      <point x="16" y="43"/>
      <point x="-34" y="36"/>
      <point x="-34" y="20" type="curve" smooth="yes"/>
      <point x="-34" y="12"/>
      <point x="-31" y="0"/>
    </contour>
    <contour>
      <point x="167" y="254" type="curve"/>
      <point x="276" y="568" type="line"/>
      <point x="322" y="449"/>
      <point x="350" y="351"/>
      <point x="379" y="252" type="curve"/>
      <point x="305" y="252"/>
      <point x="249" y="254"/>
    </contour>
  </outline>
</glyph>
<glyph name="aogonek" format="1">
  <advance width="476"/>
  <unicode hex="0105"/>
  <outline>
    <contour>
      <point x="39" y="101" type="curve" smooth="yes" name="hr01"/>
      <point x="39" y="50"/>
      <point x="77" y="-16"/>
      <point x="177" y="-16" type="curve" smooth="yes" name="hr02"/>
      <point x="235" y="-16"/>
      <point x="274" y="15"/>
      <point x="309" y="57" type="curve"/>
      <point x="309" y="19" type="line" smooth="yes" name="hr03"/>
      <point x="309" y="1"/>
      <point x="320" y="-9"/>
      <point x="336" y="-13" type="curve"/>
      <point x="301" y="-37"/>
      <point x="271" y="-71"/>
      <point x="271" y="-113" type="curve" smooth="yes" name="hr04"/>
      <point x="271" y="-172"/>
      <point x="317" y="-209"/>
      <point x="377" y="-209" type="curve" smooth="yes"/>
      <point x="473" y="-209"/>
      <point x="488" y="-147"/>
      <point x="488" y="-136" type="curve" smooth="yes"/>
      <point x="488" y="-131"/>
      <point x="483" y="-118"/>
      <point x="474" y="-118" type="curve" smooth="yes"/>
      <point x="472" y="-118"/>
      <point x="471" y="-118"/>
      <point x="469" y="-119" type="curve" smooth="yes"/>
      <point x="437" y="-136"/>
      <point x="414" y="-137"/>
      <point x="399" y="-137" type="curve" smooth="yes"/>
      <point x="373" y="-137"/>
      <point x="362" y="-110"/>
      <point x="362" y="-95" type="curve" smooth="yes"/>
      <point x="362" y="-52"/>
      <point x="376" y="-28"/>
      <point x="397" y="-9" type="curve"/>
      <point x="436" y="3"/>
      <point x="462" y="29"/>
      <point x="462" y="37" type="curve" smooth="yes" name="hr05"/>
      <point x="462" y="46"/>
      <point x="459" y="52"/>
      <point x="444" y="52" type="curve" smooth="yes"/>
      <point x="428" y="52"/>
      <point x="412" y="43"/>
      <point x="397" y="43" type="curve"/>
      <point x="397" y="329" type="line" smooth="yes"/>
      <point x="397" y="401"/>
      <point x="377" y="477"/>
      <point x="264" y="477" type="curve" smooth="yes"/>
      <point x="197" y="477"/>
      <point x="53" y="409"/>
      <point x="53" y="346" type="curve" smooth="yes"/>
      <point x="53" y="333"/>
      <point x="56" y="309"/>
      <point x="86" y="309" type="curve" smooth="yes"/>
      <point x="112" y="309"/>
      <point x="151" y="333"/>
      <point x="151" y="355" type="curve" smooth="yes"/>
      <point x="151" y="361"/>
      <point x="144" y="362"/>
      <point x="144" y="381" type="curve" smooth="yes"/>
      <point x="144" y="415"/>
      <point x="148" y="420"/>
      <point x="219" y="420" type="curve" smooth="yes"/>
      <point x="245" y="420"/>
      <point x="276" y="416"/>
      <point x="292" y="389" type="curve" smooth="yes"/>
      <point x="307" y="362"/>
      <point x="309" y="329"/>
      <point x="309" y="297" type="curve" smooth="yes"/>
      <point x="309" y="275" type="line"/>
      <point x="174" y="265"/>
      <point x="39" y="220"/>
    </contour>
    <contour>
      <point x="133" y="134" type="curve" smooth="yes" name="hr07"/>
      <point x="133" y="211"/>
      <point x="234" y="225"/>
      <point x="309" y="229" type="curve"/>
      <point x="309" y="94" type="line"/>
      <point x="287" y="62"/>
      <point x="254" y="40"/>
      <point x="227" y="40" type="curve" smooth="yes"/>
      <point x="155" y="40"/>
      <point x="133" y="81"/>
    </contour>
  </outline>
</glyph>
<glyph name="Iogonek" format="1">
  <advance width="314"/>
  <unicode hex="012E"/>
  <outline>
    <contour>
      <point x="48" y="24" type="curve" name="hr01" smooth="yes"/>
      <point x="48" y="16"/>
      <point x="51" y="0"/>
      <point x="67" y="0" type="curve" smooth="yes"/>
      <point x="134" y="0" type="line"/>
      <point x="93" y="-23"/>
      <point x="57" y="-58"/>
      <point x="57" y="-113" type="curve" smooth="yes"/>
      <point x="57" y="-172"/>
      <point x="106" y="-209"/>
      <point x="163" y="-209" type="curve" smooth="yes"/>
      <point x="263" y="-209"/>
      <point x="274" y="-146"/>
      <point x="274" y="-136" type="curve" smooth="yes"/>
      <point x="274" y="-131"/>
      <point x="269" y="-118"/>
      <point x="260" y="-118" type="curve" smooth="yes"/>
      <point x="258" y="-118"/>
      <point x="257" y="-118"/>
      <point x="255" y="-119" type="curve" smooth="yes"/>
      <point x="226" y="-136"/>
      <point x="203" y="-137"/>
      <point x="186" y="-137" type="curve" smooth="yes"/>
      <point x="159" y="-137"/>
      <point x="148" y="-110"/>
      <point x="148" y="-95" type="curve" smooth="yes"/>
      <point x="148" y="-49"/>
      <point x="168" y="-21"/>
      <point x="195" y="0" type="curve"/>
      <point x="239" y="0" type="line" name="hr02" smooth="yes"/>
      <point x="263" y="0"/>
      <point x="273" y="16"/>
      <point x="273" y="22" type="curve" smooth="yes"/>
      <point x="273" y="54"/>
      <point x="205" y="35"/>
      <point x="202" y="70" type="curve"/>
      <point x="202" y="584" type="line" smooth="yes"/>
      <point x="202" y="625"/>
      <point x="273" y="602"/>
      <point x="273" y="636" type="curve" smooth="yes"/>
      <point x="273" y="642"/>
      <point x="263" y="658"/>
      <point x="239" y="658" type="curve" smooth="yes"/>
      <point x="67" y="658" type="line" smooth="yes"/>
      <point x="51" y="658"/>
      <point x="48" y="642"/>
      <point x="48" y="634" type="curve" smooth="yes"/>
      <point x="48" y="618"/>
      <point x="98" y="610"/>
      <point x="112" y="603" type="curve"/>
      <point x="112" y="55" type="line"/>
      <point x="98" y="48"/>
      <point x="48" y="39"/>
    </contour>
  </outline>
</glyph>
<glyph name="Iogonek" format="1">
  <advance width="314"/>
  <unicode hex="012E"/>
  <outline>
    <contour>
      <point x="48" y="24" type="curve" smooth="yes" name="hr01"/>
      <point x="48" y="16"/>
      <point x="51" y="0"/>
      <point x="67" y="0" type="curve" smooth="yes"/>
      <point x="134" y="0" type="line"/>
      <point x="93" y="-23"/>
      <point x="57" y="-58"/>
      <point x="57" y="-113" type="curve" smooth="yes"/>
      <point x="57" y="-172"/>
      <point x="106" y="-209"/>
      <point x="163" y="-209" type="curve" smooth="yes"/>
      <point x="263" y="-209"/>
      <point x="274" y="-146"/>
      <point x="274" y="-136" type="curve" smooth="yes"/>
      <point x="274" y="-131"/>
      <point x="269" y="-118"/>
      <point x="260" y="-118" type="curve" smooth="yes"/>
      <point x="258" y="-118"/>
      <point x="257" y="-118"/>
      <point x="255" y="-119" type="curve" smooth="yes"/>
      <point x="226" y="-136"/>
      <point x="203" y="-137"/>
      <point x="186" y="-137" type="curve" smooth="yes"/>
      <point x="159" y="-137"/>
      <point x="148" y="-110"/>
      <point x="148" y="-95" type="curve" smooth="yes"/>
      <point x="148" y="-49"/>
      <point x="168" y="-21"/>
      <point x="195" y="0" type="curve"/>
      <point x="239" y="0" type="line" smooth="yes" name="hr02"/>
      <point x="263" y="0"/>
      <point x="273" y="16"/>
      <point x="273" y="22" type="curve" smooth="yes"/>
      <point x="273" y="54"/>
      <point x="205" y="35"/>
      <point x="202" y="70" type="curve"/>
      <point x="202" y="584" type="line" smooth="yes"/>
      <point x="202" y="625"/>
      <point x="273" y="602"/>
      <point x="273" y="636" type="curve" smooth="yes"/>
      <point x="273" y="642"/>
      <point x="263" y="658"/>
      <point x="239" y="658" type="curve" smooth="yes"/>
      <point x="67" y="658" type="line" smooth="yes"/>
      <point x="51" y="658"/>
      <point x="48" y="642"/>
      <point x="48" y="634" type="curve" smooth="yes"/>
      <point x="48" y="618"/>
      <point x="98" y="610"/>
      <point x="112" y="603" type="curve"/>
      <point x="112" y="55" type="line"/>
      <point x="98" y="48"/>
      <point x="48" y="39"/>
    </contour>
  </outline>
</glyph>
<glyph name="dotlessi" format="1">
  <advance width="280"/>
  <unicode hex="0131"/>
  <outline>
    <contour>
      <point x="43" y="20" type="curve" name="hr00" smooth="yes"/>
      <point x="43" y="12"/>
      <point x="46" y="0"/>
      <point x="62" y="0" type="curve" smooth="yes"/>
      <point x="228" y="0" type="line" smooth="yes"/>
      <point x="252" y="0"/>
      <point x="262" y="9"/>
      <point x="262" y="22" type="curve" smooth="yes"/>
      <point x="262" y="55"/>
      <point x="192" y="33"/>
      <point x="192" y="74" type="curve" smooth="yes"/>
      <point x="192" y="457" type="line"/>
      <point x="190" y="465"/>
      <point x="171" y="467"/>
      <point x="159" y="467" type="curve" smooth="yes"/>
      <point x="116" y="467"/>
      <point x="43" y="436"/>
      <point x="43" y="409" type="curve" smooth="yes"/>
      <point x="43" y="399"/>
      <point x="81" y="385"/>
      <point x="108" y="380" type="curve"/>
      <point x="108" y="54" type="line"/>
      <point x="93" y="47"/>
      <point x="43" y="34"/>
    </contour>
    <contour>
      <point x="140" y="0" type="move" name="bottom"/>
    </contour>
    <contour>
      <point x="252" y="10" type="move" name="ogonek"/>
    </contour>
    <contour>
      <point x="140" y="484" type="move" name="top"/>
    </contour>
  </outline>
</glyph>
<glyph name="Lcaron" format="1">
  <advance width="873"/>
  <unicode hex="013D"/>
  <outline>
    <contour>
      <point x="668" y="526" type="line" name="hr00" smooth="yes"/>
      <point x="668" y="523"/>
      <point x="676" y="520"/>
      <point x="686" y="520" type="curve" smooth="yes"/>
      <point x="698" y="520"/>
      <point x="711" y="524"/>
      <point x="716" y="535" type="curve"/>
      <point x="725" y="561"/>
      <point x="739" y="644"/>
      <point x="739" y="703" type="curve" smooth="yes"/>
      <point x="739" y="737"/>
      <point x="737" y="763"/>
      <point x="668" y="763" type="curve" smooth="yes"/>
      <point x="653" y="763"/>
      <point x="645" y="760"/>
      <point x="645" y="749" type="curve"/>
    </contour>
    <component base="L" xOffset="298"/>
  </outline>
</glyph>
<glyph name="Lcaron" format="1">
  <advance width="873"/>
  <unicode hex="013D"/>
  <outline>
    <contour>
      <point x="668" y="526" type="line" smooth="yes" name="hr00"/>
      <point x="668" y="523"/>
      <point x="676" y="520"/>
      <point x="686" y="520" type="curve" smooth="yes"/>
      <point x="698" y="520"/>
      <point x="711" y="524"/>
      <point x="716" y="535" type="curve"/>
      <point x="725" y="561"/>
      <point x="739" y="644"/>
      <point x="739" y="703" type="curve" smooth="yes"/>
      <point x="739" y="737"/>
      <point x="737" y="763"/>
      <point x="668" y="763" type="curve" smooth="yes"/>
      <point x="653" y="763"/>
      <point x="645" y="760"/>
      <point x="645" y="749" type="curve"/>
    </contour>
    <component base="L" xOffset="298"/>
  </outline>
</glyph>
<glyph name="lcaron" format="1">
  <advance width="501"/>
  <unicode hex="013E"/>
  <outline>
    <contour>
      <point x="455" y="526" type="line" smooth="yes" name="hr00"/>
      <point x="455" y="523"/>
      <point x="463" y="520"/>
      <point x="473" y="520" type="curve" smooth="yes"/>
      <point x="485" y="520"/>
      <point x="498" y="524"/>
      <point x="503" y="535" type="curve"/>
      <point x="512" y="561"/>
      <point x="526" y="644"/>
      <point x="526" y="703" type="curve" smooth="yes"/>
      <point x="526" y="737"/>
      <point x="524" y="763"/>
      <point x="455" y="763" type="curve" smooth="yes"/>
      <point x="440" y="763"/>
      <point x="432" y="760"/>
      <point x="432" y="749" type="curve"/>
    </contour>
    <component base="l" xOffset="200"/>
  </outline>
</glyph>
<glyph name="Eng" format="1">
  <advance width="689"/>
  <unicode hex="014A"/>
  <outline>
    <contour>
      <point x="439" y="-205" type="curve" name="hr00" smooth="yes"/>
      <point x="439" y="-210"/>
      <point x="443" y="-214"/>
      <point x="451" y="-214" type="curve" smooth="yes"/>
      <point x="460" y="-214"/>
      <point x="474" y="-210"/>
      <point x="494" y="-199" type="curve"/>
      <point x="592" y="-135"/>
      <point x="611" y="-92"/>
      <point x="611" y="16" type="curve"/>
      <point x="612" y="61" type="line"/>
      <point x="539" y="61" type="line"/>
      <point x="539" y="6" type="line" smooth="yes"/>
      <point x="539" y="-64"/>
      <point x="519" y="-125"/>
      <point x="469" y="-161" type="curve"/>
      <point x="451" y="-177"/>
      <point x="439" y="-194"/>
    </contour>
    <component base="N"/>
  </outline>
</glyph>
<glyph name="eng" format="1">
  <advance width="554"/>
  <unicode hex="014B"/>
  <outline>
    <contour>
      <point x="50" y="12" type="curve" smooth="yes" name="hr00"/>
      <point x="50" y="9"/>
      <point x="58" y="3"/>
      <point x="71" y="0" type="curve"/>
      <point x="197" y="0" type="line" smooth="yes"/>
      <point x="228" y="0"/>
      <point x="238" y="5"/>
      <point x="238" y="11" type="curve" smooth="yes"/>
      <point x="238" y="35"/>
      <point x="227" y="57"/>
      <point x="182" y="57" type="curve"/>
      <point x="182" y="375" type="line"/>
      <point x="212" y="403"/>
      <point x="260" y="420"/>
      <point x="300" y="420" type="curve" smooth="yes"/>
      <point x="352" y="420"/>
      <point x="389" y="384"/>
      <point x="390" y="291" type="curve" smooth="yes"/>
      <point x="392" y="6" type="line" smooth="yes"/>
      <point x="392" y="-64"/>
      <point x="386" y="-125"/>
      <point x="337" y="-161" type="curve"/>
      <point x="319" y="-177"/>
      <point x="307" y="-194"/>
      <point x="307" y="-205" type="curve" smooth="yes"/>
      <point x="307" y="-210"/>
      <point x="311" y="-214"/>
      <point x="319" y="-214" type="curve" smooth="yes"/>
      <point x="326" y="-214"/>
      <point x="341" y="-211"/>
      <point x="360" y="-199" type="curve" smooth="yes"/>
      <point x="459" y="-136"/>
      <point x="479" y="-91"/>
      <point x="479" y="16" type="curve" smooth="yes"/>
      <point x="478" y="329" type="line" smooth="yes"/>
      <point x="478" y="398"/>
      <point x="442" y="478"/>
      <point x="339" y="478" type="curve" smooth="yes"/>
      <point x="271" y="478"/>
      <point x="219" y="447"/>
      <point x="172" y="406" type="curve"/>
      <point x="172" y="457" type="line"/>
      <point x="170" y="465"/>
      <point x="161" y="467"/>
      <point x="148" y="467" type="curve" smooth="yes"/>
      <point x="107" y="467"/>
      <point x="34" y="436"/>
      <point x="34" y="409" type="curve" smooth="yes"/>
      <point x="34" y="399"/>
      <point x="69" y="385"/>
      <point x="96" y="380" type="curve"/>
      <point x="96" y="54" type="line"/>
      <point x="77" y="45"/>
      <point x="50" y="25"/>
    </contour>
  </outline>
</glyph>
<glyph name="OE" format="1">
  <advance width="1024"/>
  <unicode hex="0152"/>
  <outline>
    <contour>
      <point x="40" y="306" type="curve" smooth="yes" name="hr01"/>
      <point x="40" y="132"/>
      <point x="119" y="-16"/>
      <point x="314" y="-16" type="curve" smooth="yes" name="hr02"/>
      <point x="490" y="-16"/>
      <point x="582" y="107"/>
      <point x="609" y="253" type="curve"/>
      <point x="609" y="55" type="line" name="hr03"/>
      <point x="599" y="48"/>
      <point x="565" y="34"/>
      <point x="565" y="24" type="curve" smooth="yes"/>
      <point x="565" y="16"/>
      <point x="568" y="0"/>
      <point x="584" y="0" type="curve" smooth="yes"/>
      <point x="983" y="0" type="line" smooth="yes"/>
      <point x="988" y="0"/>
      <point x="995" y="63"/>
      <point x="995" y="111" type="curve" smooth="yes"/>
      <point x="995" y="165"/>
      <point x="987" y="178"/>
      <point x="953" y="178" type="curve" smooth="yes"/>
      <point x="946" y="178"/>
      <point x="930" y="80"/>
      <point x="902" y="63" type="curve" smooth="yes"/>
      <point x="885" y="53"/>
      <point x="828" y="49"/>
      <point x="774" y="49" type="curve" smooth="yes"/>
      <point x="744" y="49"/>
      <point x="718" y="50"/>
      <point x="698" y="50" type="curve"/>
      <point x="698" y="319" type="line"/>
      <point x="852" y="305" type="line"/>
      <point x="873" y="307"/>
      <point x="890" y="350"/>
      <point x="890" y="367" type="curve" smooth="yes"/>
      <point x="890" y="372"/>
      <point x="886" y="377"/>
      <point x="873" y="378" type="curve"/>
      <point x="698" y="374" type="line"/>
      <point x="698" y="613" type="line"/>
      <point x="851" y="613" type="line" smooth="yes"/>
      <point x="918" y="613"/>
      <point x="898" y="528"/>
      <point x="937" y="528" type="curve" smooth="yes"/>
      <point x="957" y="528"/>
      <point x="973" y="596"/>
      <point x="973" y="628" type="curve" smooth="yes"/>
      <point x="973" y="656"/>
      <point x="930" y="658"/>
      <point x="886" y="658" type="curve" smooth="yes"/>
      <point x="582" y="658" type="line" smooth="yes"/>
      <point x="566" y="658"/>
      <point x="563" y="642"/>
      <point x="563" y="634" type="curve" smooth="yes"/>
      <point x="563" y="624"/>
      <point x="601" y="607"/>
      <point x="609" y="603" type="curve"/>
      <point x="609" y="446" type="line"/>
      <point x="587" y="574"/>
      <point x="516" y="672"/>
      <point x="361" y="672" type="curve" smooth="yes"/>
      <point x="149" y="672"/>
      <point x="40" y="490"/>
    </contour>
    <contour>
      <point x="344" y="42" type="curve" smooth="yes" name="hr04"/>
      <point x="195" y="42"/>
      <point x="126" y="196"/>
      <point x="126" y="345" type="curve" smooth="yes"/>
      <point x="126" y="460"/>
      <point x="172" y="613"/>
      <point x="331" y="613" type="curve" smooth="yes"/>
      <point x="483" y="613"/>
      <point x="545" y="457"/>
      <point x="545" y="307" type="curve" smooth="yes"/>
      <point x="545" y="193"/>
      <point x="505" y="42"/>
    </contour>
  </outline>
</glyph>
<glyph name="OE" format="1">
  <advance width="1024"/>
  <unicode hex="0152"/>
  <outline>
    <contour>
      <point x="40" y="306" type="curve" name="hr01" smooth="yes"/>
      <point x="40" y="132"/>
      <point x="119" y="-16"/>
      <point x="314" y="-16" type="curve" name="hr02" smooth="yes"/>
      <point x="490" y="-16"/>
      <point x="582" y="107"/>
      <point x="609" y="253" type="curve"/>
      <point x="609" y="55" type="line" name="hr03"/>
      <point x="599" y="48"/>
      <point x="565" y="34"/>
      <point x="565" y="24" type="curve" smooth="yes"/>
      <point x="565" y="16"/>
      <point x="568" y="0"/>
      <point x="584" y="0" type="curve" smooth="yes"/>
      <point x="983" y="0" type="line" smooth="yes"/>
      <point x="988" y="0"/>
      <point x="995" y="63"/>
      <point x="995" y="111" type="curve" smooth="yes"/>
      <point x="995" y="165"/>
      <point x="987" y="178"/>
      <point x="953" y="178" type="curve" smooth="yes"/>
      <point x="946" y="178"/>
      <point x="930" y="80"/>
      <point x="902" y="63" type="curve" smooth="yes"/>
      <point x="885" y="53"/>
      <point x="828" y="49"/>
      <point x="774" y="49" type="curve" smooth="yes"/>
      <point x="744" y="49"/>
      <point x="718" y="50"/>
      <point x="698" y="50" type="curve"/>
      <point x="698" y="319" type="line"/>
      <point x="852" y="305" type="line"/>
      <point x="873" y="307"/>
      <point x="890" y="350"/>
      <point x="890" y="367" type="curve" smooth="yes"/>
      <point x="890" y="372"/>
      <point x="886" y="377"/>
      <point x="873" y="378" type="curve"/>
      <point x="698" y="374" type="line"/>
      <point x="698" y="613" type="line"/>
      <point x="851" y="613" type="line" smooth="yes"/>
      <point x="918" y="613"/>
      <point x="898" y="528"/>
      <point x="937" y="528" type="curve" smooth="yes"/>
      <point x="957" y="528"/>
      <point x="973" y="596"/>
      <point x="973" y="628" type="curve" smooth="yes"/>
      <point x="973" y="656"/>
      <point x="930" y="658"/>
      <point x="886" y="658" type="curve" smooth="yes"/>
      <point x="582" y="658" type="line" smooth="yes"/>
      <point x="566" y="658"/>
      <point x="563" y="642"/>
      <point x="563" y="634" type="curve" smooth="yes"/>
      <point x="563" y="624"/>
      <point x="601" y="607"/>
      <point x="609" y="603" type="curve"/>
      <point x="609" y="446" type="line"/>
      <point x="587" y="574"/>
      <point x="516" y="672"/>
      <point x="361" y="672" type="curve" smooth="yes"/>
      <point x="149" y="672"/>
      <point x="40" y="490"/>
    </contour>
    <contour>
      <point x="344" y="42" type="curve" name="hr04" smooth="yes"/>
      <point x="195" y="42"/>
      <point x="126" y="196"/>
      <point x="126" y="345" type="curve" smooth="yes"/>
      <point x="126" y="460"/>
      <point x="172" y="613"/>
      <point x="331" y="613" type="curve" smooth="yes"/>
      <point x="483" y="613"/>
      <point x="545" y="457"/>
      <point x="545" y="307" type="curve" smooth="yes"/>
      <point x="545" y="193"/>
      <point x="505" y="42"/>
    </contour>
  </outline>
</glyph>
<glyph name="oe" format="1">
  <advance width="847"/>
  <unicode hex="0153"/>
  <outline>
    <contour>
      <point x="42" y="210" type="curve" smooth="yes" name="hr01"/>
      <point x="42" y="59"/>
      <point x="129" y="-16"/>
      <point x="239" y="-16" type="curve" smooth="yes"/>
      <point x="307" y="-16"/>
      <point x="386" y="13"/>
      <point x="425" y="69" type="curve"/>
      <point x="457" y="18"/>
      <point x="513" y="-16"/>
      <point x="599" y="-16" type="curve" smooth="yes" name="hr02"/>
      <point x="698" y="-16"/>
      <point x="784" y="31"/>
      <point x="784" y="68" type="curve" smooth="yes"/>
      <point x="784" y="74"/>
      <point x="778" y="82"/>
      <point x="758" y="82" type="curve" smooth="yes"/>
      <point x="712" y="82"/>
      <point x="718" y="42"/>
      <point x="621" y="42" type="curve" smooth="yes"/>
      <point x="526" y="42"/>
      <point x="485" y="131"/>
      <point x="480" y="221" type="curve"/>
      <point x="760" y="221" type="line" smooth="yes"/>
      <point x="781" y="221"/>
      <point x="803" y="220"/>
      <point x="803" y="240" type="curve" smooth="yes"/>
      <point x="800" y="343"/>
      <point x="779" y="477"/>
      <point x="620" y="477" type="curve" smooth="yes"/>
      <point x="542" y="477"/>
      <point x="480" y="440"/>
      <point x="440" y="380" type="curve"/>
      <point x="410" y="435"/>
      <point x="358" y="475"/>
      <point x="281" y="475" type="curve" smooth="yes" name="hr03"/>
      <point x="215" y="475"/>
      <point x="150" y="450"/>
      <point x="115" y="408" type="curve"/>
      <point x="116" y="408" type="line"/>
      <point x="62" y="349"/>
      <point x="42" y="289"/>
    </contour>
    <contour>
      <point x="135" y="244" type="curve" smooth="yes"/>
      <point x="135" y="345"/>
      <point x="167" y="426"/>
      <point x="242" y="426" type="curve" smooth="yes" name="hr05"/>
      <point x="355" y="426"/>
      <point x="390" y="309"/>
      <point x="390" y="210" type="curve" smooth="yes"/>
      <point x="390" y="120"/>
      <point x="363" y="33"/>
      <point x="284" y="33" type="curve" smooth="yes"/>
      <point x="168" y="33"/>
      <point x="135" y="149"/>
    </contour>
    <contour>
      <point x="480" y="255" type="line"/>
      <point x="483" y="351"/>
      <point x="516" y="423"/>
      <point x="592" y="423" type="curve" smooth="yes"/>
      <point x="690" y="423"/>
      <point x="703" y="351"/>
      <point x="705" y="263" type="curve"/>
    </contour>
  </outline>
</glyph>
<glyph name="uni015E" format="1">
  <advance width="501"/>
  <unicode hex="015E"/>
  <outline>
    <contour>
      <point x="58" y="33" type="curve" smooth="yes" name="hr01"/>
      <point x="80" y="13"/>
      <point x="142" y="-5"/>
      <point x="195" y="-13" type="curve" name="hr02"/>
      <point x="181" y="-100" type="line"/>
      <point x="187" y="-99"/>
      <point x="194" y="-99"/>
      <point x="200" y="-99" type="curve" smooth="yes"/>
      <point x="241" y="-99"/>
      <point x="279" y="-110"/>
      <point x="279" y="-146" type="curve" smooth="yes"/>
      <point x="279" y="-201"/>
      <point x="234" y="-211"/>
      <point x="191" y="-211" type="curve" smooth="yes"/>
      <point x="180" y="-211"/>
      <point x="163" y="-205"/>
      <point x="152" y="-205" type="curve" smooth="yes"/>
      <point x="147" y="-205"/>
      <point x="137" y="-223"/>
      <point x="137" y="-236" type="curve" smooth="yes"/>
      <point x="137" y="-257"/>
      <point x="203" y="-264"/>
      <point x="222" y="-264" type="curve" smooth="yes"/>
      <point x="302" y="-264"/>
      <point x="374" y="-221"/>
      <point x="374" y="-141" type="curve" smooth="yes"/>
      <point x="374" y="-84"/>
      <point x="312" y="-64"/>
      <point x="266" y="-64" type="curve" name="hr03"/>
      <point x="266" y="-14" type="line"/>
      <point x="375" y="-2"/>
      <point x="472" y="78"/>
      <point x="472" y="179" type="curve" smooth="yes"/>
      <point x="472" y="424"/>
      <point x="131" y="340"/>
      <point x="131" y="520" type="curve" smooth="yes" name="hr04"/>
      <point x="131" y="581"/>
      <point x="186" y="614"/>
      <point x="244" y="614" type="curve" smooth="yes"/>
      <point x="318" y="614"/>
      <point x="365" y="590"/>
      <point x="387" y="553" type="curve" name="hr05"/>
      <point x="387" y="553"/>
      <point x="401" y="483"/>
      <point x="417" y="483" type="curve" smooth="yes"/>
      <point x="444" y="483"/>
      <point x="440" y="563"/>
      <point x="440" y="593" type="curve" smooth="yes"/>
      <point x="440" y="633"/>
      <point x="357" y="672"/>
      <point x="290" y="672" type="curve" smooth="yes"/>
      <point x="169" y="672"/>
      <point x="60" y="600"/>
      <point x="60" y="490" type="curve" smooth="yes"/>
      <point x="60" y="240"/>
      <point x="397" y="347"/>
      <point x="397" y="142" type="curve" smooth="yes" name="hr06"/>
      <point x="397" y="91"/>
      <point x="338" y="45"/>
      <point x="280" y="45" type="curve" smooth="yes"/>
      <point x="177" y="45"/>
      <point x="120" y="76"/>
      <point x="109" y="112" type="curve" name="hr07"/>
      <point x="109" y="112"/>
      <point x="94" y="188"/>
      <point x="78" y="188" type="curve" smooth="yes"/>
      <point x="69" y="188"/>
      <point x="59" y="183"/>
      <point x="59" y="171" type="curve" smooth="yes"/>
      <point x="58" y="136"/>
      <point x="54" y="52"/>
      <point x="54" y="48" type="curve" smooth="yes"/>
      <point x="54" y="39"/>
      <point x="56" y="34"/>
    </contour>
  </outline>
</glyph>
<glyph name="uni0162" format="1">
  <advance width="621"/>
  <unicode hex="0162"/>
  <outline>
    <contour>
      <point x="170" y="29" type="curve" smooth="yes" name="hr01"/>
      <point x="170" y="21"/>
      <point x="173" y="0"/>
      <point x="189" y="0" type="curve" smooth="yes"/>
      <point x="279" y="0" type="line" name="hr02"/>
      <point x="263" y="-100" type="line"/>
      <point x="269" y="-99"/>
      <point x="276" y="-99"/>
      <point x="282" y="-99" type="curve" smooth="yes"/>
      <point x="323" y="-99"/>
      <point x="361" y="-110"/>
      <point x="361" y="-146" type="curve" smooth="yes"/>
      <point x="361" y="-201"/>
      <point x="316" y="-211"/>
      <point x="273" y="-211" type="curve" smooth="yes"/>
      <point x="262" y="-211"/>
      <point x="245" y="-205"/>
      <point x="234" y="-205" type="curve" smooth="yes"/>
      <point x="229" y="-205"/>
      <point x="219" y="-223"/>
      <point x="219" y="-236" type="curve" smooth="yes"/>
      <point x="219" y="-257"/>
      <point x="285" y="-264"/>
      <point x="304" y="-264" type="curve" smooth="yes"/>
      <point x="384" y="-264"/>
      <point x="456" y="-221"/>
      <point x="456" y="-141" type="curve" smooth="yes"/>
      <point x="456" y="-84"/>
      <point x="394" y="-64"/>
      <point x="348" y="-64" type="curve" name="hr03"/>
      <point x="348" y="0" type="line"/>
      <point x="421" y="0" type="line" smooth="yes"/>
      <point x="445" y="0"/>
      <point x="455" y="21"/>
      <point x="455" y="27" type="curve" smooth="yes"/>
      <point x="455" y="63"/>
      <point x="360" y="39"/>
      <point x="360" y="79" type="curve" smooth="yes"/>
      <point x="360" y="610" type="line"/>
      <point x="399" y="610" type="line" smooth="yes"/>
      <point x="444" y="610"/>
      <point x="479" y="609"/>
      <point x="497" y="597" type="curve"/>
      <point x="517" y="572"/>
      <point x="530" y="428"/>
      <point x="537" y="424" type="curve" smooth="yes"/>
      <point x="541" y="422"/>
      <point x="545" y="421"/>
      <point x="549" y="421" type="curve" smooth="yes"/>
      <point x="591" y="421"/>
      <point x="583" y="493"/>
      <point x="583" y="570" type="curve" smooth="yes"/>
      <point x="583" y="614"/>
      <point x="580" y="658"/>
      <point x="572" y="658" type="curve" smooth="yes"/>
      <point x="40" y="658" type="line" smooth="yes"/>
      <point x="37" y="658"/>
      <point x="36" y="647"/>
      <point x="36" y="630" type="curve" smooth="yes"/>
      <point x="36" y="577"/>
      <point x="48" y="464"/>
      <point x="54" y="441" type="curve" smooth="yes" name="hr04"/>
      <point x="56" y="432"/>
      <point x="76" y="420"/>
      <point x="90" y="420" type="curve" smooth="yes"/>
      <point x="106" y="420"/>
      <point x="107" y="433"/>
      <point x="107" y="457" type="curve" smooth="yes"/>
      <point x="107" y="476"/>
      <point x="105" y="500"/>
      <point x="105" y="523" type="curve" smooth="yes"/>
      <point x="105" y="615"/>
      <point x="138" y="610"/>
      <point x="228" y="610" type="curve" smooth="yes"/>
      <point x="270" y="610" type="line"/>
      <point x="270" y="60" type="line"/>
      <point x="248" y="49"/>
      <point x="170" y="52"/>
    </contour>
  </outline>
</glyph>
<glyph name="tcaron" format="1">
  <advance width="321"/>
  <unicode hex="0165"/>
  <outline>
    <contour>
      <point x="237" y="536" type="line" smooth="yes" name="hr00"/>
      <point x="237" y="533"/>
      <point x="246" y="530"/>
      <point x="256" y="530" type="curve" smooth="yes"/>
      <point x="268" y="530"/>
      <point x="282" y="534"/>
      <point x="287" y="545" type="curve"/>
      <point x="296" y="571"/>
      <point x="310" y="654"/>
      <point x="310" y="713" type="curve" smooth="yes"/>
      <point x="310" y="748"/>
      <point x="307" y="774"/>
      <point x="239" y="774" type="curve" smooth="yes"/>
      <point x="224" y="774"/>
      <point x="216" y="770"/>
      <point x="216" y="760" type="curve"/>
    </contour>
    <component base="t"/>
  </outline>
</glyph>
<glyph name="Tbar" format="1">
  <advance width="621"/>
  <unicode hex="0166"/>
  <outline>
    <contour>
      <point x="170" y="29" type="curve" name="hr01" smooth="yes"/>
      <point x="170" y="21"/>
      <point x="173" y="0"/>
      <point x="189" y="0" type="curve" smooth="yes"/>
      <point x="421" y="0" type="line" smooth="yes"/>
      <point x="445" y="0"/>
      <point x="455" y="21"/>
      <point x="455" y="27" type="curve" smooth="yes"/>
      <point x="455" y="63"/>
      <point x="360" y="39"/>
      <point x="360" y="79" type="curve" smooth="yes"/>
      <point x="360" y="281" type="line"/>
      <point x="435" y="281" type="line" smooth="yes"/>
      <point x="454" y="281"/>
      <point x="488" y="291"/>
      <point x="488" y="327" type="curve" smooth="yes"/>
      <point x="488" y="334"/>
      <point x="476" y="341"/>
      <point x="464" y="341" type="curve" smooth="yes"/>
      <point x="360" y="341" type="line"/>
      <point x="360" y="610" type="line"/>
      <point x="399" y="610" type="line" smooth="yes"/>
      <point x="444" y="610"/>
      <point x="479" y="609"/>
      <point x="497" y="597" type="curve"/>
      <point x="517" y="572"/>
      <point x="530" y="428"/>
      <point x="537" y="424" type="curve" smooth="yes"/>
      <point x="541" y="422"/>
      <point x="545" y="421"/>
      <point x="549" y="421" type="curve" smooth="yes"/>
      <point x="591" y="421"/>
      <point x="583" y="493"/>
      <point x="583" y="570" type="curve" smooth="yes"/>
      <point x="583" y="614"/>
      <point x="580" y="658"/>
      <point x="572" y="658" type="curve" smooth="yes"/>
      <point x="40" y="658" type="line" smooth="yes"/>
      <point x="37" y="658"/>
      <point x="36" y="647"/>
      <point x="36" y="630" type="curve" smooth="yes"/>
      <point x="36" y="577"/>
      <point x="48" y="464"/>
      <point x="54" y="441" type="curve" name="hr02" smooth="yes"/>
      <point x="56" y="432"/>
      <point x="76" y="420"/>
      <point x="90" y="420" type="curve" smooth="yes"/>
      <point x="106" y="420"/>
      <point x="107" y="433"/>
      <point x="107" y="457" type="curve" smooth="yes"/>
      <point x="107" y="476"/>
      <point x="105" y="500"/>
      <point x="105" y="523" type="curve" smooth="yes"/>
      <point x="105" y="615"/>
      <point x="138" y="610"/>
      <point x="228" y="610" type="curve" smooth="yes"/>
      <point x="270" y="610" type="line"/>
      <point x="270" y="341" type="line"/>
      <point x="186" y="341" type="line" smooth="yes"/>
      <point x="176" y="341"/>
      <point x="146" y="323"/>
      <point x="146" y="304" type="curve" smooth="yes"/>
      <point x="146" y="289"/>
      <point x="158" y="281"/>
      <point x="165" y="281" type="curve" smooth="yes"/>
      <point x="270" y="281" type="line"/>
      <point x="270" y="60" type="line"/>
      <point x="248" y="49"/>
      <point x="170" y="52"/>
    </contour>
  </outline>
</glyph>
<glyph name="Tbar" format="1">
  <advance width="621"/>
  <unicode hex="0166"/>
  <outline>
    <contour>
      <point x="170" y="29" type="curve" smooth="yes" name="hr01"/>
      <point x="170" y="21"/>
      <point x="173" y="0"/>
      <point x="189" y="0" type="curve" smooth="yes"/>
      <point x="421" y="0" type="line" smooth="yes"/>
      <point x="445" y="0"/>
      <point x="455" y="21"/>
      <point x="455" y="27" type="curve" smooth="yes"/>
      <point x="455" y="63"/>
      <point x="360" y="39"/>
      <point x="360" y="79" type="curve" smooth="yes"/>
      <point x="360" y="281" type="line"/>
      <point x="435" y="281" type="line" smooth="yes"/>
      <point x="454" y="281"/>
      <point x="488" y="291"/>
      <point x="488" y="327" type="curve" smooth="yes"/>
      <point x="488" y="334"/>
      <point x="476" y="341"/>
      <point x="464" y="341" type="curve" smooth="yes"/>
      <point x="360" y="341" type="line"/>
      <point x="360" y="610" type="line"/>
      <point x="399" y="610" type="line" smooth="yes"/>
      <point x="444" y="610"/>
      <point x="479" y="609"/>
      <point x="497" y="597" type="curve"/>
      <point x="517" y="572"/>
      <point x="530" y="428"/>
      <point x="537" y="424" type="curve" smooth="yes"/>
      <point x="541" y="422"/>
      <point x="545" y="421"/>
      <point x="549" y="421" type="curve" smooth="yes"/>
      <point x="591" y="421"/>
      <point x="583" y="493"/>
      <point x="583" y="570" type="curve" smooth="yes"/>
      <point x="583" y="614"/>
      <point x="580" y="658"/>
      <point x="572" y="658" type="curve" smooth="yes"/>
      <point x="40" y="658" type="line" smooth="yes"/>
      <point x="37" y="658"/>
      <point x="36" y="647"/>
      <point x="36" y="630" type="curve" smooth="yes"/>
      <point x="36" y="577"/>
      <point x="48" y="464"/>
      <point x="54" y="441" type="curve" smooth="yes" name="hr02"/>
      <point x="56" y="432"/>
      <point x="76" y="420"/>
      <point x="90" y="420" type="curve" smooth="yes"/>
      <point x="106" y="420"/>
      <point x="107" y="433"/>
      <point x="107" y="457" type="curve" smooth="yes"/>
      <point x="107" y="476"/>
      <point x="105" y="500"/>
      <point x="105" y="523" type="curve" smooth="yes"/>
      <point x="105" y="615"/>
      <point x="138" y="610"/>
      <point x="228" y="610" type="curve" smooth="yes"/>
      <point x="270" y="610" type="line"/>
      <point x="270" y="341" type="line"/>
      <point x="186" y="341" type="line" smooth="yes"/>
      <point x="176" y="341"/>
      <point x="146" y="323"/>
      <point x="146" y="304" type="curve" smooth="yes"/>
      <point x="146" y="289"/>
      <point x="158" y="281"/>
      <point x="165" y="281" type="curve" smooth="yes"/>
      <point x="270" y="281" type="line"/>
      <point x="270" y="60" type="line"/>
      <point x="248" y="49"/>
      <point x="170" y="52"/>
    </contour>
  </outline>
</glyph>
<glyph name="Uogonek" format="1">
  <advance width="628"/>
  <unicode hex="0172"/>
  <outline>
    <contour>
      <point x="76" y="254" type="line" name="hr01" smooth="yes"/>
      <point x="76" y="73"/>
      <point x="153" y="-16"/>
      <point x="308" y="-16" type="curve" smooth="yes"/>
      <point x="318" y="-16"/>
      <point x="328" y="-16"/>
      <point x="337" y="-15" type="curve"/>
      <point x="307" y="-37"/>
      <point x="284" y="-69"/>
      <point x="284" y="-113" type="curve" smooth="yes"/>
      <point x="284" y="-172"/>
      <point x="333" y="-209"/>
      <point x="390" y="-209" type="curve" smooth="yes"/>
      <point x="490" y="-209"/>
      <point x="501" y="-146"/>
      <point x="501" y="-136" type="curve" smooth="yes"/>
      <point x="501" y="-131"/>
      <point x="496" y="-118"/>
      <point x="487" y="-118" type="curve" smooth="yes"/>
      <point x="485" y="-118"/>
      <point x="484" y="-118"/>
      <point x="482" y="-119" type="curve" smooth="yes"/>
      <point x="453" y="-136"/>
      <point x="430" y="-137"/>
      <point x="413" y="-137" type="curve" smooth="yes"/>
      <point x="386" y="-137"/>
      <point x="375" y="-110"/>
      <point x="375" y="-95" type="curve" smooth="yes"/>
      <point x="375" y="-23"/>
      <point x="426" y="4"/>
      <point x="472" y="33" type="curve"/>
      <point x="465" y="33" type="line"/>
      <point x="534" y="89"/>
      <point x="555" y="187"/>
      <point x="555" y="287" type="curve" smooth="yes"/>
      <point x="555" y="588" type="line" name="hr02"/>
      <point x="556" y="623"/>
      <point x="616" y="605"/>
      <point x="616" y="636" type="curve" smooth="yes"/>
      <point x="616" y="642"/>
      <point x="606" y="658"/>
      <point x="582" y="658" type="curve" smooth="yes"/>
      <point x="440" y="658" type="line" smooth="yes"/>
      <point x="423" y="658"/>
      <point x="421" y="642"/>
      <point x="421" y="634" type="curve" smooth="yes"/>
      <point x="421" y="618"/>
      <point x="471" y="610"/>
      <point x="485" y="603" type="curve"/>
      <point x="485" y="315" type="line" smooth="yes"/>
      <point x="485" y="68"/>
      <point x="435" y="42"/>
      <point x="335" y="42" type="curve" smooth="yes"/>
      <point x="199" y="42"/>
      <point x="169" y="113"/>
      <point x="169" y="305" type="curve" smooth="yes"/>
      <point x="169" y="588" type="line" name="hr03"/>
      <point x="172" y="622"/>
      <point x="246" y="603"/>
      <point x="246" y="636" type="curve" smooth="yes"/>
      <point x="246" y="642"/>
      <point x="236" y="658"/>
      <point x="212" y="658" type="curve" smooth="yes"/>
      <point x="51" y="658" type="line" smooth="yes"/>
      <point x="35" y="658"/>
      <point x="32" y="642"/>
      <point x="32" y="634" type="curve" smooth="yes"/>
      <point x="32" y="622"/>
      <point x="67" y="611"/>
      <point x="76" y="603" type="curve"/>
    </contour>
  </outline>
</glyph>
<glyph name="uogonek" format="1">
  <advance width="502"/>
  <unicode hex="0173"/>
  <outline>
    <contour>
      <point x="89" y="29" type="curve" smooth="yes" name="hr01"/>
      <point x="112" y="-5"/>
      <point x="160" y="-16"/>
      <point x="200" y="-16" type="curve" smooth="yes"/>
      <point x="261" y="-16"/>
      <point x="302" y="10"/>
      <point x="342" y="44" type="curve"/>
      <point x="342" y="19" type="line" smooth="yes"/>
      <point x="342" y="-3"/>
      <point x="358" y="-13"/>
      <point x="378" y="-15" type="curve"/>
      <point x="331" y="-37"/>
      <point x="284" y="-74"/>
      <point x="284" y="-126" type="curve" smooth="yes" name="hr02"/>
      <point x="284" y="-185"/>
      <point x="331" y="-209"/>
      <point x="391" y="-209" type="curve" smooth="yes"/>
      <point x="491" y="-209"/>
      <point x="502" y="-146"/>
      <point x="502" y="-136" type="curve" smooth="yes"/>
      <point x="502" y="-131"/>
      <point x="497" y="-118"/>
      <point x="488" y="-118" type="curve" smooth="yes"/>
      <point x="486" y="-118"/>
      <point x="485" y="-118"/>
      <point x="483" y="-119" type="curve" smooth="yes"/>
      <point x="454" y="-136"/>
      <point x="428" y="-137"/>
      <point x="413" y="-137" type="curve" smooth="yes"/>
      <point x="387" y="-137"/>
      <point x="376" y="-118"/>
      <point x="376" y="-95" type="curve" smooth="yes"/>
      <point x="376" y="-55"/>
      <point x="419" y="-22"/>
      <point x="468" y="7" type="curve"/>
      <point x="458" y="7" type="line"/>
      <point x="472" y="18"/>
      <point x="480" y="30"/>
      <point x="480" y="35" type="curve" smooth="yes" name="hr03"/>
      <point x="480" y="44"/>
      <point x="473" y="50"/>
      <point x="459" y="50" type="curve" smooth="yes"/>
      <point x="437" y="50"/>
      <point x="438" y="43"/>
      <point x="426" y="43" type="curve"/>
      <point x="426" y="451" type="line"/>
      <point x="423" y="462"/>
      <point x="414" y="463"/>
      <point x="404" y="463" type="curve" smooth="yes"/>
      <point x="323" y="463"/>
      <point x="279" y="453"/>
      <point x="279" y="433" type="curve" smooth="yes"/>
      <point x="279" y="418"/>
      <point x="312" y="408"/>
      <point x="342" y="404" type="curve"/>
      <point x="342" y="81" type="line"/>
      <point x="310" y="56"/>
      <point x="269" y="39"/>
      <point x="232" y="39" type="curve" smooth="yes"/>
      <point x="181" y="39"/>
      <point x="149" y="48"/>
      <point x="149" y="180" type="curve" smooth="yes"/>
      <point x="149" y="454" type="line"/>
      <point x="147" y="463"/>
      <point x="139" y="464"/>
      <point x="125" y="464" type="curve" smooth="yes"/>
      <point x="55" y="464"/>
      <point x="16" y="454"/>
      <point x="16" y="434" type="curve" smooth="yes"/>
      <point x="16" y="425"/>
      <point x="36" y="409"/>
      <point x="61" y="405" type="curve"/>
      <point x="63" y="132" type="line" smooth="yes"/>
      <point x="63" y="99"/>
      <point x="65" y="65"/>
    </contour>
  </outline>
</glyph>
<glyph name="dotlessj" format="1">
  <advance width="250"/>
  <unicode hex="0237"/>
  <outline>
    <contour>
      <point x="94" y="6" type="line" name="hr00" smooth="yes"/>
      <point x="94" y="-65"/>
      <point x="87" y="-122"/>
      <point x="38" y="-159" type="curve" smooth="yes"/>
      <point x="19" y="-173"/>
      <point x="8" y="-184"/>
      <point x="8" y="-194" type="curve" smooth="yes"/>
      <point x="8" y="-201"/>
      <point x="18" y="-214"/>
      <point x="26" y="-214" type="curve" smooth="yes"/>
      <point x="35" y="-214"/>
      <point x="44" y="-211"/>
      <point x="64" y="-199" type="curve" smooth="yes"/>
      <point x="153" y="-148"/>
      <point x="181" y="-92"/>
      <point x="181" y="16" type="curve" smooth="yes"/>
      <point x="181" y="457" type="line"/>
      <point x="179" y="465"/>
      <point x="160" y="467"/>
      <point x="147" y="467" type="curve" smooth="yes"/>
      <point x="105" y="467"/>
      <point x="32" y="436"/>
      <point x="32" y="409" type="curve" smooth="yes"/>
      <point x="32" y="399"/>
      <point x="67" y="385"/>
      <point x="94" y="380" type="curve"/>
    </contour>
    <contour>
      <point x="125" y="-557" type="move" name="bottom"/>
    </contour>
    <contour>
      <point x="125" y="484" type="move" name="top"/>
    </contour>
  </outline>
</glyph>
<glyph name="circumflex" format="1">
  <advance width="388"/>
  <unicode hex="02C6"/>
  <outline>
    <contour>
      <point x="63" y="561" type="curve" smooth="yes" name="hr00"/>
      <point x="77" y="561"/>
      <point x="151" y="643"/>
      <point x="194" y="704" type="curve"/>
      <point x="233" y="642"/>
      <point x="309" y="561"/>
      <point x="325" y="561" type="curve" smooth="yes"/>
      <point x="341" y="561"/>
      <point x="359" y="578"/>
      <point x="359" y="583" type="curve"/>
      <point x="245" y="759" type="line" smooth="yes"/>
      <point x="241" y="764"/>
      <point x="217" y="766"/>
      <point x="193" y="766" type="curve" smooth="yes"/>
      <point x="168" y="766"/>
      <point x="142" y="764"/>
      <point x="140" y="759" type="curve"/>
      <point x="27" y="583" type="line"/>
      <point x="27" y="578"/>
      <point x="44" y="561"/>
    </contour>
  </outline>
</glyph>
<glyph name="circumflexcomb" format="1">
  <advance width="388"/>
  <unicode hex="02C6"/>
  <outline>
    <component base="circumflex"/>
    <contour>
      <point x="193" y="484" type="move" name="_top"/>
    </contour>
    <contour>
      <point x="193" y="766" type="move" name="top"/>
    </contour>
  </outline>
</glyph>
<glyph name="caroncomb" format="1">
  <advance width="388"/>
  <unicode hex="02C7"/>
  <outline>
    <component base="caron"/>
    <contour>
      <point x="193" y="484" type="move" name="_top"/>
    </contour>
    <contour>
      <point x="193" y="786" type="move" name="top"/>
    </contour>
  </outline>
</glyph>
<glyph name="brevecomb" format="1">
  <advance width="389"/>
  <unicode hex="02D8"/>
  <outline>
    <component base="breve"/>
    <contour>
      <point x="193" y="484" type="move" name="_top"/>
    </contour>
    <contour>
      <point x="193" y="736" type="move" name="top"/>
    </contour>
  </outline>
</glyph>
<glyph name="dotaccent" format="1">
  <advance width="188"/>
  <unicode hex="02D9"/>
  <outline>
    <contour>
      <point x="102" y="554" type="curve" smooth="yes" name="hr00"/>
      <point x="129" y="554"/>
      <point x="161" y="589"/>
      <point x="161" y="612" type="curve" smooth="yes"/>
      <point x="161" y="630"/>
      <point x="142" y="658"/>
      <point x="83" y="658" type="curve" smooth="yes"/>
      <point x="57" y="658"/>
      <point x="27" y="618"/>
      <point x="27" y="596" type="curve" smooth="yes"/>
      <point x="27" y="587"/>
      <point x="42" y="554"/>
    </contour>
  </outline>
</glyph>
<glyph name="dotaccentcomb" format="1">
  <advance width="188"/>
  <unicode hex="02D9"/>
  <outline>
    <component base="dotaccent"/>
    <contour>
      <point x="94" y="484" type="move" name="_top"/>
    </contour>
    <contour>
      <point x="94" y="658" type="move" name="top"/>
    </contour>
  </outline>
</glyph>
<glyph name="ring" format="1">
  <advance width="346"/>
  <unicode hex="02DA"/>
  <outline>
    <contour>
      <point x="164" y="558" type="curve" smooth="yes" name="hr00"/>
      <point x="260" y="558"/>
      <point x="319" y="616"/>
      <point x="319" y="694" type="curve" smooth="yes"/>
      <point x="319" y="785"/>
      <point x="243" y="812"/>
      <point x="186" y="812" type="curve" smooth="yes"/>
      <point x="90" y="812"/>
      <point x="27" y="756"/>
      <point x="27" y="680" type="curve" smooth="yes"/>
      <point x="27" y="587"/>
      <point x="104" y="558"/>
    </contour>
    <contour>
      <point x="169" y="609" type="curve" smooth="yes"/>
      <point x="139" y="609"/>
      <point x="96" y="623"/>
      <point x="96" y="685" type="curve" smooth="yes"/>
      <point x="96" y="729"/>
      <point x="132" y="763"/>
      <point x="179" y="763" type="curve" smooth="yes"/>
      <point x="206" y="763"/>
      <point x="249" y="747"/>
      <point x="249" y="687" type="curve" smooth="yes"/>
      <point x="249" y="642"/>
      <point x="217" y="613"/>
      <point x="175" y="609" type="curve" smooth="yes"/>
      <point x="173" y="609"/>
      <point x="171" y="609"/>
    </contour>
  </outline>
</glyph>
<glyph name="ringcomb" format="1">
  <advance width="346"/>
  <unicode hex="02DA"/>
  <outline>
    <component base="ring"/>
    <contour>
      <point x="173" y="484" type="move" name="_top"/>
    </contour>
    <contour>
      <point x="173" y="812" type="move" name="top"/>
    </contour>
  </outline>
</glyph>
<glyph name="ogonek" format="1">
  <advance width="274"/>
  <unicode hex="02DB"/>
  <outline>
    <contour>
      <point x="27" y="-113" type="curve" smooth="yes" name="hr00"/>
      <point x="27" y="-172"/>
      <point x="76" y="-209"/>
      <point x="133" y="-209" type="curve" smooth="yes"/>
      <point x="233" y="-209"/>
      <point x="244" y="-146"/>
      <point x="244" y="-136" type="curve" smooth="yes"/>
      <point x="244" y="-131"/>
      <point x="239" y="-118"/>
      <point x="230" y="-118" type="curve" smooth="yes"/>
      <point x="228" y="-118"/>
      <point x="227" y="-118"/>
      <point x="225" y="-119" type="curve" smooth="yes"/>
      <point x="196" y="-136"/>
      <point x="173" y="-137"/>
      <point x="156" y="-137" type="curve" smooth="yes"/>
      <point x="129" y="-137"/>
      <point x="118" y="-110"/>
      <point x="118" y="-95" type="curve" smooth="yes"/>
      <point x="118" y="-23"/>
      <point x="169" y="4"/>
      <point x="215" y="33" type="curve"/>
      <point x="188" y="33" type="line"/>
      <point x="135" y="19"/>
      <point x="27" y="-19"/>
    </contour>
  </outline>
</glyph>
<glyph name="ogonekcomb" format="1">
  <advance width="274"/>
  <unicode hex="02DB"/>
  <outline>
    <component base="ogonek"/>
    <contour>
      <point x="244" y="10" type="move" name="_ogonek"/>
    </contour>
  </outline>
</glyph>
<glyph name="tilde" format="1">
  <advance width="472"/>
  <unicode hex="02DC"/>
  <outline>
    <contour>
      <point x="97" y="598" type="curve" smooth="yes" name="hr01"/>
      <point x="101" y="598"/>
      <point x="103" y="599"/>
      <point x="104" y="600" type="curve" smooth="yes"/>
      <point x="122" y="621"/>
      <point x="131" y="656"/>
      <point x="163" y="656" type="curve" smooth="yes"/>
      <point x="216" y="656"/>
      <point x="210" y="578"/>
      <point x="293" y="578" type="curve" smooth="yes"/>
      <point x="363" y="578"/>
      <point x="389" y="648"/>
      <point x="409" y="687" type="curve" smooth="yes" name="hr02"/>
      <point x="410" y="689"/>
      <point x="411" y="691"/>
      <point x="411" y="693" type="curve" smooth="yes"/>
      <point x="411" y="706"/>
      <point x="386" y="712"/>
      <point x="374" y="712" type="curve" smooth="yes"/>
      <point x="371" y="712"/>
      <point x="368" y="712"/>
      <point x="368" y="711" type="curve" smooth="yes"/>
      <point x="347" y="690"/>
      <point x="329" y="644"/>
      <point x="299" y="644" type="curve" smooth="yes"/>
      <point x="242" y="644"/>
      <point x="243" y="723"/>
      <point x="179" y="723" type="curve" smooth="yes" name="hr03"/>
      <point x="108" y="723"/>
      <point x="83" y="663"/>
      <point x="63" y="624" type="curve" smooth="yes"/>
      <point x="61" y="621"/>
      <point x="60" y="619"/>
      <point x="60" y="616" type="curve" smooth="yes"/>
      <point x="60" y="604"/>
      <point x="85" y="598"/>
    </contour>
  </outline>
</glyph>
<glyph name="tildecomb" format="1">
  <advance width="472"/>
  <unicode hex="02DC"/>
  <outline>
    <component base="tilde"/>
    <contour>
      <point x="236" y="484" type="move" name="_top"/>
    </contour>
    <contour>
      <point x="236" y="723" type="move" name="top"/>
    </contour>
  </outline>
</glyph>
<glyph name="hungarumlautcomb" format="1">
  <advance width="463"/>
  <unicode hex="02DD"/>
  <outline>
    <component base="hungarumlaut"/>
    <contour>
      <point x="262" y="484" type="move" name="_top"/>
    </contour>
    <contour>
      <point x="262" y="773" type="move" name="top"/>
    </contour>
  </outline>
</glyph>
<glyph name="uni0307" format="1">
  <advance width="24"/>
  <unicode hex="0307"/>
  <outline>
    <contour>
      <point x="-87" y="688" type="curve" name="hr00" smooth="yes"/>
      <point x="-84" y="688"/>
      <point x="-79" y="690"/>
      <point x="-73" y="695" type="curve" smooth="yes"/>
      <point x="-51" y="716" type="line"/>
      <point x="-33" y="730"/>
      <point x="-27" y="741"/>
      <point x="-27" y="747" type="curve" smooth="yes"/>
      <point x="-28" y="754"/>
      <point x="-33" y="764"/>
      <point x="-57" y="785" type="curve" smooth="yes"/>
      <point x="-76" y="802" type="line" smooth="yes"/>
      <point x="-81" y="806"/>
      <point x="-84" y="808"/>
      <point x="-87" y="808" type="curve" smooth="yes"/>
      <point x="-92" y="808"/>
      <point x="-118" y="794"/>
      <point x="-143" y="761" type="curve"/>
      <point x="-146" y="755"/>
      <point x="-149" y="751"/>
      <point x="-149" y="747" type="curve" smooth="yes"/>
      <point x="-149" y="745"/>
      <point x="-138" y="714"/>
      <point x="-101" y="693" type="curve" smooth="yes"/>
      <point x="-96" y="690"/>
      <point x="-91" y="688"/>
    </contour>
    <contour>
      <point x="-88" y="484" type="move" name="_top"/>
    </contour>
    <contour>
      <point x="-88" y="808" type="move" name="top"/>
    </contour>
  </outline>
</glyph>
<glyph name="dv_Candrabindu" format="1">
  <advance width="0"/>
  <unicode hex="0901"/>
  <outline>
    <contour>
      <point x="234" y="900" type="curve" name="hr01" smooth="yes"/>
      <point x="236" y="900"/>
      <point x="237" y="900"/>
      <point x="238" y="900" type="curve"/>
      <point x="253" y="916"/>
      <point x="301" y="962"/>
      <point x="301" y="974" type="curve" smooth="yes"/>
      <point x="301" y="997"/>
      <point x="255" y="1044"/>
      <point x="231" y="1044" type="curve" smooth="yes"/>
      <point x="227" y="1044"/>
      <point x="162" y="986"/>
      <point x="162" y="971" type="curve" smooth="yes"/>
      <point x="162" y="948"/>
      <point x="208" y="900"/>
    </contour>
    <contour>
      <point x="233" y="765" type="curve" smooth="yes"/>
      <point x="316" y="765"/>
      <point x="412" y="825"/>
      <point x="440" y="908" type="curve"/>
      <point x="440" y="909"/>
      <point x="440" y="910"/>
      <point x="440" y="912" type="curve" smooth="yes"/>
      <point x="440" y="934"/>
      <point x="417" y="973"/>
      <point x="400" y="973" type="curve" smooth="yes"/>
      <point x="397" y="973"/>
      <point x="393" y="971"/>
      <point x="391" y="967" type="curve" smooth="yes"/>
      <point x="365" y="888"/>
      <point x="311" y="854"/>
      <point x="233" y="854" type="curve" smooth="yes"/>
      <point x="155" y="854"/>
      <point x="101" y="888"/>
      <point x="75" y="967" type="curve"/>
      <point x="72" y="971"/>
      <point x="69" y="973"/>
      <point x="65" y="973" type="curve" smooth="yes"/>
      <point x="49" y="973"/>
      <point x="26" y="934"/>
      <point x="26" y="912" type="curve" smooth="yes"/>
      <point x="26" y="910"/>
      <point x="26" y="909"/>
      <point x="26" y="908" type="curve" smooth="yes"/>
      <point x="54" y="825"/>
      <point x="150" y="765"/>
    </contour>
  </outline>
</glyph>
